NotoSansMyanmar-Regular.ufo
<glyph name="question" format="2">
  <advance width="434"/>
  <unicode hex="003F"/>
  <outline>
    <contour>
      <point x="140" y="252" type="line"/>
      <point x="210" y="252" type="line"/>
      <point x="211" y="259" type="line" smooth="yes"/>
      <point x="213" y="274"/>
      <point x="225" y="304"/>
      <point x="290" y="358" type="curve" smooth="yes"/>
      <point x="358" y="414"/>
      <point x="408" y="459"/>
      <point x="408" y="549" type="curve" smooth="yes"/>
      <point x="408" y="657"/>
      <point x="336" y="724"/>
      <point x="209" y="724" type="curve" smooth="yes"/>
      <point x="129" y="724"/>
      <point x="65" y="703"/>
      <point x="12" y="675" type="curve"/>
      <point x="43" y="605" type="line"/>
      <point x="89" y="627"/>
      <point x="137" y="647"/>
      <point x="203" y="647" type="curve" smooth="yes"/>
      <point x="281" y="647"/>
      <point x="324" y="611"/>
      <point x="324" y="547" type="curve" smooth="yes"/>
      <point x="324" y="487"/>
      <point x="301" y="463"/>
      <point x="224" y="398" type="curve" smooth="yes"/>
      <point x="159" y="343"/>
      <point x="144" y="300"/>
      <point x="141" y="264" type="curve" smooth="yes"/>
    </contour>
    <contour>
      <point x="179" y="-10" type="curve" smooth="yes"/>
      <point x="243" y="-10"/>
      <point x="290" y="29"/>
      <point x="290" y="97" type="curve" smooth="yes"/>
      <point x="290" y="162"/>
      <point x="243" y="202"/>
      <point x="179" y="202" type="curve" smooth="yes"/>
      <point x="114" y="202"/>
      <point x="70" y="163"/>
      <point x="70" y="96" type="curve" smooth="yes"/>
      <point x="70" y="28"/>
      <point x="114" y="-10"/>
    </contour>
    <contour>
      <point x="180" y="43" type="curve" smooth="yes"/>
      <point x="145" y="43"/>
      <point x="127" y="62"/>
      <point x="127" y="96" type="curve" smooth="yes"/>
      <point x="127" y="129"/>
      <point x="149" y="149"/>
      <point x="180" y="149" type="curve" smooth="yes"/>
      <point x="211" y="149"/>
      <point x="233" y="129"/>
      <point x="233" y="96" type="curve" smooth="yes"/>
      <point x="233" y="62"/>
      <point x="211" y="43"/>
    </contour>
  </outline>
</glyph>
<glyph name="kha" format="2">
  <advance width="676"/>
  <unicode hex="1001"/>
  <note>
kha
</note>
  <outline>
    <contour>
      <point x="325" y="-10" type="curve" smooth="yes"/>
      <point x="508" y="-10"/>
      <point x="621" y="113"/>
      <point x="621" y="269" type="curve" smooth="yes"/>
      <point x="621" y="425"/>
      <point x="506" y="546"/>
      <point x="325" y="546" type="curve" smooth="yes"/>
      <point x="199" y="546"/>
      <point x="97" y="480"/>
      <point x="60" y="383" type="curve"/>
      <point x="130" y="347" type="line"/>
      <point x="167" y="430"/>
      <point x="239" y="472"/>
      <point x="327" y="472" type="curve" smooth="yes"/>
      <point x="449" y="472"/>
      <point x="530" y="392"/>
      <point x="530" y="270" type="curve" smooth="yes"/>
      <point x="530" y="169"/>
      <point x="475" y="64"/>
      <point x="328" y="64" type="curve" smooth="yes"/>
      <point x="251" y="64"/>
      <point x="187" y="94"/>
      <point x="147" y="154" type="curve"/>
      <point x="192" y="177"/>
      <point x="246" y="196"/>
      <point x="306" y="196" type="curve" smooth="yes"/>
      <point x="395" y="196"/>
      <point x="457" y="166"/>
      <point x="503" y="124" type="curve"/>
      <point x="532" y="192" type="line"/>
      <point x="478" y="238"/>
      <point x="402" y="269"/>
      <point x="309" y="269" type="curve" smooth="yes"/>
      <point x="222" y="269"/>
      <point x="144" y="243"/>
      <point x="52" y="182" type="curve"/>
      <point x="83" y="64"/>
      <point x="192" y="-10"/>
    </contour>
  </outline>
</glyph>
<glyph name="ga" format="2">
  <advance width="668"/>
  <unicode hex="1002"/>
  <note>
ga
</note>
  <outline>
    <contour>
      <point x="184" y="-10" type="curve"/>
      <point x="235" y="54" type="line"/>
      <point x="178" y="101"/>
      <point x="146" y="167"/>
      <point x="146" y="256" type="curve" smooth="yes"/>
      <point x="146" y="390"/>
      <point x="224" y="472"/>
      <point x="335" y="472" type="curve" smooth="yes"/>
      <point x="444" y="472"/>
      <point x="522" y="391"/>
      <point x="522" y="256" type="curve" smooth="yes"/>
      <point x="522" y="167"/>
      <point x="490" y="101"/>
      <point x="433" y="54" type="curve"/>
      <point x="484" y="-10" type="line"/>
      <point x="558" y="39"/>
      <point x="613" y="148"/>
      <point x="613" y="258" type="curve" smooth="yes"/>
      <point x="613" y="426"/>
      <point x="497" y="546"/>
      <point x="335" y="546" type="curve" smooth="yes"/>
      <point x="175" y="546"/>
      <point x="55" y="428"/>
      <point x="55" y="258" type="curve" smooth="yes"/>
      <point x="55" y="143"/>
      <point x="111" y="38"/>
    </contour>
  </outline>
</glyph>
<glyph name="gha" format="2">
  <advance width="1125"/>
  <unicode hex="1003"/>
  <note>
gha
</note>
  <outline>
    <contour>
      <point x="324" y="-10" type="curve" smooth="yes"/>
      <point x="491" y="-10"/>
      <point x="606" y="101"/>
      <point x="606" y="278" type="curve" smooth="yes"/>
      <point x="606" y="383"/>
      <point x="558" y="489"/>
      <point x="477" y="546" type="curve"/>
      <point x="426" y="482" type="line"/>
      <point x="483" y="435"/>
      <point x="515" y="370"/>
      <point x="515" y="280" type="curve" smooth="yes"/>
      <point x="515" y="146"/>
      <point x="436" y="64"/>
      <point x="331" y="64" type="curve" smooth="yes"/>
      <point x="215" y="64"/>
      <point x="153" y="122"/>
      <point x="153" y="200" type="curve" smooth="yes"/>
      <point x="153" y="242"/>
      <point x="167" y="277"/>
      <point x="222" y="325" type="curve" smooth="yes"/>
      <point x="277" y="373"/>
      <point x="286" y="397"/>
      <point x="286" y="442" type="curve" smooth="yes"/>
      <point x="286" y="491"/>
      <point x="244" y="546"/>
      <point x="170" y="546" type="curve" smooth="yes"/>
      <point x="119" y="546"/>
      <point x="93" y="529"/>
      <point x="53" y="486" type="curve"/>
      <point x="103" y="435" type="line"/>
      <point x="126" y="462"/>
      <point x="143" y="472"/>
      <point x="163" y="472" type="curve" smooth="yes"/>
      <point x="186" y="472"/>
      <point x="200" y="456"/>
      <point x="200" y="437" type="curve" smooth="yes"/>
      <point x="200" y="410"/>
      <point x="182" y="392"/>
      <point x="150" y="368" type="curve" smooth="yes"/>
      <point x="94" y="325"/>
      <point x="63" y="270"/>
      <point x="63" y="200" type="curve" smooth="yes"/>
      <point x="63" y="76"/>
      <point x="166" y="-10"/>
    </contour>
    <contour>
      <point x="793" y="-10" type="curve" smooth="yes"/>
      <point x="963" y="-10"/>
      <point x="1070" y="111"/>
      <point x="1070" y="268" type="curve" smooth="yes"/>
      <point x="1070" y="437"/>
      <point x="962" y="546"/>
      <point x="811" y="546" type="curve" smooth="yes"/>
      <point x="750" y="546"/>
      <point x="708" y="539"/>
      <point x="670" y="520" type="curve"/>
      <point x="702" y="454" type="line"/>
      <point x="728" y="466"/>
      <point x="759" y="472"/>
      <point x="797" y="472" type="curve" smooth="yes"/>
      <point x="906" y="472"/>
      <point x="979" y="394"/>
      <point x="979" y="270" type="curve" smooth="yes"/>
      <point x="979" y="146"/>
      <point x="908" y="64"/>
      <point x="795" y="64" type="curve" smooth="yes"/>
      <point x="713" y="64"/>
      <point x="635" y="118"/>
      <point x="588" y="213" type="curve"/>
      <point x="551" y="122" type="line"/>
      <point x="602" y="35"/>
      <point x="690" y="-10"/>
    </contour>
  </outline>
</glyph>
<glyph name="ca" format="2">
  <advance width="674"/>
  <unicode hex="1005"/>
  <note>
ca
</note>
  <outline>
    <contour>
      <point x="334" y="-10" type="curve" smooth="yes"/>
      <point x="502" y="-10"/>
      <point x="619" y="105"/>
      <point x="619" y="268" type="curve" smooth="yes"/>
      <point x="619" y="429"/>
      <point x="507" y="546"/>
      <point x="337" y="546" type="curve" smooth="yes"/>
      <point x="165" y="546"/>
      <point x="55" y="426"/>
      <point x="55" y="268" type="curve" smooth="yes"/>
      <point x="55" y="109"/>
      <point x="164" y="-10"/>
    </contour>
    <contour>
      <point x="250" y="66" type="line"/>
      <point x="303" y="116"/>
      <point x="339" y="181"/>
      <point x="339" y="265" type="curve" smooth="yes"/>
      <point x="339" y="354"/>
      <point x="299" y="418"/>
      <point x="246" y="468" type="curve"/>
      <point x="181" y="428" type="line"/>
      <point x="234" y="383"/>
      <point x="258" y="326"/>
      <point x="258" y="265" type="curve" smooth="yes"/>
      <point x="258" y="202"/>
      <point x="233" y="146"/>
      <point x="184" y="106" type="curve"/>
    </contour>
    <contour>
      <point x="334" y="63" type="curve" smooth="yes"/>
      <point x="225" y="63"/>
      <point x="136" y="147"/>
      <point x="136" y="266" type="curve" smooth="yes"/>
      <point x="136" y="385"/>
      <point x="221" y="472"/>
      <point x="335" y="472" type="curve" smooth="yes"/>
      <point x="452" y="472"/>
      <point x="528" y="390"/>
      <point x="528" y="266" type="curve" smooth="yes"/>
      <point x="528" y="145"/>
      <point x="451" y="63"/>
    </contour>
  </outline>
</glyph>
<glyph name="cha" format="2">
  <advance width="1127"/>
  <unicode hex="1006"/>
  <note>
cha
</note>
  <outline>
    <contour>
      <point x="325" y="-10" type="curve" smooth="yes"/>
      <point x="508" y="-10"/>
      <point x="621" y="113"/>
      <point x="621" y="269" type="curve" smooth="yes"/>
      <point x="621" y="425"/>
      <point x="506" y="546"/>
      <point x="325" y="546" type="curve" smooth="yes"/>
      <point x="199" y="546"/>
      <point x="97" y="480"/>
      <point x="60" y="383" type="curve"/>
      <point x="130" y="347" type="line"/>
      <point x="167" y="430"/>
      <point x="239" y="472"/>
      <point x="327" y="472" type="curve" smooth="yes"/>
      <point x="449" y="472"/>
      <point x="530" y="392"/>
      <point x="530" y="270" type="curve" smooth="yes"/>
      <point x="530" y="169"/>
      <point x="475" y="64"/>
      <point x="328" y="64" type="curve" smooth="yes"/>
      <point x="251" y="64"/>
      <point x="187" y="94"/>
      <point x="147" y="154" type="curve"/>
      <point x="192" y="177"/>
      <point x="246" y="196"/>
      <point x="306" y="196" type="curve" smooth="yes"/>
      <point x="395" y="196"/>
      <point x="457" y="166"/>
      <point x="503" y="124" type="curve"/>
      <point x="532" y="192" type="line"/>
      <point x="478" y="238"/>
      <point x="402" y="269"/>
      <point x="309" y="269" type="curve" smooth="yes"/>
      <point x="222" y="269"/>
      <point x="144" y="243"/>
      <point x="52" y="182" type="curve"/>
      <point x="83" y="64"/>
      <point x="192" y="-10"/>
    </contour>
    <contour>
      <point x="785" y="-10" type="curve" smooth="yes"/>
      <point x="955" y="-10"/>
      <point x="1072" y="104"/>
      <point x="1072" y="268" type="curve" smooth="yes"/>
      <point x="1072" y="430"/>
      <point x="959" y="546"/>
      <point x="788" y="546" type="curve" smooth="yes"/>
      <point x="670" y="546"/>
      <point x="597" y="507"/>
      <point x="532" y="428" type="curve"/>
      <point x="572" y="345" type="line"/>
      <point x="624" y="443"/>
      <point x="697" y="472"/>
      <point x="790" y="472" type="curve" smooth="yes"/>
      <point x="910" y="472"/>
      <point x="981" y="393"/>
      <point x="981" y="266" type="curve" smooth="yes"/>
      <point x="981" y="145"/>
      <point x="905" y="64"/>
      <point x="784" y="64" type="curve" smooth="yes"/>
      <point x="684" y="64"/>
      <point x="606" y="119"/>
      <point x="577" y="191" type="curve"/>
      <point x="537" y="110" type="line"/>
      <point x="582" y="38"/>
      <point x="666" y="-10"/>
    </contour>
  </outline>
</glyph>
<glyph name="ja" format="2">
  <advance width="684"/>
  <unicode hex="1007"/>
  <note>
ja
</note>
  <outline>
    <contour>
      <point x="336" y="-10" type="curve" smooth="yes"/>
      <point x="438" y="-10"/>
      <point x="518" y="20"/>
      <point x="565" y="59" type="curve"/>
      <point x="506" y="119" type="line"/>
      <point x="466" y="82"/>
      <point x="411" y="64"/>
      <point x="341" y="64" type="curve" smooth="yes"/>
      <point x="204" y="64"/>
      <point x="146" y="148"/>
      <point x="146" y="277" type="curve" smooth="yes"/>
      <point x="146" y="393"/>
      <point x="222" y="472"/>
      <point x="335" y="472" type="curve" smooth="yes"/>
      <point x="358" y="472"/>
      <point x="383" y="469"/>
      <point x="406" y="464" type="curve"/>
      <point x="401" y="481" type="line"/>
      <point x="363" y="465"/>
      <point x="333" y="429"/>
      <point x="333" y="378" type="curve" smooth="yes"/>
      <point x="333" y="310"/>
      <point x="388" y="259"/>
      <point x="460" y="259" type="curve" smooth="yes"/>
      <point x="493" y="259"/>
      <point x="522" y="267"/>
      <point x="541" y="286" type="curve"/>
      <point x="517" y="280" type="line"/>
      <point x="517" y="211"/>
      <point x="559" y="165"/>
      <point x="645" y="165" type="curve" smooth="yes"/>
      <point x="663" y="165" type="line"/>
      <point x="663" y="238" type="line"/>
      <point x="609" y="238"/>
      <point x="588" y="248"/>
      <point x="588" y="291" type="curve" smooth="yes"/>
      <point x="588" y="302"/>
      <point x="592" y="348"/>
      <point x="592" y="370" type="curve" smooth="yes"/>
      <point x="592" y="490"/>
      <point x="481" y="546"/>
      <point x="336" y="546" type="curve" smooth="yes"/>
      <point x="169" y="546"/>
      <point x="55" y="431"/>
      <point x="55" y="269" type="curve" smooth="yes"/>
      <point x="55" y="122"/>
      <point x="145" y="-10"/>
    </contour>
    <contour>
      <point x="459" y="324" type="curve" smooth="yes"/>
      <point x="429" y="324"/>
      <point x="404" y="348"/>
      <point x="404" y="379" type="curve" smooth="yes"/>
      <point x="404" y="410"/>
      <point x="429" y="434"/>
      <point x="459" y="434" type="curve" smooth="yes"/>
      <point x="490" y="434"/>
      <point x="515" y="410"/>
      <point x="515" y="379" type="curve" smooth="yes"/>
      <point x="515" y="348"/>
      <point x="490" y="324"/>
    </contour>
  </outline>
</glyph>
<glyph name="jha" format="2">
  <advance width="869"/>
  <unicode hex="1008"/>
  <note>
jha
</note>
  <outline>
    <contour>
      <point x="589" y="-467" type="curve" smooth="yes"/>
      <point x="714" y="-467"/>
      <point x="777" y="-381"/>
      <point x="777" y="-209" type="curve" smooth="yes"/>
      <point x="777" y="536" type="line"/>
      <point x="688" y="536" type="line"/>
      <point x="688" y="-217" type="line" smooth="yes"/>
      <point x="688" y="-331"/>
      <point x="658" y="-394"/>
      <point x="590" y="-394" type="curve" smooth="yes"/>
      <point x="522" y="-394"/>
      <point x="491" y="-331"/>
      <point x="491" y="-217" type="curve" smooth="yes"/>
      <point x="491" y="57" type="line"/>
      <point x="402" y="15" type="line"/>
      <point x="402" y="-208" type="line" smooth="yes"/>
      <point x="402" y="-380"/>
      <point x="464" y="-467"/>
    </contour>
    <contour>
      <point x="324" y="-10" type="curve" smooth="yes"/>
      <point x="489" y="-10"/>
      <point x="597" y="105"/>
      <point x="597" y="268" type="curve" smooth="yes"/>
      <point x="597" y="429"/>
      <point x="494" y="546"/>
      <point x="327" y="546" type="curve" smooth="yes"/>
      <point x="165" y="546"/>
      <point x="55" y="426"/>
      <point x="55" y="268" type="curve" smooth="yes"/>
      <point x="55" y="109"/>
      <point x="164" y="-10"/>
    </contour>
    <contour>
      <point x="324" y="63" type="curve" smooth="yes"/>
      <point x="225" y="63"/>
      <point x="136" y="147"/>
      <point x="136" y="266" type="curve" smooth="yes"/>
      <point x="136" y="385"/>
      <point x="221" y="472"/>
      <point x="325" y="472" type="curve" smooth="yes"/>
      <point x="439" y="472"/>
      <point x="506" y="390"/>
      <point x="506" y="266" type="curve" smooth="yes"/>
      <point x="506" y="145"/>
      <point x="438" y="63"/>
    </contour>
    <contour>
      <point x="242" y="66" type="line"/>
      <point x="295" y="116"/>
      <point x="331" y="181"/>
      <point x="331" y="265" type="curve" smooth="yes"/>
      <point x="331" y="354"/>
      <point x="291" y="418"/>
      <point x="238" y="468" type="curve"/>
      <point x="173" y="428" type="line"/>
      <point x="226" y="383"/>
      <point x="250" y="326"/>
      <point x="250" y="265" type="curve" smooth="yes"/>
      <point x="250" y="202"/>
      <point x="225" y="146"/>
      <point x="176" y="106" type="curve"/>
    </contour>
  </outline>
</glyph>
<glyph name="nya" format="2">
  <advance width="661"/>
  <unicode hex="1009"/>
  <note>
nya
</note>
  <outline>
    <contour>
      <point x="296" y="-467" type="curve" smooth="yes"/>
      <point x="847" y="-467" type="line" smooth="yes"/>
      <point x="982" y="-467"/>
      <point x="1052" y="-397"/>
      <point x="1052" y="-256" type="curve" smooth="yes"/>
      <point x="1052" y="-253" type="line"/>
      <point x="963" y="-253" type="line"/>
      <point x="963" y="-269" type="line" smooth="yes"/>
      <point x="963" y="-349"/>
      <point x="929" y="-394"/>
      <point x="851" y="-394" type="curve" smooth="yes"/>
      <point x="292" y="-394" type="line" smooth="yes"/>
      <point x="214" y="-394"/>
      <point x="180" y="-349"/>
      <point x="180" y="-269" type="curve" smooth="yes"/>
      <point x="180" y="52" type="line"/>
      <point x="91" y="153" type="line"/>
      <point x="91" y="-253" type="line" smooth="yes"/>
      <point x="91" y="-396"/>
      <point x="159" y="-467"/>
    </contour>
    <contour>
      <point x="333" y="-10" type="curve" smooth="yes"/>
      <point x="507" y="-10"/>
      <point x="604" y="108"/>
      <point x="604" y="269" type="curve" smooth="yes"/>
      <point x="604" y="427"/>
      <point x="503" y="546"/>
      <point x="333" y="546" type="curve" smooth="yes"/>
      <point x="226" y="546"/>
      <point x="126" y="480"/>
      <point x="91" y="383" type="curve"/>
      <point x="161" y="347" type="line"/>
      <point x="196" y="430"/>
      <point x="264" y="472"/>
      <point x="335" y="472" type="curve" smooth="yes"/>
      <point x="448" y="472"/>
      <point x="513" y="390"/>
      <point x="513" y="270" type="curve" smooth="yes"/>
      <point x="513" y="151"/>
      <point x="443" y="64"/>
      <point x="335" y="64" type="curve" smooth="yes"/>
      <point x="264" y="64"/>
      <point x="196" y="106"/>
      <point x="161" y="189" type="curve"/>
      <point x="91" y="153" type="line"/>
      <point x="126" y="56"/>
      <point x="226" y="-10"/>
    </contour>
  </outline>
</glyph>
<glyph name="tta" format="2">
  <advance width="666"/>
  <unicode hex="100B"/>
  <note>
tta
</note>
  <outline>
    <contour>
      <point x="487" y="-467" type="line"/>
      <point x="700" y="-467" type="line"/>
      <point x="700" y="-399" type="line"/>
      <point x="575" y="-399" type="line"/>
      <point x="575" y="-181" type="line"/>
      <point x="499" y="-221"/>
      <point x="418" y="-244"/>
      <point x="332" y="-244" type="curve" smooth="yes"/>
      <point x="264" y="-244"/>
      <point x="216" y="-235"/>
      <point x="169" y="-218" type="curve"/>
      <point x="169" y="-132" type="line"/>
      <point x="220" y="-152"/>
      <point x="275" y="-164"/>
      <point x="332" y="-164" type="curve" smooth="yes"/>
      <point x="421" y="-164"/>
      <point x="509" y="-131"/>
      <point x="575" y="-83" type="curve"/>
      <point x="575" y="153" type="line"/>
      <point x="487" y="53" type="line"/>
      <point x="487" y="-49" type="line"/>
      <point x="440" y="-76"/>
      <point x="388" y="-90"/>
      <point x="332" y="-90" type="curve" smooth="yes"/>
      <point x="246" y="-90"/>
      <point x="157" y="-54"/>
      <point x="91" y="0" type="curve"/>
      <point x="91" y="-265" type="line"/>
      <point x="166" y="-300"/>
      <point x="246" y="-318"/>
      <point x="332" y="-318" type="curve" smooth="yes"/>
      <point x="385" y="-318"/>
      <point x="437" y="-311"/>
      <point x="487" y="-296" type="curve"/>
    </contour>
    <contour>
      <point x="333" y="-10" type="curve" smooth="yes"/>
      <point x="451" y="-10"/>
      <point x="501" y="39"/>
      <point x="575" y="153" type="curve"/>
      <point x="505" y="189" type="line"/>
      <point x="472" y="106"/>
      <point x="410" y="64"/>
      <point x="332" y="64" type="curve" smooth="yes"/>
      <point x="222" y="64"/>
      <point x="153" y="143"/>
      <point x="153" y="270" type="curve" smooth="yes"/>
      <point x="153" y="391"/>
      <point x="224" y="472"/>
      <point x="332" y="472" type="curve" smooth="yes"/>
      <point x="410" y="472"/>
      <point x="472" y="430"/>
      <point x="505" y="347" type="curve"/>
      <point x="575" y="383" type="line"/>
      <point x="539" y="483"/>
      <point x="446" y="546"/>
      <point x="333" y="546" type="curve" smooth="yes"/>
      <point x="168" y="546"/>
      <point x="62" y="431"/>
      <point x="62" y="269" type="curve" smooth="yes"/>
      <point x="62" y="111"/>
      <point x="168" y="-10"/>
    </contour>
  </outline>
</glyph>
<glyph name="ttha" format="2">
  <advance width="659"/>
  <unicode hex="100C"/>
  <note>
ttha
</note>
  <outline>
    <contour>
      <point x="256" y="-467" type="curve" smooth="yes"/>
      <point x="363" y="-467" type="line" smooth="yes"/>
      <point x="498" y="-467"/>
      <point x="568" y="-397"/>
      <point x="568" y="-258" type="curve" smooth="yes"/>
      <point x="568" y="153" type="line"/>
      <point x="480" y="53" type="line"/>
      <point x="480" y="-269" type="line" smooth="yes"/>
      <point x="480" y="-349"/>
      <point x="445" y="-394"/>
      <point x="368" y="-394" type="curve" smooth="yes"/>
      <point x="254" y="-394" type="line" smooth="yes"/>
      <point x="190" y="-394"/>
      <point x="145" y="-367"/>
      <point x="145" y="-316" type="curve" smooth="yes"/>
      <point x="145" y="-266"/>
      <point x="180" y="-244"/>
      <point x="212" y="-244" type="curve" smooth="yes"/>
      <point x="251" y="-244"/>
      <point x="273" y="-261"/>
      <point x="296" y="-283" type="curve"/>
      <point x="351" y="-231" type="line"/>
      <point x="310" y="-193"/>
      <point x="272" y="-170"/>
      <point x="207" y="-170" type="curve" smooth="yes"/>
      <point x="120" y="-170"/>
      <point x="55" y="-229"/>
      <point x="55" y="-315" type="curve" smooth="yes"/>
      <point x="55" y="-415"/>
      <point x="127" y="-467"/>
    </contour>
    <contour>
      <point x="326" y="-10" type="curve" smooth="yes"/>
      <point x="444" y="-10"/>
      <point x="494" y="39"/>
      <point x="568" y="153" type="curve"/>
      <point x="498" y="189" type="line"/>
      <point x="465" y="106"/>
      <point x="403" y="64"/>
      <point x="325" y="64" type="curve" smooth="yes"/>
      <point x="215" y="64"/>
      <point x="146" y="143"/>
      <point x="146" y="270" type="curve" smooth="yes"/>
      <point x="146" y="391"/>
      <point x="217" y="472"/>
      <point x="325" y="472" type="curve" smooth="yes"/>
      <point x="403" y="472"/>
      <point x="465" y="430"/>
      <point x="498" y="347" type="curve"/>
      <point x="568" y="383" type="line"/>
      <point x="532" y="483"/>
      <point x="439" y="546"/>
      <point x="326" y="546" type="curve" smooth="yes"/>
      <point x="161" y="546"/>
      <point x="55" y="431"/>
      <point x="55" y="269" type="curve" smooth="yes"/>
      <point x="55" y="111"/>
      <point x="161" y="-10"/>
    </contour>
  </outline>
</glyph>
<glyph name="dda" format="2">
  <advance width="666"/>
  <unicode hex="100D"/>
  <note>
dda
</note>
  <outline>
    <contour>
      <point x="488" y="-467" type="line"/>
      <point x="701" y="-467" type="line"/>
      <point x="701" y="-399" type="line"/>
      <point x="576" y="-399" type="line"/>
      <point x="576" y="0" type="line"/>
      <point x="510" y="-54"/>
      <point x="421" y="-90"/>
      <point x="335" y="-90" type="curve" smooth="yes"/>
      <point x="279" y="-90"/>
      <point x="227" y="-76"/>
      <point x="180" y="-49" type="curve"/>
      <point x="180" y="53" type="line"/>
      <point x="92" y="153" type="line"/>
      <point x="92" y="-83" type="line"/>
      <point x="158" y="-131"/>
      <point x="246" y="-164"/>
      <point x="335" y="-164" type="curve" smooth="yes"/>
      <point x="389" y="-164"/>
      <point x="440" y="-154"/>
      <point x="488" y="-136" type="curve"/>
    </contour>
    <contour>
      <point x="334" y="-10" type="curve" smooth="yes"/>
      <point x="499" y="-10"/>
      <point x="605" y="111"/>
      <point x="605" y="269" type="curve" smooth="yes"/>
      <point x="605" y="431"/>
      <point x="499" y="546"/>
      <point x="334" y="546" type="curve" smooth="yes"/>
      <point x="221" y="546"/>
      <point x="128" y="483"/>
      <point x="92" y="383" type="curve"/>
      <point x="162" y="347" type="line"/>
      <point x="195" y="430"/>
      <point x="257" y="472"/>
      <point x="335" y="472" type="curve" smooth="yes"/>
      <point x="443" y="472"/>
      <point x="514" y="391"/>
      <point x="514" y="270" type="curve" smooth="yes"/>
      <point x="514" y="143"/>
      <point x="445" y="64"/>
      <point x="335" y="64" type="curve" smooth="yes"/>
      <point x="257" y="64"/>
      <point x="195" y="106"/>
      <point x="162" y="189" type="curve"/>
      <point x="92" y="153" type="line"/>
      <point x="166" y="39"/>
      <point x="216" y="-10"/>
    </contour>
  </outline>
</glyph>
<glyph name="ddha" format="2">
  <advance width="677"/>
  <unicode hex="100E"/>
  <note>
ddha
</note>
  <outline>
    <contour>
      <point x="324" y="-10" type="curve" smooth="yes"/>
      <point x="511" y="-10"/>
      <point x="622" y="114"/>
      <point x="622" y="278" type="curve" smooth="yes"/>
      <point x="622" y="383"/>
      <point x="571" y="489"/>
      <point x="485" y="546" type="curve"/>
      <point x="434" y="482" type="line"/>
      <point x="496" y="435"/>
      <point x="531" y="370"/>
      <point x="531" y="280" type="curve" smooth="yes"/>
      <point x="531" y="146"/>
      <point x="452" y="64"/>
      <point x="331" y="64" type="curve" smooth="yes"/>
      <point x="215" y="64"/>
      <point x="153" y="122"/>
      <point x="153" y="200" type="curve" smooth="yes"/>
      <point x="153" y="242"/>
      <point x="167" y="277"/>
      <point x="222" y="325" type="curve" smooth="yes"/>
      <point x="277" y="373"/>
      <point x="286" y="397"/>
      <point x="286" y="442" type="curve" smooth="yes"/>
      <point x="286" y="491"/>
      <point x="244" y="546"/>
      <point x="170" y="546" type="curve" smooth="yes"/>
      <point x="119" y="546"/>
      <point x="93" y="529"/>
      <point x="53" y="486" type="curve"/>
      <point x="103" y="435" type="line"/>
      <point x="126" y="462"/>
      <point x="143" y="472"/>
      <point x="163" y="472" type="curve" smooth="yes"/>
      <point x="186" y="472"/>
      <point x="200" y="456"/>
      <point x="200" y="437" type="curve" smooth="yes"/>
      <point x="200" y="410"/>
      <point x="182" y="392"/>
      <point x="150" y="368" type="curve" smooth="yes"/>
      <point x="94" y="325"/>
      <point x="63" y="270"/>
      <point x="63" y="200" type="curve" smooth="yes"/>
      <point x="63" y="76"/>
      <point x="166" y="-10"/>
    </contour>
  </outline>
</glyph>
<glyph name="nna" format="2">
  <advance width="1255"/>
  <unicode hex="100F"/>
  <note>
nna
</note>
  <outline>
    <contour>
      <point x="627" y="-10" type="curve" smooth="yes"/>
      <point x="720" y="-10"/>
      <point x="784" y="33"/>
      <point x="784" y="121" type="curve" smooth="yes"/>
      <point x="784" y="175"/>
      <point x="764" y="203"/>
      <point x="764" y="263" type="curve" smooth="yes"/>
      <point x="764" y="393"/>
      <point x="833" y="473"/>
      <point x="938" y="473" type="curve" smooth="yes"/>
      <point x="1040" y="473"/>
      <point x="1108" y="391"/>
      <point x="1108" y="266" type="curve" smooth="yes"/>
      <point x="1108" y="140"/>
      <point x="1033" y="64"/>
      <point x="931" y="64" type="curve" smooth="yes"/>
      <point x="911" y="64"/>
      <point x="894" y="64"/>
      <point x="875" y="70" type="curve"/>
      <point x="855" y="0" type="line"/>
      <point x="882" y="-8"/>
      <point x="906" y="-10"/>
      <point x="945" y="-10" type="curve" smooth="yes"/>
      <point x="1089" y="-10"/>
      <point x="1200" y="109"/>
      <point x="1200" y="269" type="curve" smooth="yes"/>
      <point x="1200" y="426"/>
      <point x="1098" y="546"/>
      <point x="934" y="546" type="curve" smooth="yes"/>
      <point x="768" y="546"/>
      <point x="673" y="426"/>
      <point x="673" y="274" type="curve" smooth="yes"/>
      <point x="673" y="200"/>
      <point x="693" y="187"/>
      <point x="693" y="129" type="curve" smooth="yes"/>
      <point x="693" y="94"/>
      <point x="671" y="65"/>
      <point x="628" y="65" type="curve" smooth="yes"/>
      <point x="584" y="65"/>
      <point x="562" y="94"/>
      <point x="562" y="129" type="curve" smooth="yes"/>
      <point x="562" y="190"/>
      <point x="583" y="196"/>
      <point x="583" y="275" type="curve" smooth="yes"/>
      <point x="583" y="428"/>
      <point x="486" y="546"/>
      <point x="321" y="546" type="curve" smooth="yes"/>
      <point x="159" y="546"/>
      <point x="55" y="429"/>
      <point x="55" y="269" type="curve" smooth="yes"/>
      <point x="55" y="107"/>
      <point x="167" y="-10"/>
      <point x="310" y="-10" type="curve" smooth="yes"/>
      <point x="347" y="-10"/>
      <point x="372" y="-8"/>
      <point x="399" y="0" type="curve"/>
      <point x="378" y="70" type="line"/>
      <point x="361" y="64"/>
      <point x="343" y="64"/>
      <point x="323" y="64" type="curve" smooth="yes"/>
      <point x="221" y="64"/>
      <point x="146" y="143"/>
      <point x="146" y="266" type="curve" smooth="yes"/>
      <point x="146" y="392"/>
      <point x="217" y="473"/>
      <point x="320" y="473" type="curve" smooth="yes"/>
      <point x="422" y="473"/>
      <point x="491" y="393"/>
      <point x="491" y="263" type="curve" smooth="yes"/>
      <point x="491" y="203"/>
      <point x="471" y="175"/>
      <point x="471" y="121" type="curve" smooth="yes"/>
      <point x="471" y="39"/>
      <point x="529" y="-10"/>
    </contour>
    <contour>
      <point x="531" y="415" type="line"/>
      <point x="557" y="442"/>
      <point x="578" y="473"/>
      <point x="629" y="473" type="curve" smooth="yes"/>
      <point x="670" y="473"/>
      <point x="695" y="447"/>
      <point x="727" y="412" type="curve"/>
      <point x="766" y="473" type="line"/>
      <point x="735" y="512"/>
      <point x="694" y="546"/>
      <point x="628" y="546" type="curve" smooth="yes"/>
      <point x="560" y="546"/>
      <point x="526" y="515"/>
      <point x="487" y="472" type="curve"/>
    </contour>
  </outline>
</glyph>
<glyph name="ta" format="2">
  <advance width="1124"/>
  <unicode hex="1010"/>
  <note>
ta
</note>
  <outline>
    <contour>
      <point x="324" y="-10" type="curve" smooth="yes"/>
      <point x="495" y="-10"/>
      <point x="607" y="103"/>
      <point x="607" y="264" type="curve" smooth="yes"/>
      <point x="607" y="422"/>
      <point x="502" y="546"/>
      <point x="327" y="546" type="curve" smooth="yes"/>
      <point x="165" y="546"/>
      <point x="55" y="426"/>
      <point x="55" y="268" type="curve" smooth="yes"/>
      <point x="55" y="109"/>
      <point x="164" y="-10"/>
    </contour>
    <contour>
      <point x="327" y="64" type="curve" smooth="yes"/>
      <point x="226" y="64"/>
      <point x="146" y="143"/>
      <point x="146" y="266" type="curve" smooth="yes"/>
      <point x="146" y="391"/>
      <point x="221" y="472"/>
      <point x="328" y="472" type="curve" smooth="yes"/>
      <point x="448" y="472"/>
      <point x="515" y="387"/>
      <point x="515" y="262" type="curve" smooth="yes"/>
      <point x="515" y="144"/>
      <point x="445" y="64"/>
    </contour>
    <contour>
      <point x="810" y="-10" type="curve" smooth="yes"/>
      <point x="961" y="-10"/>
      <point x="1069" y="99"/>
      <point x="1069" y="268" type="curve" smooth="yes"/>
      <point x="1069" y="425"/>
      <point x="962" y="546"/>
      <point x="792" y="546" type="curve" smooth="yes"/>
      <point x="689" y="546"/>
      <point x="601" y="501"/>
      <point x="550" y="414" type="curve"/>
      <point x="587" y="323" type="line"/>
      <point x="634" y="418"/>
      <point x="712" y="472"/>
      <point x="794" y="472" type="curve" smooth="yes"/>
      <point x="907" y="472"/>
      <point x="978" y="390"/>
      <point x="978" y="266" type="curve" smooth="yes"/>
      <point x="978" y="142"/>
      <point x="905" y="64"/>
      <point x="796" y="64" type="curve" smooth="yes"/>
      <point x="758" y="64"/>
      <point x="727" y="70"/>
      <point x="701" y="82" type="curve"/>
      <point x="669" y="16" type="line"/>
      <point x="707" y="-3"/>
      <point x="749" y="-10"/>
    </contour>
  </outline>
</glyph>
<glyph name="da" format="2">
  <advance width="640"/>
  <unicode hex="1012"/>
  <note>
da
</note>
  <outline>
    <contour>
      <point x="319" y="-10" type="curve" smooth="yes"/>
      <point x="499" y="-10"/>
      <point x="596" y="46"/>
      <point x="596" y="146" type="curve" smooth="yes"/>
      <point x="596" y="210"/>
      <point x="560" y="256"/>
      <point x="467" y="282" type="curve"/>
      <point x="467" y="287" type="line"/>
      <point x="532" y="305"/>
      <point x="575" y="339"/>
      <point x="575" y="404" type="curve" smooth="yes"/>
      <point x="575" y="495"/>
      <point x="492" y="546"/>
      <point x="327" y="546" type="curve" smooth="yes"/>
      <point x="176" y="546"/>
      <point x="81" y="489"/>
      <point x="81" y="407" type="curve" smooth="yes"/>
      <point x="81" y="376"/>
      <point x="94" y="354"/>
      <point x="108" y="334" type="curve"/>
      <point x="177" y="372" type="line"/>
      <point x="168" y="381"/>
      <point x="164" y="392"/>
      <point x="164" y="404" type="curve" smooth="yes"/>
      <point x="164" y="455"/>
      <point x="248" y="474"/>
      <point x="327" y="474" type="curve" smooth="yes"/>
      <point x="406" y="474"/>
      <point x="491" y="462"/>
      <point x="491" y="397" type="curve" smooth="yes"/>
      <point x="491" y="346"/>
      <point x="432" y="315"/>
      <point x="364" y="315" type="curve" smooth="yes"/>
      <point x="358" y="315" type="line"/>
      <point x="358" y="243" type="line"/>
      <point x="372" y="243" type="line" smooth="yes"/>
      <point x="464" y="243"/>
      <point x="508" y="203"/>
      <point x="508" y="157" type="curve" smooth="yes"/>
      <point x="508" y="81"/>
      <point x="418" y="62"/>
      <point x="320" y="62" type="curve" smooth="yes"/>
      <point x="229" y="62"/>
      <point x="153" y="96"/>
      <point x="119" y="176" type="curve"/>
      <point x="49" y="140" type="line"/>
      <point x="85" y="46"/>
      <point x="180" y="-10"/>
    </contour>
  </outline>
</glyph>
<glyph name="dha" format="2">
  <advance width="674"/>
  <unicode hex="1013"/>
  <note>
dha
</note>
  <outline>
    <contour>
      <point x="172" y="134" type="line"/>
      <point x="218" y="184"/>
      <point x="275" y="209"/>
      <point x="337" y="209" type="curve" smooth="yes"/>
      <point x="402" y="209"/>
      <point x="460" y="184"/>
      <point x="501" y="135" type="curve"/>
      <point x="536" y="197" type="line"/>
      <point x="486" y="250"/>
      <point x="421" y="280"/>
      <point x="337" y="280" type="curve" smooth="yes"/>
      <point x="248" y="280"/>
      <point x="184" y="246"/>
      <point x="134" y="193" type="curve"/>
    </contour>
    <contour>
      <point x="334" y="-10" type="curve" smooth="yes"/>
      <point x="502" y="-10"/>
      <point x="619" y="105"/>
      <point x="619" y="268" type="curve" smooth="yes"/>
      <point x="619" y="424"/>
      <point x="509" y="546"/>
      <point x="337" y="546" type="curve" smooth="yes"/>
      <point x="165" y="546"/>
      <point x="55" y="426"/>
      <point x="55" y="268" type="curve" smooth="yes"/>
      <point x="55" y="109"/>
      <point x="164" y="-10"/>
    </contour>
    <contour>
      <point x="337" y="64" type="curve" smooth="yes"/>
      <point x="226" y="64"/>
      <point x="146" y="143"/>
      <point x="146" y="266" type="curve" smooth="yes"/>
      <point x="146" y="391"/>
      <point x="221" y="472"/>
      <point x="338" y="472" type="curve" smooth="yes"/>
      <point x="455" y="472"/>
      <point x="527" y="389"/>
      <point x="527" y="266" type="curve" smooth="yes"/>
      <point x="527" y="146"/>
      <point x="452" y="64"/>
    </contour>
  </outline>
</glyph>
<glyph name="na" format="2">
  <advance width="570"/>
  <unicode hex="1014"/>
  <note>
na
</note>
  <outline>
    <contour>
      <point x="267" y="-467" type="line"/>
      <point x="356" y="-467" type="line"/>
      <point x="356" y="8" type="line" smooth="yes"/>
      <point x="356" y="183"/>
      <point x="309" y="268"/>
      <point x="185" y="268" type="curve" smooth="yes"/>
      <point x="102" y="268"/>
      <point x="34" y="214"/>
      <point x="34" y="132" type="curve" smooth="yes"/>
      <point x="34" y="50"/>
      <point x="93" y="-10"/>
      <point x="233" y="-10" type="curve" smooth="yes"/>
      <point x="314" y="-10" type="line" smooth="yes"/>
      <point x="442" y="-10"/>
      <point x="535" y="38"/>
      <point x="535" y="153" type="curve" smooth="yes"/>
      <point x="535" y="249"/>
      <point x="473" y="287"/>
      <point x="360" y="325" type="curve" smooth="yes"/>
      <point x="276" y="353"/>
      <point x="236" y="373"/>
      <point x="236" y="414" type="curve" smooth="yes"/>
      <point x="236" y="449"/>
      <point x="271" y="474"/>
      <point x="314" y="474" type="curve" smooth="yes"/>
      <point x="367" y="474"/>
      <point x="397" y="458"/>
      <point x="441" y="414" type="curve"/>
      <point x="493" y="470" type="line"/>
      <point x="438" y="521"/>
      <point x="401" y="546"/>
      <point x="310" y="546" type="curve" smooth="yes"/>
      <point x="225" y="546"/>
      <point x="152" y="488"/>
      <point x="152" y="410" type="curve" smooth="yes"/>
      <point x="152" y="342"/>
      <point x="192" y="302"/>
      <point x="292" y="267" type="curve" smooth="yes"/>
      <point x="393" y="232"/>
      <point x="450" y="202"/>
      <point x="450" y="151" type="curve" smooth="yes"/>
      <point x="450" y="84"/>
      <point x="403" y="63"/>
      <point x="324" y="63" type="curve" smooth="yes"/>
      <point x="231" y="63" type="line" smooth="yes"/>
      <point x="154" y="63"/>
      <point x="112" y="90"/>
      <point x="112" y="131" type="curve" smooth="yes"/>
      <point x="112" y="175"/>
      <point x="144" y="194"/>
      <point x="178" y="194" type="curve" smooth="yes"/>
      <point x="229" y="194"/>
      <point x="267" y="156"/>
      <point x="267" y="64" type="curve" smooth="yes"/>
    </contour>
  </outline>
</glyph>
<glyph name="pa" format="2">
  <advance width="676"/>
  <unicode hex="1015"/>
  <note>
pa
</note>
  <outline>
    <contour>
      <point x="338" y="-10" type="curve" smooth="yes"/>
      <point x="500" y="-10"/>
      <point x="621" y="108"/>
      <point x="621" y="278" type="curve" smooth="yes"/>
      <point x="621" y="385"/>
      <point x="567" y="491"/>
      <point x="483" y="546" type="curve"/>
      <point x="433" y="482" type="line"/>
      <point x="495" y="435"/>
      <point x="529" y="370"/>
      <point x="529" y="280" type="curve" smooth="yes"/>
      <point x="529" y="148"/>
      <point x="453" y="64"/>
      <point x="338" y="64" type="curve" smooth="yes"/>
      <point x="223" y="64"/>
      <point x="146" y="147"/>
      <point x="146" y="280" type="curve" smooth="yes"/>
      <point x="146" y="370"/>
      <point x="178" y="435"/>
      <point x="235" y="482" type="curve"/>
      <point x="184" y="546" type="line"/>
      <point x="105" y="490"/>
      <point x="55" y="388"/>
      <point x="55" y="278" type="curve" smooth="yes"/>
      <point x="55" y="109"/>
      <point x="174" y="-10"/>
    </contour>
  </outline>
</glyph>
<glyph name="pha" format="2">
  <advance width="675"/>
  <unicode hex="1016"/>
  <note>
pha
</note>
  <outline>
    <contour>
      <point x="337" y="-10" type="curve" smooth="yes"/>
      <point x="500" y="-10"/>
      <point x="620" y="108"/>
      <point x="620" y="278" type="curve" smooth="yes"/>
      <point x="620" y="383"/>
      <point x="569" y="482"/>
      <point x="473" y="545" type="curve"/>
      <point x="379" y="485"/>
      <point x="332" y="402"/>
      <point x="332" y="287" type="curve" smooth="yes"/>
      <point x="332" y="192"/>
      <point x="371" y="118"/>
      <point x="419" y="68" type="curve"/>
      <point x="487" y="108" type="line"/>
      <point x="438" y="151"/>
      <point x="412" y="217"/>
      <point x="412" y="287" type="curve" smooth="yes"/>
      <point x="412" y="356"/>
      <point x="429" y="400"/>
      <point x="474" y="443" type="curve"/>
      <point x="512" y="400"/>
      <point x="539" y="347"/>
      <point x="539" y="280" type="curve" smooth="yes"/>
      <point x="539" y="151"/>
      <point x="451" y="64"/>
      <point x="337" y="64" type="curve" smooth="yes"/>
      <point x="224" y="64"/>
      <point x="146" y="147"/>
      <point x="146" y="280" type="curve" smooth="yes"/>
      <point x="146" y="370"/>
      <point x="178" y="435"/>
      <point x="235" y="482" type="curve"/>
      <point x="184" y="546" type="line"/>
      <point x="105" y="490"/>
      <point x="55" y="388"/>
      <point x="55" y="278" type="curve" smooth="yes"/>
      <point x="55" y="110"/>
      <point x="173" y="-10"/>
    </contour>
  </outline>
</glyph>
<glyph name="ba" format="2">
  <advance width="676"/>
  <unicode hex="1017"/>
  <note>
ba
</note>
  <outline>
    <contour>
      <point x="338" y="-10" type="curve" smooth="yes"/>
      <point x="500" y="-10"/>
      <point x="621" y="108"/>
      <point x="621" y="278" type="curve" smooth="yes"/>
      <point x="621" y="386"/>
      <point x="568" y="493"/>
      <point x="486" y="548" type="curve"/>
      <point x="436" y="484" type="line"/>
      <point x="496" y="437"/>
      <point x="529" y="371"/>
      <point x="529" y="280" type="curve" smooth="yes"/>
      <point x="529" y="148"/>
      <point x="453" y="64"/>
      <point x="338" y="64" type="curve" smooth="yes"/>
      <point x="223" y="64"/>
      <point x="146" y="147"/>
      <point x="146" y="280" type="curve" smooth="yes"/>
      <point x="146" y="370"/>
      <point x="177" y="435"/>
      <point x="233" y="482" type="curve"/>
      <point x="182" y="546" type="line"/>
      <point x="104" y="490"/>
      <point x="55" y="388"/>
      <point x="55" y="278" type="curve" smooth="yes"/>
      <point x="55" y="109"/>
      <point x="174" y="-10"/>
    </contour>
    <contour>
      <point x="335" y="286" type="curve" smooth="yes"/>
      <point x="431" y="286"/>
      <point x="509" y="365"/>
      <point x="509" y="461" type="curve" smooth="yes"/>
      <point x="509" y="493"/>
      <point x="501" y="522"/>
      <point x="486" y="548" type="curve"/>
      <point x="428" y="496" type="line"/>
      <point x="433" y="485"/>
      <point x="435" y="473"/>
      <point x="435" y="461" type="curve" smooth="yes"/>
      <point x="435" y="405"/>
      <point x="390" y="360"/>
      <point x="335" y="360" type="curve" smooth="yes"/>
      <point x="279" y="360"/>
      <point x="234" y="405"/>
      <point x="234" y="461" type="curve" smooth="yes"/>
      <point x="234" y="473"/>
      <point x="236" y="484"/>
      <point x="240" y="495" type="curve"/>
      <point x="182" y="546" type="line"/>
      <point x="168" y="521"/>
      <point x="160" y="492"/>
      <point x="160" y="461" type="curve" smooth="yes"/>
      <point x="160" y="365"/>
      <point x="238" y="286"/>
    </contour>
  </outline>
</glyph>
<glyph name="bha" format="2">
  <advance width="1124"/>
  <unicode hex="1018"/>
  <note>
bha
</note>
  <outline>
    <contour>
      <point x="304" y="-10" type="curve" smooth="yes"/>
      <point x="482" y="-10"/>
      <point x="588" y="108"/>
      <point x="588" y="269" type="curve" smooth="yes"/>
      <point x="588" y="427"/>
      <point x="477" y="546"/>
      <point x="304" y="546" type="curve" smooth="yes"/>
      <point x="185" y="546"/>
      <point x="85" y="480"/>
      <point x="50" y="383" type="curve"/>
      <point x="120" y="347" type="line"/>
      <point x="155" y="430"/>
      <point x="223" y="472"/>
      <point x="306" y="472" type="curve" smooth="yes"/>
      <point x="423" y="472"/>
      <point x="497" y="390"/>
      <point x="497" y="270" type="curve" smooth="yes"/>
      <point x="497" y="151"/>
      <point x="417" y="64"/>
      <point x="306" y="64" type="curve" smooth="yes"/>
      <point x="223" y="64"/>
      <point x="155" y="106"/>
      <point x="120" y="189" type="curve"/>
      <point x="50" y="153" type="line"/>
      <point x="85" y="56"/>
      <point x="185" y="-10"/>
    </contour>
    <contour>
      <point x="803" y="-9" type="curve" smooth="yes"/>
      <point x="960" y="-9"/>
      <point x="1069" y="99"/>
      <point x="1069" y="268" type="curve" smooth="yes"/>
      <point x="1069" y="425"/>
      <point x="963" y="546"/>
      <point x="792" y="546" type="curve" smooth="yes"/>
      <point x="682" y="546"/>
      <point x="592" y="502"/>
      <point x="537" y="421" type="curve"/>
      <point x="573" y="331" type="line"/>
      <point x="617" y="424"/>
      <point x="687" y="471"/>
      <point x="793" y="471" type="curve" smooth="yes"/>
      <point x="906" y="471"/>
      <point x="978" y="389"/>
      <point x="978" y="266" type="curve" smooth="yes"/>
      <point x="978" y="143"/>
      <point x="906" y="64"/>
      <point x="796" y="64" type="curve" smooth="yes"/>
      <point x="753" y="64"/>
      <point x="716" y="70"/>
      <point x="686" y="82" type="curve"/>
      <point x="654" y="16" type="line"/>
      <point x="686" y="2"/>
      <point x="725" y="-9"/>
    </contour>
  </outline>
</glyph>
<glyph name="ma" format="2">
  <advance width="676"/>
  <unicode hex="1019"/>
  <note>
ma
</note>
  <outline>
    <contour>
      <point x="338" y="-10" type="curve" smooth="yes"/>
      <point x="500" y="-10"/>
      <point x="621" y="108"/>
      <point x="621" y="278" type="curve" smooth="yes"/>
      <point x="621" y="385"/>
      <point x="567" y="491"/>
      <point x="483" y="546" type="curve"/>
      <point x="433" y="482" type="line"/>
      <point x="495" y="435"/>
      <point x="529" y="370"/>
      <point x="529" y="280" type="curve" smooth="yes"/>
      <point x="529" y="148"/>
      <point x="453" y="64"/>
      <point x="338" y="64" type="curve" smooth="yes"/>
      <point x="223" y="64"/>
      <point x="146" y="147"/>
      <point x="146" y="280" type="curve" smooth="yes"/>
      <point x="146" y="370"/>
      <point x="178" y="435"/>
      <point x="235" y="482" type="curve"/>
      <point x="184" y="546" type="line"/>
      <point x="105" y="490"/>
      <point x="55" y="388"/>
      <point x="55" y="278" type="curve" smooth="yes"/>
      <point x="55" y="109"/>
      <point x="174" y="-10"/>
    </contour>
    <contour>
      <point x="172" y="134" type="line"/>
      <point x="218" y="184"/>
      <point x="275" y="209"/>
      <point x="337" y="209" type="curve" smooth="yes"/>
      <point x="402" y="209"/>
      <point x="460" y="184"/>
      <point x="501" y="135" type="curve"/>
      <point x="536" y="197" type="line"/>
      <point x="486" y="250"/>
      <point x="421" y="280"/>
      <point x="337" y="280" type="curve" smooth="yes"/>
      <point x="248" y="280"/>
      <point x="184" y="246"/>
      <point x="134" y="193" type="curve"/>
    </contour>
  </outline>
</glyph>
<glyph name="la" format="2">
  <advance width="1126"/>
  <unicode hex="101C"/>
  <note>
la
</note>
  <outline>
    <contour>
      <point x="309" y="-10" type="curve" smooth="yes"/>
      <point x="369" y="-10"/>
      <point x="410" y="-3"/>
      <point x="447" y="16" type="curve"/>
      <point x="415" y="82" type="line"/>
      <point x="390" y="70"/>
      <point x="359" y="64"/>
      <point x="323" y="64" type="curve" smooth="yes"/>
      <point x="216" y="64"/>
      <point x="146" y="143"/>
      <point x="146" y="266" type="curve" smooth="yes"/>
      <point x="146" y="389"/>
      <point x="215" y="471"/>
      <point x="321" y="471" type="curve" smooth="yes"/>
      <point x="414" y="471"/>
      <point x="475" y="408"/>
      <point x="524" y="245" type="curve" smooth="yes"/>
      <point x="573" y="82"/>
      <point x="652" y="-10"/>
      <point x="807" y="-10" type="curve" smooth="yes"/>
      <point x="962" y="-10"/>
      <point x="1071" y="109"/>
      <point x="1071" y="268" type="curve" smooth="yes"/>
      <point x="1071" y="438"/>
      <point x="964" y="546"/>
      <point x="817" y="546" type="curve" smooth="yes"/>
      <point x="757" y="546"/>
      <point x="716" y="539"/>
      <point x="679" y="520" type="curve"/>
      <point x="711" y="454" type="line"/>
      <point x="736" y="466"/>
      <point x="766" y="472"/>
      <point x="803" y="472" type="curve" smooth="yes"/>
      <point x="909" y="472"/>
      <point x="980" y="395"/>
      <point x="980" y="270" type="curve" smooth="yes"/>
      <point x="980" y="145"/>
      <point x="906" y="65"/>
      <point x="810" y="65" type="curve" smooth="yes"/>
      <point x="700" y="65"/>
      <point x="641" y="144"/>
      <point x="602" y="290" type="curve" smooth="yes"/>
      <point x="563" y="436"/>
      <point x="478" y="546"/>
      <point x="326" y="546" type="curve" smooth="yes"/>
      <point x="159" y="546"/>
      <point x="55" y="424"/>
      <point x="55" y="268" type="curve" smooth="yes"/>
      <point x="55" y="100"/>
      <point x="161" y="-10"/>
    </contour>
  </outline>
</glyph>
<glyph name="sa" format="2">
  <advance width="1127"/>
  <unicode hex="101E"/>
  <note>
sa
</note>
  <outline>
    <contour>
      <point x="305" y="-10" type="curve" smooth="yes"/>
      <point x="490" y="-10"/>
      <point x="589" y="125"/>
      <point x="589" y="273" type="curve" smooth="yes"/>
      <point x="589" y="428"/>
      <point x="479" y="546"/>
      <point x="304" y="546" type="curve" smooth="yes"/>
      <point x="186" y="546"/>
      <point x="87" y="482"/>
      <point x="50" y="383" type="curve"/>
      <point x="120" y="347" type="line"/>
      <point x="156" y="430"/>
      <point x="222" y="472"/>
      <point x="306" y="472" type="curve" smooth="yes"/>
      <point x="422" y="472"/>
      <point x="498" y="391"/>
      <point x="498" y="270" type="curve" smooth="yes"/>
      <point x="498" y="154"/>
      <point x="423" y="64"/>
      <point x="306" y="64" type="curve" smooth="yes"/>
      <point x="222" y="64"/>
      <point x="156" y="106"/>
      <point x="120" y="189" type="curve"/>
      <point x="50" y="153" type="line"/>
      <point x="87" y="55"/>
      <point x="186" y="-10"/>
    </contour>
    <contour>
      <point x="783" y="-10" type="curve" smooth="yes"/>
      <point x="953" y="-10"/>
      <point x="1072" y="104"/>
      <point x="1072" y="268" type="curve" smooth="yes"/>
      <point x="1072" y="437"/>
      <point x="960" y="546"/>
      <point x="804" y="546" type="curve" smooth="yes"/>
      <point x="741" y="546"/>
      <point x="697" y="539"/>
      <point x="658" y="520" type="curve"/>
      <point x="690" y="454" type="line"/>
      <point x="717" y="466"/>
      <point x="750" y="472"/>
      <point x="790" y="472" type="curve" smooth="yes"/>
      <point x="906" y="472"/>
      <point x="981" y="392"/>
      <point x="981" y="270" type="curve" smooth="yes"/>
      <point x="981" y="149"/>
      <point x="906" y="65"/>
      <point x="786" y="65" type="curve" smooth="yes"/>
      <point x="682" y="65"/>
      <point x="620" y="129"/>
      <point x="571" y="210" type="curve"/>
      <point x="534" y="122" type="line"/>
      <point x="588" y="35"/>
      <point x="676" y="-10"/>
    </contour>
  </outline>
</glyph>
<glyph name="ha" format="2">
  <advance width="1124"/>
  <unicode hex="101F"/>
  <note>
ha
</note>
  <outline>
    <contour>
      <point x="331" y="-10" type="curve" smooth="yes"/>
      <point x="493" y="-10"/>
      <point x="607" y="116"/>
      <point x="607" y="266" type="curve" smooth="yes"/>
      <point x="607" y="383"/>
      <point x="563" y="484"/>
      <point x="476" y="546" type="curve"/>
      <point x="425" y="482" type="line"/>
      <point x="483" y="435"/>
      <point x="516" y="370"/>
      <point x="516" y="280" type="curve" smooth="yes"/>
      <point x="516" y="146"/>
      <point x="441" y="64"/>
      <point x="331" y="64" type="curve" smooth="yes"/>
      <point x="222" y="64"/>
      <point x="146" y="146"/>
      <point x="146" y="280" type="curve" smooth="yes"/>
      <point x="146" y="370"/>
      <point x="178" y="435"/>
      <point x="235" y="482" type="curve"/>
      <point x="184" y="546" type="line"/>
      <point x="105" y="490"/>
      <point x="55" y="388"/>
      <point x="55" y="278" type="curve" smooth="yes"/>
      <point x="55" y="109"/>
      <point x="171" y="-10"/>
    </contour>
    <contour>
      <point x="809" y="-10" type="curve" smooth="yes"/>
      <point x="959" y="-10"/>
      <point x="1068" y="100"/>
      <point x="1068" y="268" type="curve" smooth="yes"/>
      <point x="1068" y="426"/>
      <point x="960" y="546"/>
      <point x="791" y="546" type="curve" smooth="yes"/>
      <point x="695" y="546"/>
      <point x="609" y="502"/>
      <point x="559" y="426" type="curve"/>
      <point x="592" y="330" type="line"/>
      <point x="641" y="420"/>
      <point x="702" y="471"/>
      <point x="792" y="471" type="curve" smooth="yes"/>
      <point x="907" y="471"/>
      <point x="978" y="387"/>
      <point x="978" y="266" type="curve" smooth="yes"/>
      <point x="978" y="145"/>
      <point x="907" y="64"/>
      <point x="795" y="64" type="curve" smooth="yes"/>
      <point x="757" y="64"/>
      <point x="726" y="70"/>
      <point x="700" y="82" type="curve"/>
      <point x="668" y="16" type="line"/>
      <point x="707" y="-3"/>
      <point x="748" y="-10"/>
    </contour>
  </outline>
</glyph>
<glyph name="lla" format="2">
  <advance width="666"/>
  <unicode hex="1020"/>
  <note>
lla
</note>
  <outline>
    <contour>
      <point x="296" y="-467" type="curve" smooth="yes"/>
      <point x="370" y="-467" type="line" smooth="yes"/>
      <point x="506" y="-467"/>
      <point x="575" y="-403"/>
      <point x="575" y="-279" type="curve" smooth="yes"/>
      <point x="575" y="-277" type="line"/>
      <point x="486" y="-277" type="line"/>
      <point x="486" y="-290" type="line" smooth="yes"/>
      <point x="486" y="-356"/>
      <point x="451" y="-395"/>
      <point x="375" y="-395" type="curve" smooth="yes"/>
      <point x="292" y="-395" type="line" smooth="yes"/>
      <point x="214" y="-395"/>
      <point x="180" y="-356"/>
      <point x="180" y="-291" type="curve" smooth="yes"/>
      <point x="180" y="-117" type="line"/>
      <point x="231" y="-134"/>
      <point x="286" y="-144"/>
      <point x="343" y="-144" type="curve" smooth="yes"/>
      <point x="428" y="-144"/>
      <point x="512" y="-111"/>
      <point x="575" y="-73" type="curve"/>
      <point x="575" y="153" type="line"/>
      <point x="487" y="53" type="line"/>
      <point x="487" y="-35" type="line"/>
      <point x="440" y="-56"/>
      <point x="389" y="-70"/>
      <point x="333" y="-70" type="curve" smooth="yes"/>
      <point x="247" y="-70"/>
      <point x="163" y="-41"/>
      <point x="91" y="0" type="curve"/>
      <point x="91" y="-277" type="line" smooth="yes"/>
      <point x="91" y="-403"/>
      <point x="159" y="-467"/>
    </contour>
    <contour>
      <point x="333" y="-10" type="curve" smooth="yes"/>
      <point x="451" y="-10"/>
      <point x="501" y="39"/>
      <point x="575" y="153" type="curve"/>
      <point x="505" y="189" type="line"/>
      <point x="472" y="106"/>
      <point x="410" y="64"/>
      <point x="332" y="64" type="curve" smooth="yes"/>
      <point x="222" y="64"/>
      <point x="153" y="143"/>
      <point x="153" y="270" type="curve" smooth="yes"/>
      <point x="153" y="391"/>
      <point x="224" y="472"/>
      <point x="332" y="472" type="curve" smooth="yes"/>
      <point x="410" y="472"/>
      <point x="472" y="430"/>
      <point x="505" y="347" type="curve"/>
      <point x="575" y="383" type="line"/>
      <point x="539" y="483"/>
      <point x="446" y="546"/>
      <point x="333" y="546" type="curve" smooth="yes"/>
      <point x="168" y="546"/>
      <point x="62" y="431"/>
      <point x="62" y="269" type="curve" smooth="yes"/>
      <point x="62" y="111"/>
      <point x="168" y="-10"/>
    </contour>
  </outline>
</glyph>
<glyph name="a_m" format="2">
  <advance width="1068"/>
  <unicode hex="1021"/>
  <note>
a_m
</note>
  <outline>
    <contour>
      <point x="300" y="-10" type="curve" smooth="yes"/>
      <point x="466" y="-10"/>
      <point x="557" y="46"/>
      <point x="557" y="146" type="curve" smooth="yes"/>
      <point x="557" y="211"/>
      <point x="524" y="256"/>
      <point x="438" y="282" type="curve"/>
      <point x="438" y="287" type="line"/>
      <point x="506" y="309"/>
      <point x="538" y="342"/>
      <point x="538" y="407" type="curve" smooth="yes"/>
      <point x="538" y="493"/>
      <point x="461" y="546"/>
      <point x="308" y="546" type="curve" smooth="yes"/>
      <point x="169" y="546"/>
      <point x="81" y="489"/>
      <point x="81" y="407" type="curve" smooth="yes"/>
      <point x="81" y="376"/>
      <point x="93" y="355"/>
      <point x="108" y="334" type="curve"/>
      <point x="177" y="372" type="line"/>
      <point x="168" y="381"/>
      <point x="164" y="392"/>
      <point x="164" y="404" type="curve" smooth="yes"/>
      <point x="164" y="453"/>
      <point x="235" y="474"/>
      <point x="308" y="474" type="curve" smooth="yes"/>
      <point x="381" y="474"/>
      <point x="454" y="461"/>
      <point x="454" y="397" type="curve" smooth="yes"/>
      <point x="454" y="346"/>
      <point x="401" y="315"/>
      <point x="341" y="315" type="curve" smooth="yes"/>
      <point x="336" y="315" type="line"/>
      <point x="336" y="243" type="line"/>
      <point x="348" y="243" type="line" smooth="yes"/>
      <point x="431" y="243"/>
      <point x="469" y="202"/>
      <point x="469" y="157" type="curve" smooth="yes"/>
      <point x="469" y="98"/>
      <point x="419" y="62"/>
      <point x="300" y="62" type="curve" smooth="yes"/>
      <point x="218" y="62"/>
      <point x="150" y="96"/>
      <point x="119" y="176" type="curve"/>
      <point x="49" y="140" type="line"/>
      <point x="83" y="45"/>
      <point x="171" y="-10"/>
    </contour>
    <contour>
      <point x="745" y="-10" type="curve" smooth="yes"/>
      <point x="908" y="-10"/>
      <point x="1013" y="110"/>
      <point x="1013" y="268" type="curve" smooth="yes"/>
      <point x="1013" y="428"/>
      <point x="893" y="546"/>
      <point x="722" y="546" type="curve" smooth="yes"/>
      <point x="620" y="546"/>
      <point x="548" y="515"/>
      <point x="504" y="471" type="curve"/>
      <point x="527" y="391" type="line"/>
      <point x="576" y="443"/>
      <point x="636" y="471"/>
      <point x="718" y="471" type="curve" smooth="yes"/>
      <point x="842" y="471"/>
      <point x="921" y="396"/>
      <point x="921" y="265" type="curve" smooth="yes"/>
      <point x="921" y="147"/>
      <point x="859" y="64"/>
      <point x="736" y="64" type="curve" smooth="yes"/>
      <point x="728" y="64"/>
      <point x="717" y="64"/>
      <point x="706" y="65" type="curve"/>
      <point x="718" y="44" type="line"/>
      <point x="718" y="182"/>
      <point x="804" y="260"/>
      <point x="940" y="266" type="curve"/>
      <point x="930" y="337" type="line"/>
      <point x="747" y="328"/>
      <point x="636" y="208"/>
      <point x="636" y="9" type="curve"/>
      <point x="667" y="-1"/>
      <point x="705" y="-10"/>
    </contour>
  </outline>
</glyph>
<glyph name="a_shn" format="2">
  <advance width="1123"/>
  <unicode hex="1022"/>
  <note>
a_shn
</note>
  <outline>
    <contour>
      <point x="170" y="-10" type="curve" smooth="yes"/>
      <point x="244" y="-10"/>
      <point x="286" y="45"/>
      <point x="286" y="94" type="curve" smooth="yes"/>
      <point x="286" y="139"/>
      <point x="277" y="163"/>
      <point x="222" y="211" type="curve" smooth="yes"/>
      <point x="167" y="259"/>
      <point x="153" y="294"/>
      <point x="153" y="336" type="curve" smooth="yes"/>
      <point x="153" y="414"/>
      <point x="215" y="472"/>
      <point x="331" y="472" type="curve" smooth="yes"/>
      <point x="436" y="472"/>
      <point x="515" y="390"/>
      <point x="515" y="256" type="curve" smooth="yes"/>
      <point x="515" y="166"/>
      <point x="483" y="101"/>
      <point x="426" y="54" type="curve"/>
      <point x="477" y="-10" type="line"/>
      <point x="558" y="47"/>
      <point x="606" y="153"/>
      <point x="606" y="258" type="curve" smooth="yes"/>
      <point x="606" y="435"/>
      <point x="491" y="546"/>
      <point x="324" y="546" type="curve" smooth="yes"/>
      <point x="166" y="546"/>
      <point x="63" y="460"/>
      <point x="63" y="336" type="curve" smooth="yes"/>
      <point x="63" y="266"/>
      <point x="94" y="211"/>
      <point x="150" y="168" type="curve" smooth="yes"/>
      <point x="182" y="144"/>
      <point x="200" y="126"/>
      <point x="200" y="99" type="curve" smooth="yes"/>
      <point x="200" y="80"/>
      <point x="186" y="64"/>
      <point x="163" y="64" type="curve" smooth="yes"/>
      <point x="143" y="64"/>
      <point x="126" y="74"/>
      <point x="103" y="101" type="curve"/>
      <point x="53" y="50" type="line"/>
      <point x="93" y="7"/>
      <point x="119" y="-10"/>
    </contour>
    <contour>
      <point x="809" y="-10" type="curve" smooth="yes"/>
      <point x="960" y="-10"/>
      <point x="1068" y="99"/>
      <point x="1068" y="268" type="curve" smooth="yes"/>
      <point x="1068" y="425"/>
      <point x="961" y="546"/>
      <point x="791" y="546" type="curve" smooth="yes"/>
      <point x="688" y="546"/>
      <point x="600" y="501"/>
      <point x="549" y="414" type="curve"/>
      <point x="586" y="323" type="line"/>
      <point x="633" y="418"/>
      <point x="711" y="472"/>
      <point x="793" y="472" type="curve" smooth="yes"/>
      <point x="906" y="472"/>
      <point x="977" y="390"/>
      <point x="977" y="266" type="curve" smooth="yes"/>
      <point x="977" y="142"/>
      <point x="904" y="64"/>
      <point x="795" y="64" type="curve" smooth="yes"/>
      <point x="757" y="64"/>
      <point x="726" y="70"/>
      <point x="700" y="82" type="curve"/>
      <point x="668" y="16" type="line"/>
      <point x="706" y="-3"/>
      <point x="748" y="-10"/>
    </contour>
  </outline>
</glyph>
<glyph name="i_m" format="2">
  <advance width="1100"/>
  <unicode hex="1023"/>
  <note>
i_m
</note>
  <outline>
    <contour>
      <point x="184" y="-10" type="curve"/>
      <point x="235" y="54" type="line"/>
      <point x="178" y="101"/>
      <point x="146" y="167"/>
      <point x="146" y="256" type="curve" smooth="yes"/>
      <point x="146" y="391"/>
      <point x="221" y="472"/>
      <point x="326" y="472" type="curve" smooth="yes"/>
      <point x="447" y="472"/>
      <point x="506" y="378"/>
      <point x="506" y="228" type="curve" smooth="yes"/>
      <point x="506" y="119" type="line"/>
      <point x="594" y="119" type="line"/>
      <point x="594" y="234" type="line" smooth="yes"/>
      <point x="594" y="387"/>
      <point x="656" y="472"/>
      <point x="774" y="472" type="curve" smooth="yes"/>
      <point x="880" y="472"/>
      <point x="954" y="389"/>
      <point x="954" y="256" type="curve" smooth="yes"/>
      <point x="954" y="167"/>
      <point x="922" y="101"/>
      <point x="865" y="54" type="curve"/>
      <point x="916" y="-10" type="line"/>
      <point x="992" y="41"/>
      <point x="1045" y="150"/>
      <point x="1045" y="258" type="curve" smooth="yes"/>
      <point x="1045" y="430"/>
      <point x="927" y="546"/>
      <point x="774" y="546" type="curve" smooth="yes"/>
      <point x="672" y="546"/>
      <point x="577" y="490"/>
      <point x="539" y="375" type="curve"/>
      <point x="560" y="377" type="line"/>
      <point x="528" y="484"/>
      <point x="429" y="546"/>
      <point x="326" y="546" type="curve" smooth="yes"/>
      <point x="172" y="546"/>
      <point x="55" y="429"/>
      <point x="55" y="258" type="curve" smooth="yes"/>
      <point x="55" y="143"/>
      <point x="111" y="38"/>
    </contour>
    <contour>
      <point x="828" y="-467" type="line"/>
      <point x="988" y="-467" type="line"/>
      <point x="988" y="-399" type="line"/>
      <point x="889" y="-399" type="line"/>
      <point x="911" y="-360"/>
      <point x="925" y="-313"/>
      <point x="925" y="-262" type="curve" smooth="yes"/>
      <point x="925" y="-133"/>
      <point x="834" y="-48"/>
      <point x="721" y="-48" type="curve" smooth="yes"/>
      <point x="638" y="-48"/>
      <point x="566" y="-91"/>
      <point x="538" y="-178" type="curve"/>
      <point x="560" y="-180" type="line"/>
      <point x="534" y="-86"/>
      <point x="457" y="-48"/>
      <point x="380" y="-48" type="curve" smooth="yes"/>
      <point x="263" y="-48"/>
      <point x="175" y="-133"/>
      <point x="175" y="-258" type="curve" smooth="yes"/>
      <point x="175" y="-349"/>
      <point x="217" y="-426"/>
      <point x="273" y="-467" type="curve"/>
      <point x="318" y="-412" type="line"/>
      <point x="278" y="-377"/>
      <point x="255" y="-328"/>
      <point x="255" y="-260" type="curve" smooth="yes"/>
      <point x="255" y="-167"/>
      <point x="307" y="-115"/>
      <point x="380" y="-115" type="curve" smooth="yes"/>
      <point x="463" y="-115"/>
      <point x="510" y="-178"/>
      <point x="510" y="-283" type="curve" smooth="yes"/>
      <point x="510" y="-371" type="line"/>
      <point x="590" y="-371" type="line"/>
      <point x="590" y="-284" type="line" smooth="yes"/>
      <point x="590" y="-173"/>
      <point x="637" y="-115"/>
      <point x="721" y="-115" type="curve" smooth="yes"/>
      <point x="793" y="-115"/>
      <point x="845" y="-168"/>
      <point x="845" y="-264" type="curve" smooth="yes"/>
      <point x="845" y="-329"/>
      <point x="822" y="-377"/>
      <point x="779" y="-412" type="curve"/>
    </contour>
  </outline>
</glyph>
<glyph name="ii" format="2">
  <advance width="1343"/>
  <unicode hex="1024"/>
  <note>
ii
</note>
  <outline>
    <contour>
      <point x="300" y="-467" type="curve" smooth="yes"/>
      <point x="842" y="-467" type="line" smooth="yes"/>
      <point x="977" y="-467"/>
      <point x="1047" y="-397"/>
      <point x="1047" y="-258" type="curve" smooth="yes"/>
      <point x="1047" y="248" type="line" smooth="yes"/>
      <point x="1047" y="423"/>
      <point x="954" y="546"/>
      <point x="776" y="546" type="curve" smooth="yes"/>
      <point x="676" y="546"/>
      <point x="594" y="500"/>
      <point x="542" y="414" type="curve"/>
      <point x="578" y="323" type="line"/>
      <point x="630" y="415"/>
      <point x="687" y="471"/>
      <point x="777" y="471" type="curve" smooth="yes"/>
      <point x="893" y="471"/>
      <point x="959" y="388"/>
      <point x="959" y="244" type="curve" smooth="yes"/>
      <point x="959" y="-272" type="line" smooth="yes"/>
      <point x="959" y="-350"/>
      <point x="923" y="-394"/>
      <point x="847" y="-394" type="curve" smooth="yes"/>
      <point x="312" y="-394" type="line" smooth="yes"/>
      <point x="226" y="-394"/>
      <point x="145" y="-380"/>
      <point x="145" y="-315" type="curve" smooth="yes"/>
      <point x="145" y="-248"/>
      <point x="222" y="-215"/>
      <point x="375" y="-215" type="curve" smooth="yes"/>
      <point x="512" y="-215"/>
      <point x="626" y="-242"/>
      <point x="706" y="-281" type="curve"/>
      <point x="745" y="-214" type="line"/>
      <point x="653" y="-171"/>
      <point x="525" y="-140"/>
      <point x="375" y="-140" type="curve" smooth="yes"/>
      <point x="172" y="-140"/>
      <point x="55" y="-201"/>
      <point x="55" y="-319" type="curve" smooth="yes"/>
      <point x="55" y="-425"/>
      <point x="134" y="-467"/>
    </contour>
    <contour>
      <point x="184" y="-10" type="curve"/>
      <point x="235" y="54" type="line"/>
      <point x="178" y="101"/>
      <point x="146" y="167"/>
      <point x="146" y="256" type="curve" smooth="yes"/>
      <point x="146" y="390"/>
      <point x="219" y="471"/>
      <point x="326" y="471" type="curve" smooth="yes"/>
      <point x="434" y="471"/>
      <point x="506" y="389"/>
      <point x="506" y="256" type="curve" smooth="yes"/>
      <point x="506" y="167"/>
      <point x="474" y="101"/>
      <point x="417" y="54" type="curve"/>
      <point x="468" y="-10" type="line"/>
      <point x="542" y="42"/>
      <point x="597" y="135"/>
      <point x="597" y="258" type="curve" smooth="yes"/>
      <point x="597" y="426"/>
      <point x="487" y="546"/>
      <point x="326" y="546" type="curve" smooth="yes"/>
      <point x="172" y="546"/>
      <point x="55" y="429"/>
      <point x="55" y="258" type="curve" smooth="yes"/>
      <point x="55" y="143"/>
      <point x="111" y="38"/>
    </contour>
    <contour>
      <point x="1164" y="-467" type="line"/>
      <point x="1252" y="-467" type="line"/>
      <point x="1252" y="218" type="line" smooth="yes"/>
      <point x="1252" y="424"/>
      <point x="1199" y="554"/>
      <point x="1030" y="680" type="curve" smooth="yes"/>
      <point x="963" y="730"/>
      <point x="943" y="763"/>
      <point x="943" y="815" type="curve" smooth="yes"/>
      <point x="943" y="882"/>
      <point x="988" y="937"/>
      <point x="1060" y="937" type="curve" smooth="yes"/>
      <point x="1115" y="937"/>
      <point x="1157" y="907"/>
      <point x="1180" y="848" type="curve"/>
      <point x="1248" y="884" type="line"/>
      <point x="1217" y="960"/>
      <point x="1151" y="1004"/>
      <point x="1055" y="1004" type="curve" smooth="yes"/>
      <point x="941" y="1004"/>
      <point x="858" y="917"/>
      <point x="858" y="815" type="curve" smooth="yes"/>
      <point x="858" y="731"/>
      <point x="889" y="680"/>
      <point x="983" y="610" type="curve" smooth="yes"/>
      <point x="1117" y="511"/>
      <point x="1164" y="404"/>
      <point x="1164" y="224" type="curve" smooth="yes"/>
    </contour>
  </outline>
</glyph>
<glyph name="u_m" format="2">
  <advance width="661"/>
  <unicode hex="1025"/>
  <note>
u_m
</note>
  <outline>
    <contour>
      <point x="296" y="-467" type="curve" smooth="yes"/>
      <point x="403" y="-467" type="line" smooth="yes"/>
      <point x="532" y="-467"/>
      <point x="604" y="-415"/>
      <point x="604" y="-315" type="curve" smooth="yes"/>
      <point x="604" y="-229"/>
      <point x="539" y="-170"/>
      <point x="452" y="-170" type="curve" smooth="yes"/>
      <point x="387" y="-170"/>
      <point x="349" y="-193"/>
      <point x="308" y="-231" type="curve"/>
      <point x="363" y="-283" type="line"/>
      <point x="386" y="-261"/>
      <point x="408" y="-244"/>
      <point x="447" y="-244" type="curve" smooth="yes"/>
      <point x="479" y="-244"/>
      <point x="514" y="-266"/>
      <point x="514" y="-316" type="curve" smooth="yes"/>
      <point x="514" y="-367"/>
      <point x="469" y="-394"/>
      <point x="405" y="-394" type="curve" smooth="yes"/>
      <point x="291" y="-394" type="line" smooth="yes"/>
      <point x="214" y="-394"/>
      <point x="179" y="-349"/>
      <point x="179" y="-269" type="curve" smooth="yes"/>
      <point x="179" y="53" type="line"/>
      <point x="91" y="153" type="line"/>
      <point x="91" y="-258" type="line" smooth="yes"/>
      <point x="91" y="-397"/>
      <point x="161" y="-467"/>
    </contour>
    <contour>
      <point x="333" y="-10" type="curve" smooth="yes"/>
      <point x="498" y="-10"/>
      <point x="604" y="111"/>
      <point x="604" y="269" type="curve" smooth="yes"/>
      <point x="604" y="431"/>
      <point x="498" y="546"/>
      <point x="333" y="546" type="curve" smooth="yes"/>
      <point x="220" y="546"/>
      <point x="127" y="483"/>
      <point x="91" y="383" type="curve"/>
      <point x="161" y="347" type="line"/>
      <point x="194" y="430"/>
      <point x="256" y="472"/>
      <point x="334" y="472" type="curve" smooth="yes"/>
      <point x="442" y="472"/>
      <point x="513" y="391"/>
      <point x="513" y="270" type="curve" smooth="yes"/>
      <point x="513" y="143"/>
      <point x="444" y="64"/>
      <point x="334" y="64" type="curve" smooth="yes"/>
      <point x="256" y="64"/>
      <point x="194" y="106"/>
      <point x="161" y="189" type="curve"/>
      <point x="91" y="153" type="line"/>
      <point x="165" y="39"/>
      <point x="215" y="-10"/>
    </contour>
  </outline>
</glyph>
<glyph name="e_m" format="2">
  <advance width="631"/>
  <unicode hex="1027"/>
  <note>
e_m
</note>
  <outline>
    <contour>
      <point x="326" y="-10" type="curve" smooth="yes"/>
      <point x="450" y="-10"/>
      <point x="537" y="56"/>
      <point x="576" y="154" type="curve"/>
      <point x="510" y="198"/>
      <point x="429" y="234"/>
      <point x="341" y="234" type="curve" smooth="yes"/>
      <point x="261" y="234"/>
      <point x="203" y="210"/>
      <point x="160" y="179" type="curve"/>
      <point x="152" y="201"/>
      <point x="146" y="235"/>
      <point x="146" y="266" type="curve" smooth="yes"/>
      <point x="146" y="301"/>
      <point x="150" y="334"/>
      <point x="160" y="357" type="curve"/>
      <point x="203" y="326"/>
      <point x="261" y="302"/>
      <point x="341" y="302" type="curve" smooth="yes"/>
      <point x="429" y="302"/>
      <point x="510" y="338"/>
      <point x="576" y="382" type="curve"/>
      <point x="537" y="481"/>
      <point x="450" y="546"/>
      <point x="326" y="546" type="curve" smooth="yes"/>
      <point x="161" y="546"/>
      <point x="55" y="430"/>
      <point x="55" y="267" type="curve" smooth="yes"/>
      <point x="55" y="108"/>
      <point x="160" y="-10"/>
    </contour>
    <contour>
      <point x="325" y="64" type="curve" smooth="yes"/>
      <point x="257" y="64"/>
      <point x="218" y="86"/>
      <point x="194" y="117" type="curve"/>
      <point x="229" y="145"/>
      <point x="270" y="164"/>
      <point x="344" y="164" type="curve" smooth="yes"/>
      <point x="384" y="164"/>
      <point x="434" y="153"/>
      <point x="477" y="126" type="curve"/>
      <point x="443" y="84"/>
      <point x="392" y="64"/>
    </contour>
    <contour>
      <point x="344" y="372" type="curve" smooth="yes"/>
      <point x="270" y="372"/>
      <point x="229" y="392"/>
      <point x="194" y="419" type="curve"/>
      <point x="218" y="450"/>
      <point x="257" y="472"/>
      <point x="325" y="472" type="curve" smooth="yes"/>
      <point x="392" y="472"/>
      <point x="443" y="452"/>
      <point x="477" y="410" type="curve"/>
      <point x="434" y="383"/>
      <point x="384" y="372"/>
    </contour>
  </outline>
</glyph>
<glyph name="e_mon" format="2">
  <advance width="687"/>
  <unicode hex="1028"/>
  <note>
e_mon
</note>
  <outline>
    <contour>
      <point x="356" y="-467" type="curve" smooth="yes"/>
      <point x="526" y="-467"/>
      <point x="632" y="-343"/>
      <point x="632" y="-204" type="curve" smooth="yes"/>
      <point x="632" y="-200" type="line"/>
      <point x="547" y="-200" type="line"/>
      <point x="547" y="-204" type="line" smooth="yes"/>
      <point x="547" y="-309"/>
      <point x="474" y="-400"/>
      <point x="361" y="-400" type="curve" smooth="yes"/>
      <point x="247" y="-400"/>
      <point x="176" y="-316"/>
      <point x="176" y="-177" type="curve" smooth="yes"/>
      <point x="176" y="256" type="line" smooth="yes"/>
      <point x="176" y="393"/>
      <point x="246" y="479"/>
      <point x="362" y="479" type="curve" smooth="yes"/>
      <point x="475" y="479"/>
      <point x="547" y="396"/>
      <point x="547" y="271" type="curve" smooth="yes"/>
      <point x="547" y="181"/>
      <point x="498" y="60"/>
      <point x="422" y="60" type="curve" smooth="yes"/>
      <point x="406" y="60"/>
      <point x="400" y="71"/>
      <point x="400" y="84" type="curve" smooth="yes"/>
      <point x="400" y="98"/>
      <point x="407" y="114"/>
      <point x="422" y="132" type="curve" smooth="yes"/>
      <point x="452" y="167"/>
      <point x="471" y="202"/>
      <point x="471" y="239" type="curve" smooth="yes"/>
      <point x="471" y="302"/>
      <point x="426" y="343"/>
      <point x="364" y="343" type="curve" smooth="yes"/>
      <point x="304" y="343"/>
      <point x="275" y="308"/>
      <point x="248" y="252" type="curve"/>
      <point x="305" y="223" type="line"/>
      <point x="319" y="256"/>
      <point x="334" y="273"/>
      <point x="358" y="273" type="curve" smooth="yes"/>
      <point x="381" y="273"/>
      <point x="391" y="255"/>
      <point x="391" y="236" type="curve" smooth="yes"/>
      <point x="391" y="218"/>
      <point x="383" y="201"/>
      <point x="367" y="184" type="curve" smooth="yes"/>
      <point x="335" y="150"/>
      <point x="320" y="122"/>
      <point x="320" y="82" type="curve" smooth="yes"/>
      <point x="320" y="23"/>
      <point x="366" y="-10"/>
      <point x="418" y="-10" type="curve" smooth="yes"/>
      <point x="545" y="-10"/>
      <point x="632" y="137"/>
      <point x="632" y="268" type="curve" smooth="yes"/>
      <point x="632" y="430"/>
      <point x="525" y="546"/>
      <point x="356" y="546" type="curve" smooth="yes"/>
      <point x="192" y="546"/>
      <point x="91" y="422"/>
      <point x="91" y="254" type="curve" smooth="yes"/>
      <point x="91" y="-175" type="line" smooth="yes"/>
      <point x="91" y="-350"/>
      <point x="194" y="-467"/>
    </contour>
  </outline>
</glyph>
<glyph name="o_m" format="2">
  <advance width="1369"/>
  <unicode hex="1029"/>
  <note>
o_m
</note>
  <outline>
    <contour>
      <point x="296" y="-467" type="curve" smooth="yes"/>
      <point x="1068" y="-467" type="line" smooth="yes"/>
      <point x="1205" y="-467"/>
      <point x="1273" y="-396"/>
      <point x="1273" y="-253" type="curve" smooth="yes"/>
      <point x="1273" y="167" type="line"/>
      <point x="1184" y="54" type="line"/>
      <point x="1184" y="-269" type="line" smooth="yes"/>
      <point x="1184" y="-349"/>
      <point x="1149" y="-394"/>
      <point x="1072" y="-394" type="curve" smooth="yes"/>
      <point x="292" y="-394" type="line" smooth="yes"/>
      <point x="214" y="-394"/>
      <point x="180" y="-349"/>
      <point x="180" y="-269" type="curve" smooth="yes"/>
      <point x="180" y="805" type="line" smooth="yes"/>
      <point x="180" y="885"/>
      <point x="214" y="930"/>
      <point x="292" y="930" type="curve" smooth="yes"/>
      <point x="1072" y="930" type="line" smooth="yes"/>
      <point x="1149" y="930"/>
      <point x="1184" y="885"/>
      <point x="1184" y="805" type="curve" smooth="yes"/>
      <point x="1184" y="760" type="line"/>
      <point x="1273" y="760" type="line"/>
      <point x="1273" y="789" type="line" smooth="yes"/>
      <point x="1273" y="932"/>
      <point x="1205" y="1003"/>
      <point x="1068" y="1003" type="curve" smooth="yes"/>
      <point x="296" y="1003" type="line" smooth="yes"/>
      <point x="159" y="1003"/>
      <point x="91" y="932"/>
      <point x="91" y="789" type="curve" smooth="yes"/>
      <point x="91" y="-253" type="line" smooth="yes"/>
      <point x="91" y="-396"/>
      <point x="159" y="-467"/>
    </contour>
    <contour>
      <point x="559" y="-10" type="curve" smooth="yes"/>
      <point x="734" y="-10"/>
      <point x="833" y="125"/>
      <point x="833" y="273" type="curve" smooth="yes"/>
      <point x="833" y="428"/>
      <point x="723" y="546"/>
      <point x="558" y="546" type="curve" smooth="yes"/>
      <point x="439" y="546"/>
      <point x="348" y="482"/>
      <point x="314" y="383" type="curve"/>
      <point x="384" y="347" type="line"/>
      <point x="416" y="430"/>
      <point x="475" y="472"/>
      <point x="560" y="472" type="curve" smooth="yes"/>
      <point x="666" y="472"/>
      <point x="742" y="391"/>
      <point x="742" y="270" type="curve" smooth="yes"/>
      <point x="742" y="154"/>
      <point x="667" y="64"/>
      <point x="560" y="64" type="curve" smooth="yes"/>
      <point x="475" y="64"/>
      <point x="416" y="106"/>
      <point x="384" y="189" type="curve"/>
      <point x="314" y="153" type="line"/>
      <point x="348" y="55"/>
      <point x="439" y="-10"/>
    </contour>
    <contour>
      <point x="1007" y="-10" type="curve" smooth="yes"/>
      <point x="1177" y="-10"/>
      <point x="1296" y="104"/>
      <point x="1296" y="268" type="curve" smooth="yes"/>
      <point x="1296" y="437"/>
      <point x="1184" y="546"/>
      <point x="1028" y="546" type="curve" smooth="yes"/>
      <point x="969" y="546"/>
      <point x="928" y="539"/>
      <point x="892" y="520" type="curve"/>
      <point x="924" y="454" type="line"/>
      <point x="948" y="466"/>
      <point x="978" y="472"/>
      <point x="1014" y="472" type="curve" smooth="yes"/>
      <point x="1130" y="472"/>
      <point x="1205" y="392"/>
      <point x="1205" y="270" type="curve" smooth="yes"/>
      <point x="1205" y="149"/>
      <point x="1130" y="65"/>
      <point x="1010" y="65" type="curve" smooth="yes"/>
      <point x="916" y="65"/>
      <point x="859" y="129"/>
      <point x="815" y="210" type="curve"/>
      <point x="778" y="122" type="line"/>
      <point x="832" y="35"/>
      <point x="909" y="-10"/>
    </contour>
  </outline>
</glyph>
<glyph name="_tall_aa" format="2">
  <advance width="267"/>
  <unicode hex="102B"/>
  <note>
_tall_aa
</note>
  <outline>
    <contour>
      <point x="91" y="0" type="line"/>
      <point x="176" y="0" type="line"/>
      <point x="176" y="766" type="line" smooth="yes"/>
      <point x="176" y="914"/>
      <point x="101" y="1003"/>
      <point x="-29" y="1003" type="curve" smooth="yes"/>
      <point x="-152" y="1003"/>
      <point x="-234" y="918"/>
      <point x="-234" y="785" type="curve" smooth="yes"/>
      <point x="-234" y="771" type="line"/>
      <point x="-149" y="771" type="line"/>
      <point x="-149" y="787" type="line" smooth="yes"/>
      <point x="-149" y="887"/>
      <point x="-101" y="936"/>
      <point x="-29" y="936" type="curve" smooth="yes"/>
      <point x="53" y="936"/>
      <point x="91" y="875"/>
      <point x="91" y="780" type="curve" smooth="yes"/>
    </contour>
  </outline>
</glyph>
<glyph name="_aa" format="2">
  <advance width="455"/>
  <unicode hex="102C"/>
  <note>
_aa
</note>
  <outline>
    <contour>
      <point x="146" y="-10" type="curve" smooth="yes"/>
      <point x="290" y="-10"/>
      <point x="401" y="107"/>
      <point x="401" y="270" type="curve" smooth="yes"/>
      <point x="401" y="427"/>
      <point x="279" y="546"/>
      <point x="111" y="546" type="curve" smooth="yes"/>
      <point x="-9" y="546"/>
      <point x="-93" y="492"/>
      <point x="-165" y="408" type="curve"/>
      <point x="-113" y="353" type="line"/>
      <point x="-41" y="437"/>
      <point x="35" y="473"/>
      <point x="112" y="473" type="curve" smooth="yes"/>
      <point x="232" y="473"/>
      <point x="309" y="388"/>
      <point x="309" y="271" type="curve" smooth="yes"/>
      <point x="309" y="146"/>
      <point x="242" y="64"/>
      <point x="132" y="64" type="curve" smooth="yes"/>
      <point x="95" y="64"/>
      <point x="65" y="70"/>
      <point x="40" y="82" type="curve"/>
      <point x="8" y="16" type="line"/>
      <point x="45" y="-3"/>
      <point x="86" y="-10"/>
    </contour>
  </outline>
</glyph>
<glyph name="_i" format="2">
  <unicode hex="102D"/>
  <note>
_i
</note>
  <outline>
    <contour>
      <point x="-306" y="626" type="curve" smooth="yes"/>
      <point x="-193" y="626"/>
      <point x="-120" y="706"/>
      <point x="-120" y="810" type="curve" smooth="yes"/>
      <point x="-120" y="915"/>
      <point x="-189" y="1002"/>
      <point x="-304" y="1002" type="curve" smooth="yes"/>
      <point x="-416" y="1002"/>
      <point x="-487" y="918"/>
      <point x="-487" y="814" type="curve" smooth="yes"/>
      <point x="-487" y="708"/>
      <point x="-415" y="626"/>
    </contour>
    <contour>
      <point x="-303" y="693" type="curve" smooth="yes"/>
      <point x="-367" y="693"/>
      <point x="-407" y="744"/>
      <point x="-407" y="812" type="curve" smooth="yes"/>
      <point x="-407" y="883"/>
      <point x="-368" y="935"/>
      <point x="-303" y="935" type="curve" smooth="yes"/>
      <point x="-239" y="935"/>
      <point x="-200" y="880"/>
      <point x="-200" y="808" type="curve" smooth="yes"/>
      <point x="-200" y="742"/>
      <point x="-243" y="693"/>
    </contour>
  </outline>
</glyph>
<glyph name="_ii" format="2">
  <unicode hex="102E"/>
  <note>
_ii
</note>
  <outline>
    <contour>
      <point x="-306" y="626" type="curve" smooth="yes"/>
      <point x="-193" y="626"/>
      <point x="-120" y="706"/>
      <point x="-120" y="810" type="curve" smooth="yes"/>
      <point x="-120" y="915"/>
      <point x="-189" y="1002"/>
      <point x="-304" y="1002" type="curve" smooth="yes"/>
      <point x="-416" y="1002"/>
      <point x="-487" y="918"/>
      <point x="-487" y="814" type="curve" smooth="yes"/>
      <point x="-487" y="708"/>
      <point x="-415" y="626"/>
    </contour>
    <contour>
      <point x="-303" y="693" type="curve" smooth="yes"/>
      <point x="-365" y="693"/>
      <point x="-407" y="742"/>
      <point x="-407" y="812" type="curve" smooth="yes"/>
      <point x="-407" y="883"/>
      <point x="-368" y="935"/>
      <point x="-303" y="935" type="curve" smooth="yes"/>
      <point x="-239" y="935"/>
      <point x="-200" y="880"/>
      <point x="-200" y="808" type="curve" smooth="yes"/>
      <point x="-200" y="747"/>
      <point x="-239" y="693"/>
    </contour>
    <contour>
      <point x="-402" y="728" type="line"/>
      <point x="-370" y="755"/>
      <point x="-339" y="773"/>
      <point x="-303" y="773" type="curve" smooth="yes"/>
      <point x="-266" y="773"/>
      <point x="-234" y="755"/>
      <point x="-206" y="729" type="curve"/>
      <point x="-189" y="789" type="line"/>
      <point x="-219" y="820"/>
      <point x="-254" y="838"/>
      <point x="-303" y="838" type="curve" smooth="yes"/>
      <point x="-352" y="838"/>
      <point x="-389" y="817"/>
      <point x="-416" y="789" type="curve"/>
    </contour>
  </outline>
</glyph>
<glyph name="_u" format="2">
  <unicode hex="102F"/>
  <note>
_u
</note>
  <outline>
    <contour>
      <point x="-368" y="-467" type="line"/>
      <point x="-154" y="-467" type="line"/>
      <point x="-154" y="-399" type="line"/>
      <point x="-279" y="-399" type="line"/>
      <point x="-279" y="-49" type="line"/>
      <point x="-368" y="-49" type="line"/>
    </contour>
  </outline>
</glyph>
<glyph name="_uu" format="2">
  <unicode hex="1030"/>
  <note>
_uu
</note>
  <outline>
    <contour>
      <point x="-287" y="-467" type="line"/>
      <point x="-74" y="-467" type="line"/>
      <point x="-74" y="-399" type="line"/>
      <point x="-199" y="-399" type="line"/>
      <point x="-199" y="-49" type="line"/>
      <point x="-287" y="-49" type="line"/>
    </contour>
    <contour>
      <point x="-448" y="-467" type="line"/>
      <point x="-360" y="-467" type="line"/>
      <point x="-360" y="-49" type="line"/>
      <point x="-448" y="-49" type="line"/>
    </contour>
  </outline>
</glyph>
<glyph name="_e" format="2">
  <advance width="618"/>
  <unicode hex="1031"/>
  <note>
_e
</note>
  <outline>
    <contour>
      <point x="326" y="-10" type="curve" smooth="yes"/>
      <point x="459" y="-10"/>
      <point x="550" y="64"/>
      <point x="576" y="182" type="curve"/>
      <point x="500" y="243"/>
      <point x="436" y="269"/>
      <point x="342" y="269" type="curve" smooth="yes"/>
      <point x="271" y="269"/>
      <point x="195" y="238"/>
      <point x="141" y="192" type="curve"/>
      <point x="170" y="124" type="line"/>
      <point x="216" y="166"/>
      <point x="278" y="196"/>
      <point x="345" y="196" type="curve" smooth="yes"/>
      <point x="410" y="196"/>
      <point x="449" y="177"/>
      <point x="481" y="154" type="curve"/>
      <point x="451" y="94"/>
      <point x="403" y="64"/>
      <point x="323" y="64" type="curve" smooth="yes"/>
      <point x="198" y="64"/>
      <point x="143" y="169"/>
      <point x="143" y="270" type="curve" smooth="yes"/>
      <point x="143" y="392"/>
      <point x="224" y="472"/>
      <point x="324" y="472" type="curve" smooth="yes"/>
      <point x="414" y="472"/>
      <point x="469" y="430"/>
      <point x="498" y="347" type="curve"/>
      <point x="568" y="383" type="line"/>
      <point x="537" y="480"/>
      <point x="453" y="546"/>
      <point x="326" y="546" type="curve" smooth="yes"/>
      <point x="167" y="546"/>
      <point x="52" y="425"/>
      <point x="52" y="269" type="curve" smooth="yes"/>
      <point x="52" y="113"/>
      <point x="165" y="-10"/>
    </contour>
  </outline>
</glyph>
<glyph name="_ai" format="2">
  <unicode hex="1032"/>
  <note>
_ai
</note>
  <outline>
    <contour>
      <point x="-196" y="607" type="line"/>
      <point x="-147" y="664" type="line"/>
      <point x="-345" y="858" type="line"/>
      <point x="-396" y="803" type="line"/>
    </contour>
  </outline>
</glyph>
<glyph name="_ii_mon" format="2">
  <unicode hex="1033"/>
  <note>
_ii_mon
</note>
  <outline>
    <contour>
      <point x="-320" y="626" type="curve" smooth="yes"/>
      <point x="-206" y="626"/>
      <point x="-120" y="703"/>
      <point x="-120" y="814" type="curve" smooth="yes"/>
      <point x="-120" y="921"/>
      <point x="-207" y="1002"/>
      <point x="-320" y="1002" type="curve" smooth="yes"/>
      <point x="-435" y="1002"/>
      <point x="-520" y="919"/>
      <point x="-520" y="814" type="curve" smooth="yes"/>
      <point x="-520" y="706"/>
      <point x="-437" y="626"/>
    </contour>
    <contour>
      <point x="-320" y="682" type="curve" smooth="yes"/>
      <point x="-398" y="682"/>
      <point x="-453" y="736"/>
      <point x="-453" y="814" type="curve" smooth="yes"/>
      <point x="-453" y="892"/>
      <point x="-394" y="947"/>
      <point x="-320" y="947" type="curve" smooth="yes"/>
      <point x="-246" y="947"/>
      <point x="-187" y="890"/>
      <point x="-187" y="814" type="curve" smooth="yes"/>
      <point x="-187" y="734"/>
      <point x="-243" y="682"/>
    </contour>
    <contour>
      <point x="-320" y="726" type="curve" smooth="yes"/>
      <point x="-270" y="726"/>
      <point x="-231" y="762"/>
      <point x="-231" y="814" type="curve" smooth="yes"/>
      <point x="-231" y="866"/>
      <point x="-270" y="903"/>
      <point x="-320" y="903" type="curve" smooth="yes"/>
      <point x="-371" y="903"/>
      <point x="-409" y="866"/>
      <point x="-409" y="814" type="curve" smooth="yes"/>
      <point x="-409" y="763"/>
      <point x="-371" y="726"/>
    </contour>
    <contour>
      <point x="-321" y="771" type="curve" smooth="yes"/>
      <point x="-346" y="771"/>
      <point x="-363" y="789"/>
      <point x="-363" y="814" type="curve" smooth="yes"/>
      <point x="-363" y="841"/>
      <point x="-344" y="858"/>
      <point x="-321" y="858" type="curve" smooth="yes"/>
      <point x="-295" y="858"/>
      <point x="-277" y="841"/>
      <point x="-277" y="814" type="curve" smooth="yes"/>
      <point x="-277" y="789"/>
      <point x="-294" y="771"/>
    </contour>
  </outline>
</glyph>
<glyph name="_o_mon" format="2">
  <unicode hex="1034"/>
  <note>
_o_mon
</note>
  <outline>
    <contour>
      <point x="-410" y="607" type="line"/>
      <point x="-213" y="803" type="line"/>
      <point x="-263" y="858" type="line"/>
      <point x="-459" y="664" type="line"/>
    </contour>
  </outline>
</glyph>
<glyph name="_e_above" format="2">
  <unicode hex="1035"/>
  <note>
_e_above
</note>
  <outline>
    <contour>
      <point x="-300" y="626" type="curve" smooth="yes"/>
      <point x="-216" y="626"/>
      <point x="-148" y="677"/>
      <point x="-125" y="759" type="curve"/>
      <point x="-163" y="801"/>
      <point x="-219" y="837"/>
      <point x="-295" y="837" type="curve" smooth="yes"/>
      <point x="-348" y="837"/>
      <point x="-386" y="819"/>
      <point x="-419" y="790" type="curve"/>
      <point x="-400" y="726" type="line"/>
      <point x="-370" y="759"/>
      <point x="-334" y="771"/>
      <point x="-298" y="771" type="curve" smooth="yes"/>
      <point x="-265" y="771"/>
      <point x="-237" y="760"/>
      <point x="-214" y="743" type="curve"/>
      <point x="-234" y="712"/>
      <point x="-264" y="693"/>
      <point x="-303" y="693" type="curve" smooth="yes"/>
      <point x="-369" y="693"/>
      <point x="-407" y="744"/>
      <point x="-407" y="814" type="curve" smooth="yes"/>
      <point x="-407" y="882"/>
      <point x="-367" y="935"/>
      <point x="-295" y="935" type="curve" smooth="yes"/>
      <point x="-250" y="935"/>
      <point x="-209" y="908"/>
      <point x="-194" y="868" type="curve"/>
      <point x="-130" y="901" type="line"/>
      <point x="-155" y="965"/>
      <point x="-224" y="1002"/>
      <point x="-291" y="1002" type="curve" smooth="yes"/>
      <point x="-412" y="1002"/>
      <point x="-487" y="922"/>
      <point x="-487" y="814" type="curve" smooth="yes"/>
      <point x="-487" y="707"/>
      <point x="-419" y="626"/>
    </contour>
  </outline>
</glyph>
<glyph name="anusvara" format="2">
  <unicode hex="1036"/>
  <note>
anusvara
</note>
  <outline>
    <contour>
      <point x="-324" y="628" type="curve" smooth="yes"/>
      <point x="-260" y="628"/>
      <point x="-213" y="667"/>
      <point x="-213" y="735" type="curve" smooth="yes"/>
      <point x="-213" y="801"/>
      <point x="-260" y="840"/>
      <point x="-324" y="840" type="curve" smooth="yes"/>
      <point x="-389" y="840"/>
      <point x="-433" y="801"/>
      <point x="-433" y="734" type="curve" smooth="yes"/>
      <point x="-433" y="666"/>
      <point x="-389" y="628"/>
    </contour>
    <contour>
      <point x="-323" y="681" type="curve" smooth="yes"/>
      <point x="-358" y="681"/>
      <point x="-376" y="701"/>
      <point x="-376" y="734" type="curve" smooth="yes"/>
      <point x="-376" y="767"/>
      <point x="-354" y="787"/>
      <point x="-323" y="787" type="curve" smooth="yes"/>
      <point x="-292" y="787"/>
      <point x="-270" y="767"/>
      <point x="-270" y="734" type="curve" smooth="yes"/>
      <point x="-270" y="701"/>
      <point x="-292" y="681"/>
    </contour>
  </outline>
</glyph>
<glyph name="visarga" format="2">
  <advance width="346"/>
  <unicode hex="1038"/>
  <note>
visarga
</note>
  <outline>
    <contour>
      <point x="172" y="324" type="curve" smooth="yes"/>
      <point x="236" y="324"/>
      <point x="283" y="363"/>
      <point x="283" y="431" type="curve" smooth="yes"/>
      <point x="283" y="496"/>
      <point x="236" y="536"/>
      <point x="172" y="536" type="curve" smooth="yes"/>
      <point x="107" y="536"/>
      <point x="63" y="497"/>
      <point x="63" y="430" type="curve" smooth="yes"/>
      <point x="63" y="362"/>
      <point x="107" y="324"/>
    </contour>
    <contour>
      <point x="172" y="-11" type="curve" smooth="yes"/>
      <point x="236" y="-11"/>
      <point x="283" y="28"/>
      <point x="283" y="96" type="curve" smooth="yes"/>
      <point x="283" y="161"/>
      <point x="236" y="201"/>
      <point x="172" y="201" type="curve" smooth="yes"/>
      <point x="107" y="201"/>
      <point x="63" y="162"/>
      <point x="63" y="95" type="curve" smooth="yes"/>
      <point x="63" y="27"/>
      <point x="107" y="-11"/>
    </contour>
    <contour>
      <point x="173" y="42" type="curve" smooth="yes"/>
      <point x="138" y="42"/>
      <point x="120" y="62"/>
      <point x="120" y="95" type="curve" smooth="yes"/>
      <point x="120" y="128"/>
      <point x="142" y="148"/>
      <point x="173" y="148" type="curve" smooth="yes"/>
      <point x="204" y="148"/>
      <point x="226" y="128"/>
      <point x="226" y="95" type="curve" smooth="yes"/>
      <point x="226" y="62"/>
      <point x="204" y="42"/>
    </contour>
    <contour>
      <point x="173" y="377" type="curve" smooth="yes"/>
      <point x="138" y="377"/>
      <point x="120" y="396"/>
      <point x="120" y="430" type="curve" smooth="yes"/>
      <point x="120" y="463"/>
      <point x="142" y="483"/>
      <point x="173" y="483" type="curve" smooth="yes"/>
      <point x="204" y="483"/>
      <point x="226" y="463"/>
      <point x="226" y="430" type="curve" smooth="yes"/>
      <point x="226" y="396"/>
      <point x="204" y="377"/>
    </contour>
  </outline>
</glyph>
<glyph name="virama" format="2">
  <unicode hex="1039"/>
  <note>
virama
</note>
  <outline>
    <contour>
      <point x="-353" y="-416" type="line"/>
      <point x="-279" y="-416" type="line"/>
      <point x="-279" y="-291" type="line"/>
      <point x="-154" y="-291" type="line"/>
      <point x="-154" y="-223" type="line"/>
      <point x="-279" y="-223" type="line"/>
      <point x="-279" y="-98" type="line"/>
      <point x="-353" y="-98" type="line"/>
      <point x="-353" y="-223" type="line"/>
      <point x="-478" y="-223" type="line"/>
      <point x="-478" y="-291" type="line"/>
      <point x="-353" y="-291" type="line"/>
    </contour>
  </outline>
</glyph>
<glyph name="asat" format="2">
  <unicode hex="103A"/>
  <note>
asat
</note>
  <outline>
    <contour>
      <point x="-371" y="626" type="curve"/>
      <point x="-327" y="678" type="line"/>
      <point x="-367" y="705"/>
      <point x="-406" y="749"/>
      <point x="-406" y="819" type="curve" smooth="yes"/>
      <point x="-406" y="883"/>
      <point x="-368" y="935"/>
      <point x="-303" y="935" type="curve" smooth="yes"/>
      <point x="-262" y="935"/>
      <point x="-228" y="913"/>
      <point x="-206" y="877" type="curve"/>
      <point x="-149" y="921" type="line"/>
      <point x="-180" y="973"/>
      <point x="-236" y="1002"/>
      <point x="-304" y="1002" type="curve" smooth="yes"/>
      <point x="-408" y="1002"/>
      <point x="-486" y="932"/>
      <point x="-486" y="819" type="curve" smooth="yes"/>
      <point x="-486" y="731"/>
      <point x="-439" y="663"/>
    </contour>
  </outline>
</glyph>
<glyph name="medial_ya" format="2">
  <advance width="257"/>
  <unicode hex="103B"/>
  <note>
medial_ya
</note>
  <outline>
    <contour>
      <point x="176" y="-467" type="line"/>
      <point x="176" y="536" type="line"/>
      <point x="91" y="536" type="line"/>
      <point x="91" y="-365" type="line"/>
      <point x="-80" y="-303" type="line"/>
      <point x="-80" y="153" type="line"/>
      <point x="-165" y="153" type="line"/>
      <point x="-165" y="-346" type="line"/>
    </contour>
  </outline>
</glyph>
<glyph name="medial_ra" format="2">
  <advance width="229"/>
  <unicode hex="103C"/>
  <note>
medial_ra
</note>
  <outline>
    <contour>
      <point x="296" y="-466" type="curve" smooth="yes"/>
      <point x="618" y="-466" type="line" smooth="yes"/>
      <point x="755" y="-466"/>
      <point x="824" y="-395"/>
      <point x="824" y="-252" type="curve" smooth="yes"/>
      <point x="824" y="153" type="line"/>
      <point x="735" y="153" type="line"/>
      <point x="735" y="-268" type="line" smooth="yes"/>
      <point x="735" y="-348"/>
      <point x="699" y="-394"/>
      <point x="623" y="-394" type="curve" smooth="yes"/>
      <point x="292" y="-394" type="line" smooth="yes"/>
      <point x="214" y="-394"/>
      <point x="181" y="-348"/>
      <point x="181" y="-268" type="curve" smooth="yes"/>
      <point x="181" y="806" type="line" smooth="yes"/>
      <point x="181" y="885"/>
      <point x="214" y="931"/>
      <point x="292" y="931" type="curve" smooth="yes"/>
      <point x="623" y="931" type="line" smooth="yes"/>
      <point x="699" y="931"/>
      <point x="735" y="885"/>
      <point x="735" y="806" type="curve" smooth="yes"/>
      <point x="735" y="760" type="line"/>
      <point x="824" y="760" type="line"/>
      <point x="824" y="789" type="line" smooth="yes"/>
      <point x="824" y="932"/>
      <point x="755" y="1003"/>
      <point x="618" y="1003" type="curve" smooth="yes"/>
      <point x="296" y="1003" type="line" smooth="yes"/>
      <point x="159" y="1003"/>
      <point x="91" y="932"/>
      <point x="91" y="789" type="curve" smooth="yes"/>
      <point x="91" y="-252" type="line" smooth="yes"/>
      <point x="91" y="-395"/>
      <point x="159" y="-466"/>
    </contour>
  </outline>
</glyph>
<glyph name="medial_wa" format="2">
  <unicode hex="103D"/>
  <note>
medial_wa
</note>
  <outline>
    <contour>
      <point x="-328" y="-425" type="curve" smooth="yes"/>
      <point x="-212" y="-425"/>
      <point x="-142" y="-340"/>
      <point x="-142" y="-241" type="curve" smooth="yes"/>
      <point x="-142" y="-136"/>
      <point x="-210" y="-49"/>
      <point x="-326" y="-49" type="curve" smooth="yes"/>
      <point x="-438" y="-49"/>
      <point x="-509" y="-130"/>
      <point x="-509" y="-237" type="curve" smooth="yes"/>
      <point x="-509" y="-344"/>
      <point x="-438" y="-425"/>
    </contour>
    <contour>
      <point x="-325" y="-357" type="curve" smooth="yes"/>
      <point x="-389" y="-357"/>
      <point x="-430" y="-307"/>
      <point x="-430" y="-240" type="curve" smooth="yes"/>
      <point x="-430" y="-168"/>
      <point x="-390" y="-117"/>
      <point x="-325" y="-117" type="curve" smooth="yes"/>
      <point x="-261" y="-117"/>
      <point x="-222" y="-170"/>
      <point x="-222" y="-242" type="curve" smooth="yes"/>
      <point x="-222" y="-309"/>
      <point x="-265" y="-357"/>
    </contour>
  </outline>
</glyph>
<glyph name="medial_ha" format="2">
  <unicode hex="103E"/>
  <note>
medial_ha
</note>
  <outline>
    <contour>
      <point x="-482" y="-467" type="line"/>
      <point x="-269" y="-467" type="line"/>
      <point x="-269" y="-49" type="line"/>
      <point x="-357" y="-49" type="line"/>
      <point x="-357" y="-399" type="line"/>
      <point x="-482" y="-399" type="line"/>
    </contour>
  </outline>
</glyph>
<glyph name="great_sa" format="2">
  <advance width="1584"/>
  <unicode hex="103F"/>
  <note>
great_sa
</note>
  <outline>
    <contour>
      <point x="305" y="-10" type="curve" smooth="yes"/>
      <point x="490" y="-10"/>
      <point x="589" y="125"/>
      <point x="589" y="273" type="curve" smooth="yes"/>
      <point x="589" y="428"/>
      <point x="479" y="546"/>
      <point x="304" y="546" type="curve" smooth="yes"/>
      <point x="186" y="546"/>
      <point x="87" y="482"/>
      <point x="50" y="383" type="curve"/>
      <point x="120" y="347" type="line"/>
      <point x="156" y="430"/>
      <point x="222" y="472"/>
      <point x="306" y="472" type="curve" smooth="yes"/>
      <point x="422" y="472"/>
      <point x="498" y="391"/>
      <point x="498" y="270" type="curve" smooth="yes"/>
      <point x="498" y="154"/>
      <point x="423" y="64"/>
      <point x="306" y="64" type="curve" smooth="yes"/>
      <point x="222" y="64"/>
      <point x="156" y="106"/>
      <point x="120" y="189" type="curve"/>
      <point x="50" y="153" type="line"/>
      <point x="87" y="55"/>
      <point x="186" y="-10"/>
    </contour>
    <contour>
      <point x="769" y="-10" type="curve" smooth="yes"/>
      <point x="939" y="-10"/>
      <point x="1058" y="104"/>
      <point x="1058" y="268" type="curve" smooth="yes"/>
      <point x="1058" y="437"/>
      <point x="946" y="546"/>
      <point x="790" y="546" type="curve" smooth="yes"/>
      <point x="727" y="546"/>
      <point x="683" y="539"/>
      <point x="644" y="520" type="curve"/>
      <point x="676" y="454" type="line"/>
      <point x="703" y="466"/>
      <point x="736" y="472"/>
      <point x="776" y="472" type="curve" smooth="yes"/>
      <point x="892" y="472"/>
      <point x="967" y="392"/>
      <point x="967" y="270" type="curve" smooth="yes"/>
      <point x="967" y="149"/>
      <point x="892" y="65"/>
      <point x="772" y="65" type="curve" smooth="yes"/>
      <point x="668" y="65"/>
      <point x="606" y="129"/>
      <point x="557" y="210" type="curve"/>
      <point x="520" y="122" type="line"/>
      <point x="574" y="35"/>
      <point x="662" y="-10"/>
    </contour>
    <contour>
      <point x="1240" y="-10" type="curve" smooth="yes"/>
      <point x="1410" y="-10"/>
      <point x="1529" y="104"/>
      <point x="1529" y="268" type="curve" smooth="yes"/>
      <point x="1529" y="437"/>
      <point x="1417" y="546"/>
      <point x="1261" y="546" type="curve" smooth="yes"/>
      <point x="1198" y="546"/>
      <point x="1154" y="539"/>
      <point x="1115" y="520" type="curve"/>
      <point x="1147" y="454" type="line"/>
      <point x="1174" y="466"/>
      <point x="1207" y="472"/>
      <point x="1247" y="472" type="curve" smooth="yes"/>
      <point x="1363" y="472"/>
      <point x="1438" y="392"/>
      <point x="1438" y="270" type="curve" smooth="yes"/>
      <point x="1438" y="149"/>
      <point x="1363" y="65"/>
      <point x="1243" y="65" type="curve" smooth="yes"/>
      <point x="1139" y="65"/>
      <point x="1077" y="129"/>
      <point x="1028" y="210" type="curve"/>
      <point x="991" y="122" type="line"/>
      <point x="1045" y="35"/>
      <point x="1133" y="-10"/>
    </contour>
  </outline>
</glyph>
<glyph name="little_section" format="2">
  <advance width="270"/>
  <unicode hex="104A"/>
  <note>
little_section
</note>
  <outline>
    <contour>
      <point x="91" y="0" type="line"/>
      <point x="179" y="0" type="line"/>
      <point x="179" y="536" type="line"/>
      <point x="91" y="536" type="line"/>
    </contour>
  </outline>
</glyph>
<glyph name="locative" format="2">
  <advance width="666"/>
  <unicode hex="104C"/>
  <note>
locative
</note>
  <outline>
    <contour>
      <point x="252" y="-467" type="curve" smooth="yes"/>
      <point x="371" y="-467" type="line" smooth="yes"/>
      <point x="508" y="-467"/>
      <point x="576" y="-396"/>
      <point x="576" y="-253" type="curve" smooth="yes"/>
      <point x="576" y="0" type="line"/>
      <point x="510" y="-54"/>
      <point x="421" y="-90"/>
      <point x="335" y="-90" type="curve" smooth="yes"/>
      <point x="279" y="-90"/>
      <point x="227" y="-76"/>
      <point x="180" y="-49" type="curve"/>
      <point x="180" y="53" type="line"/>
      <point x="92" y="153" type="line"/>
      <point x="92" y="-83" type="line"/>
      <point x="158" y="-131"/>
      <point x="246" y="-164"/>
      <point x="335" y="-164" type="curve" smooth="yes"/>
      <point x="389" y="-164"/>
      <point x="440" y="-154"/>
      <point x="488" y="-136" type="curve"/>
      <point x="488" y="-269" type="line" smooth="yes"/>
      <point x="488" y="-349"/>
      <point x="454" y="-394"/>
      <point x="376" y="-394" type="curve" smooth="yes"/>
      <point x="280" y="-394" type="line" smooth="yes"/>
      <point x="203" y="-394"/>
      <point x="177" y="-375"/>
      <point x="177" y="-336" type="curve" smooth="yes"/>
      <point x="177" y="-309"/>
      <point x="199" y="-289"/>
      <point x="230" y="-289" type="curve" smooth="yes"/>
      <point x="253" y="-289"/>
      <point x="275" y="-302"/>
      <point x="298" y="-327" type="curve"/>
      <point x="348" y="-276" type="line"/>
      <point x="308" y="-233"/>
      <point x="275" y="-216"/>
      <point x="219" y="-216" type="curve" smooth="yes"/>
      <point x="143" y="-216"/>
      <point x="92" y="-269"/>
      <point x="92" y="-339" type="curve" smooth="yes"/>
      <point x="92" y="-413"/>
      <point x="152" y="-467"/>
    </contour>
    <contour>
      <point x="334" y="-10" type="curve" smooth="yes"/>
      <point x="499" y="-10"/>
      <point x="605" y="111"/>
      <point x="605" y="269" type="curve" smooth="yes"/>
      <point x="605" y="431"/>
      <point x="499" y="546"/>
      <point x="334" y="546" type="curve" smooth="yes"/>
      <point x="221" y="546"/>
      <point x="128" y="483"/>
      <point x="92" y="383" type="curve"/>
      <point x="162" y="347" type="line"/>
      <point x="195" y="430"/>
      <point x="257" y="472"/>
      <point x="335" y="472" type="curve" smooth="yes"/>
      <point x="443" y="472"/>
      <point x="514" y="391"/>
      <point x="514" y="270" type="curve" smooth="yes"/>
      <point x="514" y="143"/>
      <point x="445" y="64"/>
      <point x="335" y="64" type="curve" smooth="yes"/>
      <point x="257" y="64"/>
      <point x="195" y="106"/>
      <point x="162" y="189" type="curve"/>
      <point x="92" y="153" type="line"/>
      <point x="166" y="39"/>
      <point x="216" y="-10"/>
    </contour>
    <component base="asat" xOffset="734"/>
  </outline>
</glyph>
<glyph name="completed" format="2">
  <advance width="892"/>
  <unicode hex="104D"/>
  <note>
completed
</note>
  <outline>
    <contour>
      <point x="256" y="-467" type="curve" smooth="yes"/>
      <point x="597" y="-467" type="line" smooth="yes"/>
      <point x="733" y="-467"/>
      <point x="801" y="-396"/>
      <point x="801" y="-253" type="curve" smooth="yes"/>
      <point x="801" y="218" type="line" smooth="yes"/>
      <point x="801" y="430"/>
      <point x="741" y="565"/>
      <point x="563" y="692" type="curve" smooth="yes"/>
      <point x="515" y="726"/>
      <point x="492" y="768"/>
      <point x="492" y="815" type="curve" smooth="yes"/>
      <point x="492" y="884"/>
      <point x="539" y="937"/>
      <point x="609" y="937" type="curve" smooth="yes"/>
      <point x="664" y="937"/>
      <point x="706" y="907"/>
      <point x="729" y="848" type="curve"/>
      <point x="797" y="884" type="line"/>
      <point x="766" y="960"/>
      <point x="700" y="1004"/>
      <point x="604" y="1004" type="curve" smooth="yes"/>
      <point x="491" y="1004"/>
      <point x="407" y="918"/>
      <point x="407" y="815" type="curve" smooth="yes"/>
      <point x="407" y="731"/>
      <point x="439" y="679"/>
      <point x="532" y="610" type="curve" smooth="yes"/>
      <point x="666" y="511"/>
      <point x="713" y="403"/>
      <point x="713" y="224" type="curve" smooth="yes"/>
      <point x="713" y="-269" type="line" smooth="yes"/>
      <point x="713" y="-349"/>
      <point x="679" y="-394"/>
      <point x="601" y="-394" type="curve" smooth="yes"/>
      <point x="254" y="-394" type="line" smooth="yes"/>
      <point x="189" y="-394"/>
      <point x="145" y="-367"/>
      <point x="145" y="-316" type="curve" smooth="yes"/>
      <point x="145" y="-266"/>
      <point x="180" y="-244"/>
      <point x="212" y="-244" type="curve" smooth="yes"/>
      <point x="251" y="-244"/>
      <point x="272" y="-261"/>
      <point x="296" y="-283" type="curve"/>
      <point x="351" y="-231" type="line"/>
      <point x="310" y="-193"/>
      <point x="271" y="-170"/>
      <point x="207" y="-170" type="curve" smooth="yes"/>
      <point x="121" y="-170"/>
      <point x="55" y="-229"/>
      <point x="55" y="-315" type="curve" smooth="yes"/>
      <point x="55" y="-415"/>
      <point x="128" y="-467"/>
    </contour>
    <contour>
      <point x="509" y="-267" type="line"/>
      <point x="597" y="-267" type="line"/>
      <point x="597" y="268" type="line" smooth="yes"/>
      <point x="597" y="427"/>
      <point x="493" y="546"/>
      <point x="326" y="546" type="curve" smooth="yes"/>
      <point x="163" y="546"/>
      <point x="55" y="429"/>
      <point x="55" y="268" type="curve" smooth="yes"/>
      <point x="55" y="108"/>
      <point x="161" y="-10"/>
      <point x="323" y="-10" type="curve" smooth="yes"/>
      <point x="363" y="-10"/>
      <point x="401" y="-1"/>
      <point x="432" y="9" type="curve"/>
      <point x="432" y="211"/>
      <point x="320" y="328"/>
      <point x="136" y="337" type="curve"/>
      <point x="128" y="266" type="line"/>
      <point x="256" y="262"/>
      <point x="350" y="181"/>
      <point x="350" y="48" type="curve"/>
      <point x="379" y="68" type="line"/>
      <point x="363" y="65"/>
      <point x="343" y="64"/>
      <point x="326" y="64" type="curve" smooth="yes"/>
      <point x="212" y="64"/>
      <point x="146" y="147"/>
      <point x="146" y="265" type="curve" smooth="yes"/>
      <point x="146" y="392"/>
      <point x="217" y="472"/>
      <point x="327" y="472" type="curve" smooth="yes"/>
      <point x="438" y="472"/>
      <point x="509" y="387"/>
      <point x="509" y="266" type="curve" smooth="yes"/>
    </contour>
  </outline>
</glyph>
<glyph name="aforementioned" format="2">
  <advance width="659"/>
  <unicode hex="104E"/>
  <note>
aforementioned
</note>
  <outline>
    <contour>
      <point x="326" y="-10" type="curve" smooth="yes"/>
      <point x="442" y="-10"/>
      <point x="529" y="53"/>
      <point x="568" y="153" type="curve"/>
      <point x="498" y="189" type="line"/>
      <point x="465" y="106"/>
      <point x="402" y="64"/>
      <point x="325" y="64" type="curve" smooth="yes"/>
      <point x="214" y="64"/>
      <point x="146" y="144"/>
      <point x="146" y="270" type="curve" smooth="yes"/>
      <point x="146" y="391"/>
      <point x="216" y="472"/>
      <point x="325" y="472" type="curve" smooth="yes"/>
      <point x="402" y="472"/>
      <point x="465" y="430"/>
      <point x="498" y="347" type="curve"/>
      <point x="568" y="383" type="line"/>
      <point x="533" y="480"/>
      <point x="440" y="546"/>
      <point x="326" y="546" type="curve" smooth="yes"/>
      <point x="162" y="546"/>
      <point x="55" y="430"/>
      <point x="55" y="269" type="curve" smooth="yes"/>
      <point x="55" y="111"/>
      <point x="161" y="-10"/>
    </contour>
    <contour>
      <point x="480" y="-467" type="line"/>
      <point x="568" y="-467" type="line"/>
      <point x="568" y="153" type="line"/>
      <point x="480" y="53" type="line"/>
    </contour>
  </outline>
</glyph>
<glyph name="genitive" format="2">
  <advance width="1137"/>
  <unicode hex="104F"/>
  <note>
genitive
</note>
  <outline>
    <contour>
      <point x="958" y="0" type="line"/>
      <point x="1046" y="0" type="line"/>
      <point x="1046" y="303" type="line" smooth="yes"/>
      <point x="1046" y="489"/>
      <point x="1008" y="617"/>
      <point x="848" y="696" type="curve" smooth="yes"/>
      <point x="767" y="736"/>
      <point x="737" y="770"/>
      <point x="737" y="832" type="curve" smooth="yes"/>
      <point x="737" y="886"/>
      <point x="786" y="937"/>
      <point x="851" y="937" type="curve" smooth="yes"/>
      <point x="910" y="937"/>
      <point x="951" y="907"/>
      <point x="974" y="848" type="curve"/>
      <point x="1039" y="882" type="line"/>
      <point x="1008" y="958"/>
      <point x="943" y="1003"/>
      <point x="843" y="1003" type="curve" smooth="yes"/>
      <point x="737" y="1003"/>
      <point x="652" y="927"/>
      <point x="652" y="830" type="curve" smooth="yes"/>
      <point x="652" y="738"/>
      <point x="700" y="678"/>
      <point x="807" y="626" type="curve" smooth="yes"/>
      <point x="912" y="575"/>
      <point x="958" y="501"/>
      <point x="958" y="329" type="curve" smooth="yes"/>
    </contour>
    <contour>
      <point x="754" y="0" type="line"/>
      <point x="842" y="0" type="line"/>
      <point x="842" y="362" type="line" smooth="yes"/>
      <point x="842" y="471"/>
      <point x="777" y="546"/>
      <point x="666" y="546" type="curve" smooth="yes"/>
      <point x="594" y="546"/>
      <point x="542" y="509"/>
      <point x="517" y="449" type="curve"/>
      <point x="576" y="382" type="line"/>
      <point x="583" y="442"/>
      <point x="621" y="472"/>
      <point x="664" y="472" type="curve" smooth="yes"/>
      <point x="724" y="472"/>
      <point x="754" y="429"/>
      <point x="754" y="363" type="curve" smooth="yes"/>
    </contour>
    <component base="e_m"/>
  </outline>
</glyph>
<glyph name="sha_skt" format="2">
  <advance width="668"/>
  <unicode hex="1050"/>
  <note>
sha_skt
</note>
  <outline>
    <contour>
      <point x="336" y="193" type="curve" smooth="yes"/>
      <point x="372" y="193"/>
      <point x="399" y="214"/>
      <point x="399" y="261" type="curve" smooth="yes"/>
      <point x="399" y="309"/>
      <point x="373" y="328"/>
      <point x="336" y="328" type="curve" smooth="yes"/>
      <point x="301" y="328"/>
      <point x="275" y="309"/>
      <point x="275" y="261" type="curve" smooth="yes"/>
      <point x="275" y="213"/>
      <point x="302" y="193"/>
    </contour>
    <component base="ga"/>
  </outline>
</glyph>
<glyph name="ssa_skt" format="2">
  <advance width="676"/>
  <unicode hex="1051"/>
  <note>
ssa_skt
</note>
  <outline>
    <contour>
      <point x="338" y="-10" type="curve" smooth="yes"/>
      <point x="500" y="-10"/>
      <point x="621" y="108"/>
      <point x="621" y="278" type="curve" smooth="yes"/>
      <point x="621" y="385"/>
      <point x="567" y="491"/>
      <point x="483" y="546" type="curve"/>
      <point x="433" y="482" type="line"/>
      <point x="495" y="435"/>
      <point x="529" y="370"/>
      <point x="529" y="280" type="curve" smooth="yes"/>
      <point x="529" y="148"/>
      <point x="453" y="64"/>
      <point x="338" y="64" type="curve" smooth="yes"/>
      <point x="223" y="64"/>
      <point x="146" y="147"/>
      <point x="146" y="280" type="curve" smooth="yes"/>
      <point x="146" y="370"/>
      <point x="178" y="435"/>
      <point x="235" y="482" type="curve"/>
      <point x="184" y="546" type="line"/>
      <point x="105" y="490"/>
      <point x="55" y="388"/>
      <point x="55" y="278" type="curve" smooth="yes"/>
      <point x="55" y="109"/>
      <point x="174" y="-10"/>
    </contour>
    <contour>
      <point x="336" y="208" type="curve" smooth="yes"/>
      <point x="372" y="208"/>
      <point x="399" y="229"/>
      <point x="399" y="276" type="curve" smooth="yes"/>
      <point x="399" y="324"/>
      <point x="373" y="343"/>
      <point x="336" y="343" type="curve" smooth="yes"/>
      <point x="301" y="343"/>
      <point x="275" y="324"/>
      <point x="275" y="276" type="curve" smooth="yes"/>
      <point x="275" y="228"/>
      <point x="302" y="208"/>
    </contour>
  </outline>
</glyph>
<glyph name="vocR_skt" format="2">
  <advance width="661"/>
  <unicode hex="1052"/>
  <note>
vocR_skt
</note>
  <outline>
    <contour>
      <point x="336" y="-10" type="curve" smooth="yes"/>
      <point x="497" y="-10"/>
      <point x="603" y="74"/>
      <point x="603" y="200" type="curve" smooth="yes"/>
      <point x="603" y="277"/>
      <point x="581" y="310"/>
      <point x="502" y="377" type="curve" smooth="yes"/>
      <point x="476" y="399"/>
      <point x="460" y="414"/>
      <point x="460" y="437" type="curve" smooth="yes"/>
      <point x="460" y="456"/>
      <point x="476" y="472"/>
      <point x="500" y="472" type="curve" smooth="yes"/>
      <point x="521" y="472"/>
      <point x="540" y="462"/>
      <point x="563" y="435" type="curve"/>
      <point x="613" y="486" type="line"/>
      <point x="572" y="529"/>
      <point x="545" y="546"/>
      <point x="493" y="546" type="curve" smooth="yes"/>
      <point x="418" y="546"/>
      <point x="375" y="495"/>
      <point x="375" y="442" type="curve" smooth="yes"/>
      <point x="375" y="395"/>
      <point x="392" y="366"/>
      <point x="466" y="301" type="curve" smooth="yes"/>
      <point x="495" y="275"/>
      <point x="513" y="241"/>
      <point x="513" y="200" type="curve" smooth="yes"/>
      <point x="513" y="122"/>
      <point x="451" y="64"/>
      <point x="340" y="64" type="curve" smooth="yes"/>
      <point x="224" y="64"/>
      <point x="146" y="141"/>
      <point x="146" y="280" type="curve" smooth="yes"/>
      <point x="146" y="370"/>
      <point x="178" y="435"/>
      <point x="235" y="482" type="curve"/>
      <point x="184" y="546" type="line"/>
      <point x="105" y="490"/>
      <point x="55" y="388"/>
      <point x="55" y="278" type="curve" smooth="yes"/>
      <point x="55" y="102"/>
      <point x="163" y="-10"/>
    </contour>
  </outline>
</glyph>
<glyph name="vocRR_skt" format="2">
  <advance width="661"/>
  <unicode hex="1053"/>
  <note>
vocRR_skt
</note>
  <outline>
    <contour>
      <point x="330" y="-10" type="curve" smooth="yes"/>
      <point x="494" y="-10"/>
      <point x="603" y="77"/>
      <point x="603" y="200" type="curve" smooth="yes"/>
      <point x="603" y="282"/>
      <point x="562" y="331"/>
      <point x="493" y="386" type="curve" smooth="yes"/>
      <point x="471" y="403"/>
      <point x="460" y="420"/>
      <point x="460" y="437" type="curve" smooth="yes"/>
      <point x="460" y="456"/>
      <point x="476" y="472"/>
      <point x="500" y="472" type="curve" smooth="yes"/>
      <point x="521" y="472"/>
      <point x="540" y="462"/>
      <point x="563" y="435" type="curve"/>
      <point x="613" y="486" type="line"/>
      <point x="572" y="529"/>
      <point x="545" y="546"/>
      <point x="493" y="546" type="curve" smooth="yes"/>
      <point x="418" y="546"/>
      <point x="375" y="495"/>
      <point x="375" y="442" type="curve" smooth="yes"/>
      <point x="375" y="395"/>
      <point x="388" y="369"/>
      <point x="465" y="302" type="curve" smooth="yes"/>
      <point x="496" y="275"/>
      <point x="513" y="241"/>
      <point x="513" y="200" type="curve" smooth="yes"/>
      <point x="513" y="122"/>
      <point x="451" y="64"/>
      <point x="333" y="64" type="curve" smooth="yes"/>
      <point x="215" y="64"/>
      <point x="153" y="122"/>
      <point x="153" y="200" type="curve" smooth="yes"/>
      <point x="153" y="243"/>
      <point x="167" y="276"/>
      <point x="225" y="325" type="curve" smooth="yes"/>
      <point x="283" y="374"/>
      <point x="292" y="397"/>
      <point x="292" y="442" type="curve" smooth="yes"/>
      <point x="292" y="490"/>
      <point x="250" y="546"/>
      <point x="173" y="546" type="curve" smooth="yes"/>
      <point x="121" y="546"/>
      <point x="94" y="529"/>
      <point x="53" y="486" type="curve"/>
      <point x="103" y="435" type="line"/>
      <point x="127" y="462"/>
      <point x="146" y="472"/>
      <point x="167" y="472" type="curve" smooth="yes"/>
      <point x="191" y="472"/>
      <point x="206" y="456"/>
      <point x="206" y="437" type="curve" smooth="yes"/>
      <point x="206" y="414"/>
      <point x="191" y="399"/>
      <point x="164" y="376" type="curve" smooth="yes"/>
      <point x="88" y="312"/>
      <point x="63" y="278"/>
      <point x="63" y="200" type="curve" smooth="yes"/>
      <point x="63" y="73"/>
      <point x="165" y="-10"/>
    </contour>
  </outline>
</glyph>
<glyph name="vocL_skt" format="2">
  <advance width="660"/>
  <unicode hex="1054"/>
  <note>
vocL_skt
</note>
  <outline>
    <contour>
      <point x="341" y="-10" type="curve" smooth="yes"/>
      <point x="467" y="-10"/>
      <point x="562" y="56"/>
      <point x="596" y="153" type="curve"/>
      <point x="526" y="189" type="line"/>
      <point x="493" y="106"/>
      <point x="428" y="64"/>
      <point x="339" y="64" type="curve" smooth="yes"/>
      <point x="227" y="64"/>
      <point x="146" y="144"/>
      <point x="146" y="266" type="curve" smooth="yes"/>
      <point x="146" y="367"/>
      <point x="201" y="472"/>
      <point x="338" y="472" type="curve" smooth="yes"/>
      <point x="416" y="472"/>
      <point x="473" y="442"/>
      <point x="509" y="382" type="curve"/>
      <point x="470" y="359"/>
      <point x="422" y="340"/>
      <point x="360" y="340" type="curve" smooth="yes"/>
      <point x="281" y="340"/>
      <point x="219" y="370"/>
      <point x="173" y="412" type="curve"/>
      <point x="144" y="344" type="line"/>
      <point x="198" y="298"/>
      <point x="274" y="267"/>
      <point x="357" y="267" type="curve" smooth="yes"/>
      <point x="447" y="267"/>
      <point x="512" y="293"/>
      <point x="604" y="354" type="curve"/>
      <point x="575" y="472"/>
      <point x="474" y="546"/>
      <point x="341" y="546" type="curve" smooth="yes"/>
      <point x="168" y="546"/>
      <point x="55" y="423"/>
      <point x="55" y="267" type="curve" smooth="yes"/>
      <point x="55" y="111"/>
      <point x="170" y="-10"/>
    </contour>
  </outline>
</glyph>
<glyph name="vocLL_skt" format="2">
  <advance width="651"/>
  <unicode hex="1055"/>
  <note>
vocLL_skt
</note>
  <outline>
    <contour>
      <point x="242" y="-10" type="curve" smooth="yes"/>
      <point x="297" y="-10"/>
      <point x="336" y="16"/>
      <point x="362" y="65" type="curve"/>
      <point x="329" y="65" type="line"/>
      <point x="361" y="12"/>
      <point x="392" y="-10"/>
      <point x="459" y="-10" type="curve" smooth="yes"/>
      <point x="545" y="-10"/>
      <point x="596" y="48"/>
      <point x="596" y="127" type="curve"/>
      <point x="507" y="142" type="line"/>
      <point x="504" y="93"/>
      <point x="483" y="64"/>
      <point x="447" y="64" type="curve" smooth="yes"/>
      <point x="412" y="64"/>
      <point x="390" y="89"/>
      <point x="390" y="132" type="curve" smooth="yes"/>
      <point x="390" y="142" type="line"/>
      <point x="305" y="142" type="line"/>
      <point x="305" y="132" type="line" smooth="yes"/>
      <point x="305" y="93"/>
      <point x="282" y="64"/>
      <point x="244" y="64" type="curve" smooth="yes"/>
      <point x="169" y="64"/>
      <point x="146" y="162"/>
      <point x="146" y="266" type="curve" smooth="yes"/>
      <point x="146" y="379"/>
      <point x="199" y="472"/>
      <point x="340" y="472" type="curve" smooth="yes"/>
      <point x="412" y="472"/>
      <point x="472" y="440"/>
      <point x="509" y="382" type="curve"/>
      <point x="467" y="359"/>
      <point x="417" y="340"/>
      <point x="362" y="340" type="curve" smooth="yes"/>
      <point x="275" y="340"/>
      <point x="215" y="371"/>
      <point x="170" y="414" type="curve"/>
      <point x="141" y="346" type="line"/>
      <point x="194" y="299"/>
      <point x="268" y="267"/>
      <point x="359" y="267" type="curve" smooth="yes"/>
      <point x="442" y="267"/>
      <point x="516" y="293"/>
      <point x="604" y="354" type="curve"/>
      <point x="574" y="472"/>
      <point x="470" y="546"/>
      <point x="343" y="546" type="curve" smooth="yes"/>
      <point x="165" y="546"/>
      <point x="55" y="423"/>
      <point x="55" y="267" type="curve" smooth="yes"/>
      <point x="55" y="95"/>
      <point x="126" y="-10"/>
    </contour>
  </outline>
</glyph>
<glyph name="_vocR_skt" format="2">
  <advance width="369"/>
  <unicode hex="1056"/>
  <note>
_vocR_skt
</note>
  <outline>
    <contour>
      <point x="95" y="-10" type="curve" smooth="yes"/>
      <point x="231" y="-10"/>
      <point x="319" y="62"/>
      <point x="319" y="165" type="curve" smooth="yes"/>
      <point x="319" y="261"/>
      <point x="260" y="296"/>
      <point x="184" y="338" type="curve" smooth="yes"/>
      <point x="142" y="361"/>
      <point x="113" y="380"/>
      <point x="113" y="425" type="curve" smooth="yes"/>
      <point x="113" y="449"/>
      <point x="135" y="476"/>
      <point x="167" y="476" type="curve" smooth="yes"/>
      <point x="195" y="476"/>
      <point x="219" y="466"/>
      <point x="246" y="433" type="curve"/>
      <point x="299" y="484" type="line"/>
      <point x="258" y="533"/>
      <point x="221" y="546"/>
      <point x="163" y="546" type="curve" smooth="yes"/>
      <point x="81" y="546"/>
      <point x="31" y="486"/>
      <point x="31" y="422" type="curve" smooth="yes"/>
      <point x="31" y="352"/>
      <point x="75" y="305"/>
      <point x="136" y="274" type="curve" smooth="yes"/>
      <point x="198" y="242"/>
      <point x="237" y="211"/>
      <point x="237" y="170" type="curve" smooth="yes"/>
      <point x="237" y="108"/>
      <point x="184" y="64"/>
      <point x="97" y="64" type="curve" smooth="yes"/>
      <point x="21" y="64"/>
      <point x="-39" y="102"/>
      <point x="-76" y="171" type="curve"/>
      <point x="-140" y="129" type="line"/>
      <point x="-94" y="39"/>
      <point x="-11" y="-10"/>
    </contour>
  </outline>
</glyph>
<glyph name="_vocRR_skt" format="2">
  <advance width="373"/>
  <unicode hex="1057"/>
  <note>
_vocRR_skt
</note>
  <outline>
    <contour>
      <point x="-29" y="-10" type="curve" smooth="yes"/>
      <point x="25" y="-10"/>
      <point x="64" y="12"/>
      <point x="93" y="66" type="curve"/>
      <point x="62" y="64" type="line"/>
      <point x="86" y="15"/>
      <point x="121" y="-10"/>
      <point x="184" y="-10" type="curve" smooth="yes"/>
      <point x="264" y="-10"/>
      <point x="323" y="52"/>
      <point x="323" y="147" type="curve" smooth="yes"/>
      <point x="323" y="246"/>
      <point x="262" y="295"/>
      <point x="193" y="334" type="curve" smooth="yes"/>
      <point x="142" y="363"/>
      <point x="117" y="386"/>
      <point x="117" y="425" type="curve" smooth="yes"/>
      <point x="117" y="449"/>
      <point x="139" y="476"/>
      <point x="171" y="476" type="curve" smooth="yes"/>
      <point x="199" y="476"/>
      <point x="223" y="466"/>
      <point x="250" y="433" type="curve"/>
      <point x="303" y="484" type="line"/>
      <point x="262" y="533"/>
      <point x="225" y="546"/>
      <point x="167" y="546" type="curve" smooth="yes"/>
      <point x="85" y="546"/>
      <point x="35" y="487"/>
      <point x="35" y="422" type="curve" smooth="yes"/>
      <point x="35" y="354"/>
      <point x="76" y="308"/>
      <point x="153" y="266" type="curve" smooth="yes"/>
      <point x="203" y="239"/>
      <point x="241" y="199"/>
      <point x="241" y="142" type="curve" smooth="yes"/>
      <point x="241" y="100"/>
      <point x="216" y="64"/>
      <point x="173" y="64" type="curve" smooth="yes"/>
      <point x="138" y="64"/>
      <point x="117" y="93"/>
      <point x="117" y="132" type="curve" smooth="yes"/>
      <point x="117" y="142" type="line"/>
      <point x="32" y="142" type="line"/>
      <point x="32" y="132" type="line" smooth="yes"/>
      <point x="32" y="89"/>
      <point x="10" y="64"/>
      <point x="-25" y="64" type="curve" smooth="yes"/>
      <point x="-61" y="64"/>
      <point x="-82" y="93"/>
      <point x="-84" y="142" type="curve"/>
      <point x="-160" y="128" type="line"/>
      <point x="-160" y="48"/>
      <point x="-113" y="-10"/>
    </contour>
  </outline>
</glyph>
<glyph name="_vocLL_skt" format="2">
  <unicode hex="1059"/>
  <note>
_vocLL_skt
</note>
  <outline>
    <contour>
      <point x="-395" y="-467" type="curve" smooth="yes"/>
      <point x="-353" y="-467"/>
      <point x="-323" y="-445"/>
      <point x="-307" y="-402" type="curve"/>
      <point x="-337" y="-401" type="line"/>
      <point x="-316" y="-449"/>
      <point x="-285" y="-467"/>
      <point x="-242" y="-467" type="curve" smooth="yes"/>
      <point x="-178" y="-467"/>
      <point x="-144" y="-426"/>
      <point x="-144" y="-353" type="curve"/>
      <point x="-206" y="-343" type="line"/>
      <point x="-208" y="-381"/>
      <point x="-221" y="-401"/>
      <point x="-245" y="-401" type="curve" smooth="yes"/>
      <point x="-269" y="-401"/>
      <point x="-284" y="-382"/>
      <point x="-284" y="-350" type="curve" smooth="yes"/>
      <point x="-284" y="-343" type="line"/>
      <point x="-355" y="-343" type="line"/>
      <point x="-355" y="-350" type="line" smooth="yes"/>
      <point x="-355" y="-381"/>
      <point x="-370" y="-401"/>
      <point x="-390" y="-401" type="curve" smooth="yes"/>
      <point x="-435" y="-401"/>
      <point x="-449" y="-334"/>
      <point x="-449" y="-268" type="curve" smooth="yes"/>
      <point x="-449" y="-174"/>
      <point x="-411" y="-111"/>
      <point x="-325" y="-111" type="curve" smooth="yes"/>
      <point x="-276" y="-111"/>
      <point x="-240" y="-133"/>
      <point x="-215" y="-178" type="curve"/>
      <point x="-244" y="-192"/>
      <point x="-277" y="-204"/>
      <point x="-314" y="-204" type="curve" smooth="yes"/>
      <point x="-368" y="-204"/>
      <point x="-407" y="-185"/>
      <point x="-439" y="-155" type="curve"/>
      <point x="-459" y="-214" type="line"/>
      <point x="-417" y="-253"/>
      <point x="-366" y="-268"/>
      <point x="-312" y="-268" type="curve" smooth="yes"/>
      <point x="-266" y="-268"/>
      <point x="-229" y="-266"/>
      <point x="-135" y="-204" type="curve"/>
      <point x="-156" y="-106"/>
      <point x="-231" y="-49"/>
      <point x="-326" y="-49" type="curve" smooth="yes"/>
      <point x="-451" y="-49"/>
      <point x="-530" y="-141"/>
      <point x="-530" y="-262" type="curve" smooth="yes"/>
      <point x="-530" y="-399"/>
      <point x="-473" y="-467"/>
    </contour>
  </outline>
</glyph>
<glyph name="nga_mon" format="2">
  <advance width="618"/>
  <unicode hex="105A"/>
  <note>
nga_mon
</note>
  <outline>
    <contour>
      <point x="326" y="-10" type="curve" smooth="yes"/>
      <point x="440" y="-10"/>
      <point x="533" y="56"/>
      <point x="568" y="153" type="curve"/>
      <point x="498" y="189" type="line"/>
      <point x="465" y="106"/>
      <point x="402" y="64"/>
      <point x="325" y="64" type="curve" smooth="yes"/>
      <point x="214" y="64"/>
      <point x="146" y="144"/>
      <point x="146" y="270" type="curve" smooth="yes"/>
      <point x="146" y="391"/>
      <point x="216" y="472"/>
      <point x="325" y="472" type="curve" smooth="yes"/>
      <point x="402" y="472"/>
      <point x="465" y="430"/>
      <point x="498" y="347" type="curve"/>
      <point x="568" y="383" type="line"/>
      <point x="533" y="480"/>
      <point x="440" y="546"/>
      <point x="326" y="546" type="curve" smooth="yes"/>
      <point x="162" y="546"/>
      <point x="55" y="430"/>
      <point x="55" y="269" type="curve" smooth="yes"/>
      <point x="55" y="111"/>
      <point x="161" y="-10"/>
    </contour>
    <contour>
      <point x="397" y="-467" type="curve" smooth="yes"/>
      <point x="422" y="-467"/>
      <point x="453" y="-463"/>
      <point x="473" y="-450" type="curve"/>
      <point x="441" y="-393" type="line"/>
      <point x="431" y="-399"/>
      <point x="420" y="-402"/>
      <point x="408" y="-402" type="curve" smooth="yes"/>
      <point x="389" y="-402"/>
      <point x="368" y="-394"/>
      <point x="368" y="-370" type="curve" smooth="yes"/>
      <point x="368" y="-352"/>
      <point x="381" y="-331"/>
      <point x="406" y="-306" type="curve" smooth="yes"/>
      <point x="457" y="-258"/>
      <point x="477" y="-225"/>
      <point x="477" y="-181" type="curve" smooth="yes"/>
      <point x="477" y="-105"/>
      <point x="415" y="-48"/>
      <point x="327" y="-48" type="curve" smooth="yes"/>
      <point x="235" y="-48"/>
      <point x="175" y="-106"/>
      <point x="173" y="-184" type="curve"/>
      <point x="253" y="-184" type="line"/>
      <point x="259" y="-144"/>
      <point x="286" y="-115"/>
      <point x="329" y="-115" type="curve" smooth="yes"/>
      <point x="366" y="-115"/>
      <point x="397" y="-141"/>
      <point x="397" y="-178" type="curve" smooth="yes"/>
      <point x="397" y="-203"/>
      <point x="385" y="-227"/>
      <point x="360" y="-250" type="curve" smooth="yes"/>
      <point x="311" y="-295"/>
      <point x="288" y="-330"/>
      <point x="288" y="-373" type="curve" smooth="yes"/>
      <point x="288" y="-424"/>
      <point x="327" y="-467"/>
    </contour>
  </outline>
</glyph>
<glyph name="jha_mon" format="2">
  <advance width="869"/>
  <unicode hex="105B"/>
  <note>
jha_mon
</note>
  <outline>
    <contour>
      <point x="326" y="-10" type="curve" smooth="yes"/>
      <point x="385" y="-10"/>
      <point x="456" y="11"/>
      <point x="501" y="53" type="curve"/>
      <point x="448" y="113" type="line"/>
      <point x="414" y="80"/>
      <point x="373" y="64"/>
      <point x="325" y="64" type="curve" smooth="yes"/>
      <point x="214" y="64"/>
      <point x="146" y="144"/>
      <point x="146" y="270" type="curve" smooth="yes"/>
      <point x="146" y="392"/>
      <point x="221" y="472"/>
      <point x="335" y="472" type="curve" smooth="yes"/>
      <point x="358" y="472"/>
      <point x="383" y="469"/>
      <point x="406" y="464" type="curve"/>
      <point x="401" y="481" type="line"/>
      <point x="362" y="465"/>
      <point x="334" y="429"/>
      <point x="334" y="378" type="curve" smooth="yes"/>
      <point x="334" y="309"/>
      <point x="389" y="259"/>
      <point x="461" y="259" type="curve" smooth="yes"/>
      <point x="494" y="259"/>
      <point x="523" y="267"/>
      <point x="539" y="287" type="curve"/>
      <point x="521" y="278" type="line"/>
      <point x="521" y="204"/>
      <point x="564" y="165"/>
      <point x="645" y="165" type="curve" smooth="yes"/>
      <point x="704" y="165" type="line"/>
      <point x="704" y="238" type="line"/>
      <point x="663" y="238" type="line" smooth="yes"/>
      <point x="610" y="238"/>
      <point x="589" y="248"/>
      <point x="589" y="291" type="curve" smooth="yes"/>
      <point x="589" y="316"/>
      <point x="593" y="337"/>
      <point x="593" y="369" type="curve" smooth="yes"/>
      <point x="593" y="488"/>
      <point x="483" y="546"/>
      <point x="336" y="546" type="curve" smooth="yes"/>
      <point x="169" y="546"/>
      <point x="55" y="432"/>
      <point x="55" y="269" type="curve" smooth="yes"/>
      <point x="55" y="111"/>
      <point x="161" y="-10"/>
    </contour>
    <contour>
      <point x="574" y="-467" type="curve" smooth="yes"/>
      <point x="709" y="-467"/>
      <point x="777" y="-381"/>
      <point x="777" y="-209" type="curve" smooth="yes"/>
      <point x="777" y="536" type="line"/>
      <point x="688" y="536" type="line"/>
      <point x="688" y="-217" type="line" smooth="yes"/>
      <point x="688" y="-330"/>
      <point x="652" y="-394"/>
      <point x="575" y="-394" type="curve" smooth="yes"/>
      <point x="497" y="-394"/>
      <point x="461" y="-330"/>
      <point x="461" y="-217" type="curve" smooth="yes"/>
      <point x="461" y="40" type="line"/>
      <point x="372" y="10" type="line"/>
      <point x="372" y="-208" type="line" smooth="yes"/>
      <point x="372" y="-380"/>
      <point x="439" y="-467"/>
    </contour>
    <contour>
      <point x="460" y="324" type="curve" smooth="yes"/>
      <point x="429" y="324"/>
      <point x="405" y="348"/>
      <point x="405" y="379" type="curve" smooth="yes"/>
      <point x="405" y="410"/>
      <point x="429" y="434"/>
      <point x="460" y="434" type="curve" smooth="yes"/>
      <point x="491" y="434"/>
      <point x="515" y="410"/>
      <point x="515" y="379" type="curve" smooth="yes"/>
      <point x="515" y="348"/>
      <point x="491" y="324"/>
    </contour>
  </outline>
</glyph>
<glyph name="bba_mon" format="2">
  <advance width="669"/>
  <unicode hex="105C"/>
  <note>
bba_mon
</note>
  <outline>
    <contour>
      <point x="334" y="-10" type="curve" smooth="yes"/>
      <point x="502" y="-10"/>
      <point x="619" y="105"/>
      <point x="619" y="268" type="curve" smooth="yes"/>
      <point x="619" y="429"/>
      <point x="507" y="546"/>
      <point x="337" y="546" type="curve" smooth="yes"/>
      <point x="165" y="546"/>
      <point x="55" y="426"/>
      <point x="55" y="268" type="curve" smooth="yes"/>
      <point x="55" y="109"/>
      <point x="164" y="-10"/>
    </contour>
    <contour>
      <point x="337" y="64" type="curve" smooth="yes"/>
      <point x="226" y="64"/>
      <point x="146" y="143"/>
      <point x="146" y="266" type="curve" smooth="yes"/>
      <point x="146" y="391"/>
      <point x="221" y="472"/>
      <point x="338" y="472" type="curve" smooth="yes"/>
      <point x="454" y="472"/>
      <point x="528" y="390"/>
      <point x="528" y="266" type="curve" smooth="yes"/>
      <point x="528" y="146"/>
      <point x="452" y="64"/>
    </contour>
    <contour>
      <point x="336" y="167" type="curve" smooth="yes"/>
      <point x="400" y="167"/>
      <point x="447" y="206"/>
      <point x="447" y="274" type="curve" smooth="yes"/>
      <point x="447" y="340"/>
      <point x="400" y="379"/>
      <point x="336" y="379" type="curve" smooth="yes"/>
      <point x="271" y="379"/>
      <point x="227" y="340"/>
      <point x="227" y="273" type="curve" smooth="yes"/>
      <point x="227" y="205"/>
      <point x="271" y="167"/>
    </contour>
    <contour>
      <point x="337" y="220" type="curve" smooth="yes"/>
      <point x="302" y="220"/>
      <point x="284" y="240"/>
      <point x="284" y="273" type="curve" smooth="yes"/>
      <point x="284" y="306"/>
      <point x="307" y="326"/>
      <point x="337" y="326" type="curve" smooth="yes"/>
      <point x="368" y="326"/>
      <point x="390" y="306"/>
      <point x="390" y="273" type="curve" smooth="yes"/>
      <point x="390" y="240"/>
      <point x="368" y="220"/>
    </contour>
  </outline>
</glyph>
<glyph name="bbe_mon" format="2">
  <advance width="659"/>
  <unicode hex="105D"/>
  <note>
bbe_mon
</note>
  <outline>
    <contour>
      <point x="266" y="-467" type="curve" smooth="yes"/>
      <point x="363" y="-467" type="line" smooth="yes"/>
      <point x="498" y="-467"/>
      <point x="568" y="-397"/>
      <point x="568" y="-258" type="curve" smooth="yes"/>
      <point x="568" y="156" type="line"/>
      <point x="480" y="52" type="line"/>
      <point x="480" y="-272" type="line" smooth="yes"/>
      <point x="480" y="-350"/>
      <point x="444" y="-394"/>
      <point x="368" y="-394" type="curve" smooth="yes"/>
      <point x="264" y="-394" type="line" smooth="yes"/>
      <point x="200" y="-394"/>
      <point x="155" y="-367"/>
      <point x="155" y="-316" type="curve" smooth="yes"/>
      <point x="155" y="-266"/>
      <point x="190" y="-244"/>
      <point x="222" y="-244" type="curve" smooth="yes"/>
      <point x="261" y="-244"/>
      <point x="283" y="-261"/>
      <point x="306" y="-283" type="curve"/>
      <point x="361" y="-231" type="line"/>
      <point x="320" y="-193"/>
      <point x="282" y="-170"/>
      <point x="217" y="-170" type="curve" smooth="yes"/>
      <point x="130" y="-170"/>
      <point x="65" y="-229"/>
      <point x="65" y="-315" type="curve" smooth="yes"/>
      <point x="65" y="-415"/>
      <point x="137" y="-467"/>
    </contour>
    <contour>
      <point x="172" y="134" type="line"/>
      <point x="212" y="177"/>
      <point x="262" y="209"/>
      <point x="325" y="209" type="curve" smooth="yes"/>
      <point x="388" y="209"/>
      <point x="444" y="181"/>
      <point x="480" y="137" type="curve"/>
      <point x="515" y="199" type="line"/>
      <point x="465" y="252"/>
      <point x="397" y="280"/>
      <point x="325" y="280" type="curve" smooth="yes"/>
      <point x="243" y="280"/>
      <point x="172" y="238"/>
      <point x="134" y="193" type="curve"/>
    </contour>
    <contour>
      <point x="326" y="-10" type="curve" smooth="yes"/>
      <point x="486" y="-10"/>
      <point x="597" y="108"/>
      <point x="597" y="278" type="curve" smooth="yes"/>
      <point x="597" y="385"/>
      <point x="546" y="491"/>
      <point x="467" y="546" type="curve"/>
      <point x="417" y="482" type="line"/>
      <point x="474" y="435"/>
      <point x="505" y="370"/>
      <point x="505" y="280" type="curve" smooth="yes"/>
      <point x="505" y="148"/>
      <point x="439" y="64"/>
      <point x="326" y="64" type="curve" smooth="yes"/>
      <point x="223" y="64"/>
      <point x="146" y="147"/>
      <point x="146" y="280" type="curve" smooth="yes"/>
      <point x="146" y="370"/>
      <point x="178" y="435"/>
      <point x="235" y="482" type="curve"/>
      <point x="184" y="546" type="line"/>
      <point x="105" y="490"/>
      <point x="55" y="388"/>
      <point x="55" y="278" type="curve" smooth="yes"/>
      <point x="55" y="109"/>
      <point x="174" y="-10"/>
    </contour>
  </outline>
</glyph>
<glyph name="_medialNa_mon" format="2">
  <unicode hex="105E"/>
  <note>
_medialNa_mon
</note>
  <outline>
    <contour>
      <point x="-416" y="-467" type="curve" smooth="yes"/>
      <point x="-320" y="-467"/>
      <point x="-264" y="-412"/>
      <point x="-264" y="-309" type="curve" smooth="yes"/>
      <point x="-264" y="-40" type="line"/>
      <point x="-352" y="-40" type="line"/>
      <point x="-352" y="-319" type="line" smooth="yes"/>
      <point x="-352" y="-372"/>
      <point x="-374" y="-399"/>
      <point x="-416" y="-399" type="curve" smooth="yes"/>
      <point x="-447" y="-399"/>
      <point x="-480" y="-378"/>
      <point x="-480" y="-333" type="curve" smooth="yes"/>
      <point x="-480" y="-272"/>
      <point x="-430" y="-238"/>
      <point x="-338" y="-238" type="curve" smooth="yes"/>
      <point x="-271" y="-238"/>
      <point x="-206" y="-261"/>
      <point x="-144" y="-301" type="curve"/>
      <point x="-102" y="-241" type="line"/>
      <point x="-161" y="-202"/>
      <point x="-254" y="-170"/>
      <point x="-339" y="-170" type="curve" smooth="yes"/>
      <point x="-482" y="-170"/>
      <point x="-567" y="-230"/>
      <point x="-567" y="-329" type="curve" smooth="yes"/>
      <point x="-567" y="-410"/>
      <point x="-506" y="-467"/>
    </contour>
  </outline>
</glyph>
<glyph name="_medialMa_mon" format="2">
  <unicode hex="105F"/>
  <note>
_medialMa_mon
</note>
  <outline>
    <contour>
      <point x="-329" y="-467" type="curve" smooth="yes"/>
      <point x="-239" y="-467"/>
      <point x="-152" y="-439"/>
      <point x="-82" y="-396" type="curve"/>
      <point x="-124" y="-336" type="line"/>
      <point x="-190" y="-380"/>
      <point x="-255" y="-399"/>
      <point x="-321" y="-399" type="curve" smooth="yes"/>
      <point x="-414" y="-399"/>
      <point x="-460" y="-373"/>
      <point x="-460" y="-320" type="curve" smooth="yes"/>
      <point x="-460" y="-267"/>
      <point x="-421" y="-240"/>
      <point x="-341" y="-240" type="curve" smooth="yes"/>
      <point x="-314" y="-240"/>
      <point x="-286" y="-242"/>
      <point x="-264" y="-246" type="curve"/>
      <point x="-264" y="-40" type="line"/>
      <point x="-352" y="-40" type="line"/>
      <point x="-352" y="-170" type="line"/>
      <point x="-472" y="-170"/>
      <point x="-547" y="-226"/>
      <point x="-547" y="-315" type="curve" smooth="yes"/>
      <point x="-547" y="-411"/>
      <point x="-469" y="-467"/>
    </contour>
  </outline>
</glyph>
<glyph name="_medialLa_mon" format="2">
  <unicode hex="1060"/>
  <note>
_medialLa_mon
</note>
  <outline>
    <contour>
      <point x="-528" y="-467" type="line"/>
      <point x="-128" y="-467" type="line"/>
      <point x="-128" y="-399" type="line"/>
      <point x="-404" y="-399" type="line"/>
      <point x="-208" y="-49" type="line"/>
      <point x="-294" y="-49" type="line"/>
    </contour>
  </outline>
</glyph>
<glyph name="sha_skn" format="2">
  <advance width="689"/>
  <unicode hex="1061"/>
  <note>
sha_skn
</note>
  <outline>
    <contour>
      <point x="509" y="-467" type="line"/>
      <point x="598" y="-467" type="line"/>
      <point x="598" y="269" type="line" smooth="yes"/>
      <point x="598" y="426"/>
      <point x="492" y="546"/>
      <point x="327" y="546" type="curve" smooth="yes"/>
      <point x="163" y="546"/>
      <point x="55" y="430"/>
      <point x="55" y="269" type="curve" smooth="yes"/>
      <point x="55" y="108"/>
      <point x="160" y="-10"/>
      <point x="323" y="-10" type="curve" smooth="yes"/>
      <point x="366" y="-10"/>
      <point x="403" y="2"/>
      <point x="438" y="11" type="curve"/>
      <point x="438" y="200"/>
      <point x="328" y="328"/>
      <point x="136" y="337" type="curve"/>
      <point x="128" y="266" type="line"/>
      <point x="258" y="261"/>
      <point x="349" y="185"/>
      <point x="349" y="57" type="curve"/>
      <point x="378" y="74" type="line"/>
      <point x="357" y="64"/>
      <point x="347" y="64"/>
      <point x="327" y="64" type="curve" smooth="yes"/>
      <point x="212" y="64"/>
      <point x="147" y="144"/>
      <point x="147" y="265" type="curve" smooth="yes"/>
      <point x="147" y="399"/>
      <point x="220" y="473"/>
      <point x="328" y="473" type="curve" smooth="yes"/>
      <point x="436" y="473"/>
      <point x="509" y="388"/>
      <point x="509" y="266" type="curve" smooth="yes"/>
    </contour>
    <contour>
      <point x="225" y="-467" type="line"/>
      <point x="438" y="-467" type="line"/>
      <point x="438" y="14" type="line"/>
      <point x="350" y="7" type="line"/>
      <point x="350" y="-399" type="line"/>
      <point x="225" y="-399" type="line"/>
    </contour>
  </outline>
</glyph>
<glyph name="eu_skn" format="2">
  <advance width="336"/>
  <unicode hex="1062"/>
  <note>
eu_skn
</note>
  <outline>
    <contour>
      <point x="157" y="0" type="line"/>
      <point x="245" y="0" type="line"/>
      <point x="245" y="536" type="line"/>
      <point x="31" y="536" type="line"/>
      <point x="31" y="468" type="line"/>
      <point x="157" y="468" type="line"/>
    </contour>
  </outline>
</glyph>
<glyph name="hathi_skn" format="2">
  <advance width="661"/>
  <unicode hex="1063"/>
  <note>
hathi_skn
</note>
  <outline>
    <contour>
      <point x="92" y="-467" type="line"/>
      <point x="180" y="-467" type="line"/>
      <point x="180" y="53" type="line"/>
      <point x="92" y="153" type="line"/>
    </contour>
    <contour>
      <point x="334" y="-10" type="curve" smooth="yes"/>
      <point x="499" y="-10"/>
      <point x="605" y="111"/>
      <point x="605" y="269" type="curve" smooth="yes"/>
      <point x="605" y="431"/>
      <point x="499" y="546"/>
      <point x="334" y="546" type="curve" smooth="yes"/>
      <point x="221" y="546"/>
      <point x="128" y="483"/>
      <point x="92" y="383" type="curve"/>
      <point x="162" y="347" type="line"/>
      <point x="195" y="430"/>
      <point x="257" y="472"/>
      <point x="335" y="472" type="curve" smooth="yes"/>
      <point x="443" y="472"/>
      <point x="514" y="391"/>
      <point x="514" y="270" type="curve" smooth="yes"/>
      <point x="514" y="143"/>
      <point x="445" y="64"/>
      <point x="335" y="64" type="curve" smooth="yes"/>
      <point x="257" y="64"/>
      <point x="195" y="106"/>
      <point x="162" y="189" type="curve"/>
      <point x="92" y="153" type="line"/>
      <point x="166" y="39"/>
      <point x="216" y="-10"/>
    </contour>
  </outline>
</glyph>
<glyph name="kepho_skn" format="2">
  <advance width="401"/>
  <unicode hex="1064"/>
  <note>
kepho_skn
</note>
  <outline>
    <contour>
      <point x="157" y="0" type="line"/>
      <point x="370" y="0" type="line"/>
      <point x="370" y="68" type="line"/>
      <point x="245" y="68" type="line"/>
      <point x="245" y="536" type="line"/>
      <point x="31" y="536" type="line"/>
      <point x="31" y="468" type="line"/>
      <point x="157" y="468" type="line"/>
    </contour>
  </outline>
</glyph>
<glyph name="tha_wpk" format="2">
  <advance width="667"/>
  <unicode hex="1065"/>
  <note>
tha_wpk
</note>
  <outline>
    <contour>
      <point x="331" y="-10" type="curve" smooth="yes"/>
      <point x="504" y="-10"/>
      <point x="617" y="100"/>
      <point x="617" y="269" type="curve" smooth="yes"/>
      <point x="617" y="430"/>
      <point x="502" y="546"/>
      <point x="331" y="546" type="curve" smooth="yes"/>
      <point x="211" y="546"/>
      <point x="112" y="480"/>
      <point x="77" y="383" type="curve"/>
      <point x="146" y="347" type="line"/>
      <point x="182" y="430"/>
      <point x="250" y="472"/>
      <point x="333" y="472" type="curve" smooth="yes"/>
      <point x="451" y="472"/>
      <point x="526" y="390"/>
      <point x="526" y="270" type="curve" smooth="yes"/>
      <point x="526" y="152"/>
      <point x="446" y="64"/>
      <point x="333" y="64" type="curve" smooth="yes"/>
      <point x="250" y="64"/>
      <point x="182" y="106"/>
      <point x="146" y="189" type="curve"/>
      <point x="77" y="153" type="line"/>
      <point x="112" y="56"/>
      <point x="211" y="-10"/>
    </contour>
  </outline>
</glyph>
<glyph name="pwa_wpk" format="2">
  <advance width="653"/>
  <unicode hex="1066"/>
  <note>
pwa_wpk
</note>
  <outline>
    <contour>
      <point x="328" y="-10" type="curve" smooth="yes"/>
      <point x="483" y="-10"/>
      <point x="598" y="108"/>
      <point x="598" y="278" type="curve" smooth="yes"/>
      <point x="598" y="385"/>
      <point x="547" y="491"/>
      <point x="468" y="546" type="curve"/>
      <point x="418" y="482" type="line"/>
      <point x="475" y="435"/>
      <point x="506" y="370"/>
      <point x="506" y="280" type="curve" smooth="yes"/>
      <point x="506" y="148"/>
      <point x="435" y="64"/>
      <point x="328" y="64" type="curve" smooth="yes"/>
      <point x="219" y="64"/>
      <point x="146" y="147"/>
      <point x="146" y="280" type="curve" smooth="yes"/>
      <point x="146" y="370"/>
      <point x="178" y="435"/>
      <point x="235" y="482" type="curve"/>
      <point x="184" y="546" type="line"/>
      <point x="105" y="490"/>
      <point x="55" y="388"/>
      <point x="55" y="278" type="curve" smooth="yes"/>
      <point x="55" y="109"/>
      <point x="170" y="-10"/>
    </contour>
    <contour>
      <point x="159" y="-467" type="line"/>
      <point x="373" y="-467" type="line"/>
      <point x="373" y="10" type="line"/>
      <point x="285" y="10" type="line"/>
      <point x="285" y="-399" type="line"/>
      <point x="159" y="-399" type="line"/>
    </contour>
  </outline>
</glyph>
<glyph name="eu_wpk" format="2">
  <advance width="434"/>
  <unicode hex="1067"/>
  <note>
eu_wpk
</note>
  <outline>
    <contour>
      <point x="194" y="-11" type="curve" smooth="yes"/>
      <point x="285" y="-11"/>
      <point x="343" y="41"/>
      <point x="343" y="131" type="curve"/>
      <point x="317" y="205"/>
      <point x="283" y="273"/>
      <point x="194" y="273" type="curve" smooth="yes"/>
      <point x="107" y="273"/>
      <point x="47" y="221"/>
      <point x="47" y="131" type="curve" smooth="yes"/>
      <point x="47" y="41"/>
      <point x="105" y="-11"/>
    </contour>
    <contour>
      <point x="194" y="60" type="curve" smooth="yes"/>
      <point x="150" y="60"/>
      <point x="124" y="87"/>
      <point x="124" y="131" type="curve" smooth="yes"/>
      <point x="124" y="175"/>
      <point x="154" y="202"/>
      <point x="194" y="202" type="curve" smooth="yes"/>
      <point x="236" y="202"/>
      <point x="266" y="175"/>
      <point x="266" y="131" type="curve" smooth="yes"/>
      <point x="266" y="87"/>
      <point x="240" y="60"/>
    </contour>
    <contour>
      <point x="343" y="131" type="line"/>
      <point x="343" y="536" type="line"/>
      <point x="266" y="536" type="line"/>
      <point x="266" y="252" type="line"/>
    </contour>
  </outline>
</glyph>
<glyph name="ue_wpk" format="2">
  <advance width="336"/>
  <unicode hex="1068"/>
  <note>
ue_wpk
</note>
  <outline>
    <contour>
      <point x="31" y="0" type="line"/>
      <point x="245" y="0" type="line"/>
      <point x="245" y="536" type="line"/>
      <point x="157" y="536" type="line"/>
      <point x="157" y="68" type="line"/>
      <point x="31" y="68" type="line"/>
    </contour>
    <contour>
      <point x="190" y="651" type="curve" smooth="yes"/>
      <point x="255" y="651"/>
      <point x="302" y="690"/>
      <point x="302" y="758" type="curve" smooth="yes"/>
      <point x="302" y="824"/>
      <point x="254" y="863"/>
      <point x="190" y="863" type="curve" smooth="yes"/>
      <point x="125" y="863"/>
      <point x="81" y="824"/>
      <point x="81" y="758" type="curve" smooth="yes"/>
      <point x="81" y="690"/>
      <point x="125" y="651"/>
    </contour>
    <contour>
      <point x="191" y="704" type="curve" smooth="yes"/>
      <point x="158" y="704"/>
      <point x="138" y="725"/>
      <point x="138" y="758" type="curve" smooth="yes"/>
      <point x="138" y="791"/>
      <point x="160" y="810"/>
      <point x="191" y="810" type="curve" smooth="yes"/>
      <point x="222" y="810"/>
      <point x="245" y="791"/>
      <point x="245" y="758" type="curve" smooth="yes"/>
      <point x="245" y="725"/>
      <point x="223" y="704"/>
    </contour>
  </outline>
</glyph>
<glyph name="tone1_wpk" format="2">
  <advance width="423"/>
  <unicode hex="1069"/>
  <note>
tone1_wpk
</note>
  <outline>
    <contour>
      <point x="206" y="-13" type="curve" smooth="yes"/>
      <point x="272" y="-13"/>
      <point x="316" y="3"/>
      <point x="362" y="57" type="curve"/>
      <point x="310" y="108" type="line"/>
      <point x="275" y="69"/>
      <point x="245" y="58"/>
      <point x="209" y="58" type="curve" smooth="yes"/>
      <point x="169" y="58"/>
      <point x="135" y="86"/>
      <point x="135" y="125" type="curve" smooth="yes"/>
      <point x="135" y="168"/>
      <point x="168" y="196"/>
      <point x="226" y="229" type="curve" smooth="yes"/>
      <point x="333" y="290"/>
      <point x="370" y="323"/>
      <point x="370" y="409" type="curve" smooth="yes"/>
      <point x="370" y="483"/>
      <point x="311" y="546"/>
      <point x="217" y="546" type="curve" smooth="yes"/>
      <point x="156" y="546"/>
      <point x="107" y="532"/>
      <point x="61" y="477" type="curve"/>
      <point x="113" y="426" type="line"/>
      <point x="146" y="465"/>
      <point x="180" y="477"/>
      <point x="213" y="477" type="curve" smooth="yes"/>
      <point x="254" y="477"/>
      <point x="288" y="447"/>
      <point x="288" y="412" type="curve" smooth="yes"/>
      <point x="288" y="379"/>
      <point x="274" y="347"/>
      <point x="198" y="306" type="curve" smooth="yes"/>
      <point x="84" y="244"/>
      <point x="53" y="206"/>
      <point x="53" y="127" type="curve" smooth="yes"/>
      <point x="53" y="44"/>
      <point x="118" y="-13"/>
    </contour>
  </outline>
</glyph>
<glyph name="tone2_wpk" format="2">
  <advance width="434"/>
  <unicode hex="106A"/>
  <note>
tone2_wpk
</note>
  <outline>
    <contour>
      <point x="193" y="-11" type="curve" smooth="yes"/>
      <point x="287" y="-11"/>
      <point x="343" y="43"/>
      <point x="343" y="145" type="curve" smooth="yes"/>
      <point x="343" y="536" type="line"/>
      <point x="266" y="536" type="line"/>
      <point x="266" y="150" type="line" smooth="yes"/>
      <point x="266" y="86"/>
      <point x="238" y="60"/>
      <point x="195" y="60" type="curve" smooth="yes"/>
      <point x="150" y="60"/>
      <point x="124" y="87"/>
      <point x="124" y="131" type="curve"/>
      <point x="47" y="131" type="line"/>
      <point x="47" y="41"/>
      <point x="105" y="-11"/>
    </contour>
  </outline>
</glyph>
<glyph name="tone3_wpk" format="2">
  <advance width="434"/>
  <unicode hex="106B"/>
  <note>
tone3_wpk
</note>
  <outline>
    <contour>
      <point x="266" y="0" type="line"/>
      <point x="343" y="0" type="line"/>
      <point x="343" y="391" type="line" smooth="yes"/>
      <point x="343" y="492"/>
      <point x="287" y="546"/>
      <point x="193" y="546" type="curve" smooth="yes"/>
      <point x="105" y="546"/>
      <point x="47" y="496"/>
      <point x="47" y="404" type="curve"/>
      <point x="124" y="404" type="line"/>
      <point x="124" y="447"/>
      <point x="150" y="475"/>
      <point x="195" y="475" type="curve" smooth="yes"/>
      <point x="238" y="475"/>
      <point x="266" y="449"/>
      <point x="266" y="385" type="curve" smooth="yes"/>
    </contour>
  </outline>
</glyph>
<glyph name="tone4_wpk" format="2">
  <advance width="434"/>
  <unicode hex="106C"/>
  <note>
tone4_wpk
</note>
  <outline>
    <contour>
      <point x="241" y="-11" type="curve" smooth="yes"/>
      <point x="329" y="-11"/>
      <point x="387" y="41"/>
      <point x="387" y="131" type="curve"/>
      <point x="311" y="131" type="line"/>
      <point x="311" y="87"/>
      <point x="286" y="60"/>
      <point x="239" y="60" type="curve" smooth="yes"/>
      <point x="196" y="60"/>
      <point x="168" y="86"/>
      <point x="168" y="150" type="curve" smooth="yes"/>
      <point x="168" y="536" type="line"/>
      <point x="91" y="536" type="line"/>
      <point x="91" y="145" type="line" smooth="yes"/>
      <point x="91" y="44"/>
      <point x="146" y="-11"/>
    </contour>
  </outline>
</glyph>
<glyph name="tone5_wpk" format="2">
  <advance width="423"/>
  <unicode hex="106D"/>
  <note>
tone5_wpk
</note>
  <outline>
    <contour>
      <point x="217" y="-13" type="curve" smooth="yes"/>
      <point x="305" y="-13"/>
      <point x="370" y="44"/>
      <point x="370" y="127" type="curve" smooth="yes"/>
      <point x="370" y="206"/>
      <point x="339" y="244"/>
      <point x="225" y="306" type="curve" smooth="yes"/>
      <point x="149" y="347"/>
      <point x="135" y="379"/>
      <point x="135" y="412" type="curve" smooth="yes"/>
      <point x="135" y="447"/>
      <point x="169" y="477"/>
      <point x="210" y="477" type="curve" smooth="yes"/>
      <point x="243" y="477"/>
      <point x="277" y="465"/>
      <point x="310" y="426" type="curve"/>
      <point x="362" y="477" type="line"/>
      <point x="316" y="532"/>
      <point x="267" y="546"/>
      <point x="206" y="546" type="curve" smooth="yes"/>
      <point x="112" y="546"/>
      <point x="53" y="483"/>
      <point x="53" y="409" type="curve" smooth="yes"/>
      <point x="53" y="323"/>
      <point x="90" y="290"/>
      <point x="197" y="229" type="curve" smooth="yes"/>
      <point x="255" y="196"/>
      <point x="288" y="168"/>
      <point x="288" y="125" type="curve" smooth="yes"/>
      <point x="288" y="86"/>
      <point x="254" y="58"/>
      <point x="214" y="58" type="curve" smooth="yes"/>
      <point x="178" y="58"/>
      <point x="148" y="69"/>
      <point x="113" y="108" type="curve"/>
      <point x="61" y="57" type="line"/>
      <point x="107" y="3"/>
      <point x="151" y="-13"/>
    </contour>
  </outline>
</glyph>
<glyph name="nna_epk" format="2">
  <advance width="1253"/>
  <unicode hex="106E"/>
  <note>
nna_epk
</note>
  <outline>
    <contour>
      <point x="184" y="-10" type="curve"/>
      <point x="235" y="54" type="line"/>
      <point x="178" y="101"/>
      <point x="146" y="167"/>
      <point x="146" y="256" type="curve" smooth="yes"/>
      <point x="146" y="393"/>
      <point x="210" y="473"/>
      <point x="301" y="473" type="curve" smooth="yes"/>
      <point x="391" y="473"/>
      <point x="454" y="396"/>
      <point x="454" y="256" type="curve" smooth="yes"/>
      <point x="454" y="167"/>
      <point x="423" y="101"/>
      <point x="365" y="54" type="curve"/>
      <point x="417" y="-10" type="line"/>
      <point x="493" y="42"/>
      <point x="546" y="149"/>
      <point x="546" y="258" type="curve" smooth="yes"/>
      <point x="546" y="418"/>
      <point x="448" y="546"/>
      <point x="301" y="546" type="curve" smooth="yes"/>
      <point x="163" y="546"/>
      <point x="55" y="431"/>
      <point x="55" y="258" type="curve" smooth="yes"/>
      <point x="55" y="143"/>
      <point x="111" y="38"/>
    </contour>
    <contour>
      <point x="675" y="-10" type="line"/>
      <point x="744" y="42"/>
      <point x="796" y="130"/>
      <point x="796" y="258" type="curve" smooth="yes"/>
      <point x="796" y="408"/>
      <point x="698" y="546"/>
      <point x="547" y="546" type="curve" smooth="yes"/>
      <point x="495" y="546"/>
      <point x="449" y="532"/>
      <point x="410" y="503" type="curve"/>
      <point x="467" y="451" type="line"/>
      <point x="492" y="464"/>
      <point x="518" y="472"/>
      <point x="545" y="472" type="curve" smooth="yes"/>
      <point x="639" y="472"/>
      <point x="704" y="396"/>
      <point x="704" y="256" type="curve" smooth="yes"/>
      <point x="704" y="167"/>
      <point x="676" y="101"/>
      <point x="623" y="54" type="curve"/>
    </contour>
    <contour>
      <point x="969" y="-10" type="curve" smooth="yes"/>
      <point x="1104" y="-10"/>
      <point x="1198" y="102"/>
      <point x="1198" y="269" type="curve" smooth="yes"/>
      <point x="1198" y="421"/>
      <point x="1108" y="546"/>
      <point x="954" y="546" type="curve" smooth="yes"/>
      <point x="862" y="546"/>
      <point x="788" y="500"/>
      <point x="741" y="413" type="curve"/>
      <point x="778" y="322" type="line"/>
      <point x="823" y="415"/>
      <point x="873" y="472"/>
      <point x="952" y="472" type="curve" smooth="yes"/>
      <point x="1047" y="472"/>
      <point x="1107" y="389"/>
      <point x="1107" y="266" type="curve" smooth="yes"/>
      <point x="1107" y="141"/>
      <point x="1046" y="64"/>
      <point x="954" y="64" type="curve" smooth="yes"/>
      <point x="924" y="64"/>
      <point x="898" y="70"/>
      <point x="876" y="82" type="curve"/>
      <point x="844" y="16" type="line"/>
      <point x="878" y="-3"/>
      <point x="915" y="-10"/>
    </contour>
  </outline>
</glyph>
<glyph name="ywa_epk" format="2">
  <advance width="1102"/>
  <unicode hex="106F"/>
  <note>
ywa_epk
</note>
  <outline>
    <contour>
      <point x="326" y="-10" type="curve" smooth="yes"/>
      <point x="486" y="-10"/>
      <point x="597" y="117"/>
      <point x="597" y="266" type="curve" smooth="yes"/>
      <point x="597" y="384"/>
      <point x="555" y="485"/>
      <point x="468" y="546" type="curve"/>
      <point x="417" y="482" type="line"/>
      <point x="474" y="435"/>
      <point x="506" y="370"/>
      <point x="506" y="280" type="curve" smooth="yes"/>
      <point x="506" y="147"/>
      <point x="434" y="64"/>
      <point x="326" y="64" type="curve" smooth="yes"/>
      <point x="219" y="64"/>
      <point x="146" y="146"/>
      <point x="146" y="280" type="curve" smooth="yes"/>
      <point x="146" y="370"/>
      <point x="178" y="435"/>
      <point x="235" y="482" type="curve"/>
      <point x="184" y="546" type="line"/>
      <point x="105" y="490"/>
      <point x="55" y="388"/>
      <point x="55" y="278" type="curve" smooth="yes"/>
      <point x="55" y="108"/>
      <point x="170" y="-10"/>
    </contour>
    <contour>
      <point x="639" y="-467" type="line"/>
      <point x="853" y="-467" type="line"/>
      <point x="853" y="13" type="line"/>
      <point x="765" y="7" type="line"/>
      <point x="765" y="-399" type="line"/>
      <point x="639" y="-399" type="line"/>
    </contour>
    <contour>
      <point x="791" y="-10" type="curve"/>
      <point x="945" y="-10"/>
      <point x="1047" y="98"/>
      <point x="1047" y="268" type="curve" smooth="yes"/>
      <point x="1047" y="427"/>
      <point x="942" y="546"/>
      <point x="776" y="546" type="curve" smooth="yes"/>
      <point x="682" y="546"/>
      <point x="597" y="502"/>
      <point x="549" y="426" type="curve"/>
      <point x="582" y="329" type="line"/>
      <point x="630" y="420"/>
      <point x="689" y="471"/>
      <point x="777" y="471" type="curve" smooth="yes"/>
      <point x="888" y="471"/>
      <point x="956" y="387"/>
      <point x="956" y="266" type="curve" smooth="yes"/>
      <point x="956" y="143"/>
      <point x="886" y="64"/>
      <point x="779" y="64" type="curve" smooth="yes"/>
      <point x="742" y="64"/>
      <point x="712" y="70"/>
      <point x="687" y="82" type="curve"/>
      <point x="655" y="16" type="line"/>
      <point x="690" y="-1"/>
      <point x="734" y="-10"/>
    </contour>
  </outline>
</glyph>
<glyph name="ghwa_epk" format="2">
  <advance width="1104"/>
  <unicode hex="1070"/>
  <note>
ghwa_epk
</note>
  <outline>
    <contour>
      <point x="320" y="-10" type="curve" smooth="yes"/>
      <point x="486" y="-10"/>
      <point x="598" y="101"/>
      <point x="598" y="278" type="curve" smooth="yes"/>
      <point x="598" y="383"/>
      <point x="550" y="489"/>
      <point x="469" y="546" type="curve"/>
      <point x="418" y="482" type="line"/>
      <point x="475" y="435"/>
      <point x="507" y="370"/>
      <point x="507" y="280" type="curve" smooth="yes"/>
      <point x="507" y="146"/>
      <point x="431" y="64"/>
      <point x="327" y="64" type="curve" smooth="yes"/>
      <point x="215" y="64"/>
      <point x="153" y="122"/>
      <point x="153" y="200" type="curve" smooth="yes"/>
      <point x="153" y="242"/>
      <point x="167" y="277"/>
      <point x="222" y="325" type="curve" smooth="yes"/>
      <point x="277" y="373"/>
      <point x="286" y="397"/>
      <point x="286" y="442" type="curve" smooth="yes"/>
      <point x="286" y="491"/>
      <point x="244" y="546"/>
      <point x="170" y="546" type="curve" smooth="yes"/>
      <point x="119" y="546"/>
      <point x="93" y="529"/>
      <point x="53" y="486" type="curve"/>
      <point x="103" y="435" type="line"/>
      <point x="126" y="462"/>
      <point x="143" y="472"/>
      <point x="163" y="472" type="curve" smooth="yes"/>
      <point x="186" y="472"/>
      <point x="200" y="456"/>
      <point x="200" y="437" type="curve" smooth="yes"/>
      <point x="200" y="410"/>
      <point x="182" y="392"/>
      <point x="150" y="368" type="curve" smooth="yes"/>
      <point x="94" y="325"/>
      <point x="63" y="270"/>
      <point x="63" y="200" type="curve" smooth="yes"/>
      <point x="63" y="76"/>
      <point x="166" y="-10"/>
    </contour>
    <contour>
      <point x="617" y="-467" type="line"/>
      <point x="831" y="-467" type="line"/>
      <point x="831" y="13" type="line"/>
      <point x="743" y="7" type="line"/>
      <point x="743" y="-399" type="line"/>
      <point x="617" y="-399" type="line"/>
    </contour>
    <contour>
      <point x="773" y="-10" type="curve" smooth="yes"/>
      <point x="946" y="-10"/>
      <point x="1048" y="111"/>
      <point x="1048" y="268" type="curve" smooth="yes"/>
      <point x="1048" y="437"/>
      <point x="940" y="546"/>
      <point x="789" y="546" type="curve" smooth="yes"/>
      <point x="732" y="546"/>
      <point x="693" y="539"/>
      <point x="657" y="520" type="curve"/>
      <point x="689" y="454" type="line"/>
      <point x="713" y="466"/>
      <point x="741" y="472"/>
      <point x="775" y="472" type="curve" smooth="yes"/>
      <point x="884" y="472"/>
      <point x="957" y="394"/>
      <point x="957" y="270" type="curve" smooth="yes"/>
      <point x="957" y="146"/>
      <point x="891" y="64"/>
      <point x="782" y="64" type="curve" smooth="yes"/>
      <point x="699" y="64"/>
      <point x="627" y="118"/>
      <point x="581" y="213" type="curve"/>
      <point x="544" y="122" type="line"/>
      <point x="594" y="35"/>
      <point x="681" y="-10"/>
    </contour>
  </outline>
</glyph>
<glyph name="i_gkn" format="2">
  <unicode hex="1071"/>
  <note>
i_gkn
</note>
  <outline>
    <contour>
      <point x="-171" y="685" type="curve" smooth="yes"/>
      <point x="-106" y="685"/>
      <point x="-60" y="723"/>
      <point x="-60" y="792" type="curve" smooth="yes"/>
      <point x="-60" y="856"/>
      <point x="-107" y="896"/>
      <point x="-171" y="896" type="curve" smooth="yes"/>
      <point x="-237" y="896"/>
      <point x="-280" y="855"/>
      <point x="-280" y="791" type="curve" smooth="yes"/>
      <point x="-280" y="723"/>
      <point x="-237" y="685"/>
    </contour>
    <contour>
      <point x="-170" y="737" type="curve" smooth="yes"/>
      <point x="-205" y="737"/>
      <point x="-223" y="758"/>
      <point x="-223" y="791" type="curve" smooth="yes"/>
      <point x="-223" y="824"/>
      <point x="-201" y="843"/>
      <point x="-170" y="843" type="curve" smooth="yes"/>
      <point x="-139" y="843"/>
      <point x="-117" y="824"/>
      <point x="-117" y="791" type="curve" smooth="yes"/>
      <point x="-117" y="758"/>
      <point x="-139" y="737"/>
    </contour>
    <contour>
      <point x="-460" y="685" type="curve" smooth="yes"/>
      <point x="-396" y="685"/>
      <point x="-349" y="723"/>
      <point x="-349" y="792" type="curve" smooth="yes"/>
      <point x="-349" y="856"/>
      <point x="-396" y="896"/>
      <point x="-460" y="896" type="curve" smooth="yes"/>
      <point x="-525" y="896"/>
      <point x="-570" y="856"/>
      <point x="-570" y="791" type="curve" smooth="yes"/>
      <point x="-570" y="723"/>
      <point x="-525" y="685"/>
    </contour>
    <contour>
      <point x="-459" y="737" type="curve" smooth="yes"/>
      <point x="-494" y="737"/>
      <point x="-513" y="758"/>
      <point x="-513" y="791" type="curve" smooth="yes"/>
      <point x="-513" y="824"/>
      <point x="-490" y="843"/>
      <point x="-459" y="843" type="curve" smooth="yes"/>
      <point x="-428" y="843"/>
      <point x="-406" y="824"/>
      <point x="-406" y="791" type="curve" smooth="yes"/>
      <point x="-406" y="758"/>
      <point x="-428" y="737"/>
    </contour>
  </outline>
</glyph>
<glyph name="oe_kyh" format="2">
  <unicode hex="1072"/>
  <note>
oe_kyh
</note>
  <outline>
    <contour>
      <point x="-304" y="626" type="curve" smooth="yes"/>
      <point x="-228" y="626"/>
      <point x="-162" y="667"/>
      <point x="-134" y="735" type="curve"/>
      <point x="-199" y="766" type="line"/>
      <point x="-219" y="715"/>
      <point x="-259" y="693"/>
      <point x="-307" y="693" type="curve" smooth="yes"/>
      <point x="-371" y="693"/>
      <point x="-407" y="744"/>
      <point x="-407" y="816" type="curve" smooth="yes"/>
      <point x="-407" y="884"/>
      <point x="-368" y="935"/>
      <point x="-304" y="935" type="curve" smooth="yes"/>
      <point x="-259" y="935"/>
      <point x="-219" y="912"/>
      <point x="-201" y="861" type="curve"/>
      <point x="-137" y="894" type="line"/>
      <point x="-164" y="962"/>
      <point x="-224" y="1002"/>
      <point x="-302" y="1002" type="curve" smooth="yes"/>
      <point x="-414" y="1002"/>
      <point x="-487" y="919"/>
      <point x="-487" y="814" type="curve" smooth="yes"/>
      <point x="-487" y="707"/>
      <point x="-416" y="626"/>
    </contour>
  </outline>
</glyph>
<glyph name="u_kyh" format="2">
  <unicode hex="1073"/>
  <note>
u_kyh
</note>
  <outline>
    <contour>
      <point x="-527" y="626" type="line"/>
      <point x="-302" y="844" type="line"/>
      <point x="-78" y="626" type="line"/>
      <point x="-28" y="682" type="line"/>
      <point x="-302" y="949" type="line"/>
      <point x="-576" y="682" type="line"/>
    </contour>
  </outline>
</glyph>
<glyph name="ee_kyh" format="2">
  <unicode hex="1074"/>
  <note>
ee_kyh
</note>
  <outline>
    <contour>
      <point x="-302" y="626" type="line"/>
      <point x="-28" y="893" type="line"/>
      <point x="-78" y="949" type="line"/>
      <point x="-302" y="731" type="line"/>
      <point x="-527" y="949" type="line"/>
      <point x="-576" y="893" type="line"/>
    </contour>
  </outline>
</glyph>
<glyph name="ka_shn" format="2">
  <advance width="667"/>
  <unicode hex="1075"/>
  <note>
ka_shn
</note>
  <outline>
    <contour>
      <point x="175" y="-10" type="curve" smooth="yes"/>
      <point x="251" y="-10"/>
      <point x="294" y="45"/>
      <point x="294" y="94" type="curve" smooth="yes"/>
      <point x="294" y="141"/>
      <point x="282" y="167"/>
      <point x="226" y="212" type="curve" smooth="yes"/>
      <point x="172" y="256"/>
      <point x="155" y="292"/>
      <point x="155" y="336" type="curve" smooth="yes"/>
      <point x="155" y="416"/>
      <point x="217" y="473"/>
      <point x="335" y="473" type="curve" smooth="yes"/>
      <point x="446" y="473"/>
      <point x="522" y="390"/>
      <point x="522" y="256" type="curve" smooth="yes"/>
      <point x="522" y="167"/>
      <point x="490" y="101"/>
      <point x="429" y="54" type="curve"/>
      <point x="481" y="-10" type="line"/>
      <point x="557" y="39"/>
      <point x="614" y="148"/>
      <point x="614" y="258" type="curve" smooth="yes"/>
      <point x="614" y="432"/>
      <point x="486" y="546"/>
      <point x="332" y="546" type="curve" smooth="yes"/>
      <point x="166" y="546"/>
      <point x="65" y="460"/>
      <point x="65" y="336" type="curve" smooth="yes"/>
      <point x="65" y="252"/>
      <point x="107" y="206"/>
      <point x="177" y="150" type="curve" smooth="yes"/>
      <point x="198" y="133"/>
      <point x="208" y="116"/>
      <point x="208" y="99" type="curve" smooth="yes"/>
      <point x="208" y="80"/>
      <point x="194" y="64"/>
      <point x="170" y="64" type="curve" smooth="yes"/>
      <point x="150" y="64"/>
      <point x="128" y="76"/>
      <point x="105" y="101" type="curve"/>
      <point x="55" y="50" type="line"/>
      <point x="96" y="7"/>
      <point x="123" y="-10"/>
    </contour>
  </outline>
</glyph>
<glyph name="kha_shn" format="2">
  <advance width="672"/>
  <unicode hex="1076"/>
  <note>
kha_shn
</note>
  <outline>
    <contour>
      <point x="322" y="-10" type="curve" smooth="yes"/>
      <point x="510" y="-10"/>
      <point x="621" y="109"/>
      <point x="621" y="282" type="curve" smooth="yes"/>
      <point x="621" y="437"/>
      <point x="526" y="545"/>
      <point x="392" y="545" type="curve" smooth="yes"/>
      <point x="329" y="545"/>
      <point x="285" y="526"/>
      <point x="235" y="461" type="curve" smooth="yes"/>
      <point x="210" y="428"/>
      <point x="188" y="412"/>
      <point x="167" y="412" type="curve" smooth="yes"/>
      <point x="143" y="412"/>
      <point x="121" y="424"/>
      <point x="121" y="444" type="curve" smooth="yes"/>
      <point x="121" y="463"/>
      <point x="133" y="477"/>
      <point x="158" y="497" type="curve"/>
      <point x="107" y="547" type="line"/>
      <point x="64" y="508"/>
      <point x="47" y="480"/>
      <point x="47" y="430" type="curve" smooth="yes"/>
      <point x="47" y="364"/>
      <point x="107" y="326"/>
      <point x="162" y="326" type="curve" smooth="yes"/>
      <point x="223" y="326"/>
      <point x="254" y="352"/>
      <point x="304" y="419" type="curve" smooth="yes"/>
      <point x="330" y="453"/>
      <point x="361" y="470"/>
      <point x="398" y="470" type="curve" smooth="yes"/>
      <point x="477" y="470"/>
      <point x="531" y="402"/>
      <point x="531" y="271" type="curve" smooth="yes"/>
      <point x="531" y="136"/>
      <point x="456" y="64"/>
      <point x="326" y="64" type="curve" smooth="yes"/>
      <point x="249" y="64"/>
      <point x="184" y="94"/>
      <point x="143" y="154" type="curve"/>
      <point x="188" y="178"/>
      <point x="244" y="196"/>
      <point x="303" y="196" type="curve" smooth="yes"/>
      <point x="394" y="196"/>
      <point x="457" y="166"/>
      <point x="503" y="125" type="curve"/>
      <point x="534" y="192" type="line"/>
      <point x="479" y="238"/>
      <point x="402" y="270"/>
      <point x="307" y="270" type="curve" smooth="yes"/>
      <point x="219" y="270"/>
      <point x="140" y="244"/>
      <point x="47" y="183" type="curve"/>
      <point x="84" y="58"/>
      <point x="192" y="-10"/>
    </contour>
  </outline>
</glyph>
<glyph name="ga_shn" format="2">
  <advance width="674"/>
  <unicode hex="1077"/>
  <note>
ga_shn
</note>
  <outline>
    <contour>
      <point x="172" y="-10" type="curve" smooth="yes"/>
      <point x="250" y="-10"/>
      <point x="292" y="44"/>
      <point x="292" y="95" type="curve" smooth="yes"/>
      <point x="292" y="138"/>
      <point x="280" y="166"/>
      <point x="223" y="213" type="curve" smooth="yes"/>
      <point x="166" y="260"/>
      <point x="151" y="293"/>
      <point x="151" y="336" type="curve" smooth="yes"/>
      <point x="151" y="416"/>
      <point x="214" y="473"/>
      <point x="333" y="473" type="curve" smooth="yes"/>
      <point x="450" y="473"/>
      <point x="532" y="380"/>
      <point x="532" y="256" type="curve" smooth="yes"/>
      <point x="532" y="190"/>
      <point x="507" y="136"/>
      <point x="469" y="93" type="curve"/>
      <point x="424" y="136"/>
      <point x="407" y="179"/>
      <point x="407" y="250" type="curve" smooth="yes"/>
      <point x="407" y="320"/>
      <point x="433" y="387"/>
      <point x="481" y="429" type="curve"/>
      <point x="416" y="468" type="line"/>
      <point x="366" y="420"/>
      <point x="327" y="347"/>
      <point x="327" y="250" type="curve" smooth="yes"/>
      <point x="327" y="135"/>
      <point x="374" y="52"/>
      <point x="467" y="-8" type="curve"/>
      <point x="552" y="42"/>
      <point x="613" y="145"/>
      <point x="613" y="258" type="curve" smooth="yes"/>
      <point x="613" y="430"/>
      <point x="491" y="546"/>
      <point x="330" y="546" type="curve" smooth="yes"/>
      <point x="164" y="546"/>
      <point x="62" y="461"/>
      <point x="62" y="336" type="curve" smooth="yes"/>
      <point x="62" y="250"/>
      <point x="102" y="205"/>
      <point x="174" y="150" type="curve" smooth="yes"/>
      <point x="195" y="134"/>
      <point x="206" y="117"/>
      <point x="206" y="100" type="curve" smooth="yes"/>
      <point x="206" y="81"/>
      <point x="190" y="64"/>
      <point x="166" y="64" type="curve" smooth="yes"/>
      <point x="144" y="64"/>
      <point x="125" y="75"/>
      <point x="102" y="101" type="curve"/>
      <point x="52" y="50" type="line"/>
      <point x="93" y="7"/>
      <point x="120" y="-10"/>
    </contour>
  </outline>
</glyph>
<glyph name="za_shn" format="2">
  <advance width="1126"/>
  <unicode hex="1079"/>
  <note>
za_shn
</note>
  <outline>
    <contour>
      <point x="323" y="-10" type="curve" smooth="yes"/>
      <point x="363" y="-10"/>
      <point x="401" y="-1"/>
      <point x="432" y="9" type="curve"/>
      <point x="432" y="208"/>
      <point x="321" y="328"/>
      <point x="138" y="337" type="curve"/>
      <point x="128" y="266" type="line"/>
      <point x="264" y="260"/>
      <point x="350" y="182"/>
      <point x="350" y="44" type="curve"/>
      <point x="362" y="65" type="line"/>
      <point x="351" y="64"/>
      <point x="340" y="64"/>
      <point x="332" y="64" type="curve" smooth="yes"/>
      <point x="209" y="64"/>
      <point x="147" y="147"/>
      <point x="147" y="265" type="curve" smooth="yes"/>
      <point x="147" y="396"/>
      <point x="226" y="471"/>
      <point x="350" y="471" type="curve" smooth="yes"/>
      <point x="432" y="471"/>
      <point x="497" y="410"/>
      <point x="540" y="323" type="curve"/>
      <point x="579" y="410" type="line"/>
      <point x="532" y="490"/>
      <point x="455" y="546"/>
      <point x="346" y="546" type="curve" smooth="yes"/>
      <point x="175" y="546"/>
      <point x="55" y="428"/>
      <point x="55" y="268" type="curve" smooth="yes"/>
      <point x="55" y="110"/>
      <point x="160" y="-10"/>
    </contour>
    <contour>
      <point x="795" y="-10" type="curve" smooth="yes"/>
      <point x="955" y="-10"/>
      <point x="1072" y="105"/>
      <point x="1072" y="268" type="curve" smooth="yes"/>
      <point x="1072" y="424"/>
      <point x="962" y="546"/>
      <point x="798" y="546" type="curve" smooth="yes"/>
      <point x="627" y="546"/>
      <point x="523" y="426"/>
      <point x="523" y="268" type="curve" smooth="yes"/>
      <point x="523" y="109"/>
      <point x="626" y="-10"/>
    </contour>
    <contour>
      <point x="798" y="64" type="curve" smooth="yes"/>
      <point x="688" y="64"/>
      <point x="614" y="143"/>
      <point x="614" y="266" type="curve" smooth="yes"/>
      <point x="614" y="391"/>
      <point x="683" y="472"/>
      <point x="799" y="472" type="curve" smooth="yes"/>
      <point x="908" y="472"/>
      <point x="980" y="389"/>
      <point x="980" y="266" type="curve" smooth="yes"/>
      <point x="980" y="146"/>
      <point x="905" y="64"/>
    </contour>
  </outline>
</glyph>
<glyph name="nya_shn" format="2">
  <advance width="1104"/>
  <unicode hex="107A"/>
  <note>
nya_shn
</note>
  <outline>
    <contour>
      <point x="315" y="-10" type="curve" smooth="yes"/>
      <point x="354" y="-10"/>
      <point x="384" y="-1"/>
      <point x="409" y="6" type="curve"/>
      <point x="379" y="74" type="line"/>
      <point x="362" y="67"/>
      <point x="341" y="64"/>
      <point x="322" y="64" type="curve" smooth="yes"/>
      <point x="216" y="64"/>
      <point x="146" y="146"/>
      <point x="146" y="266" type="curve" smooth="yes"/>
      <point x="146" y="395"/>
      <point x="218" y="473"/>
      <point x="328" y="473" type="curve" smooth="yes"/>
      <point x="445" y="473"/>
      <point x="510" y="395"/>
      <point x="510" y="266" type="curve" smooth="yes"/>
      <point x="510" y="126"/>
      <point x="610" y="-10"/>
      <point x="779" y="-10" type="curve" smooth="yes"/>
      <point x="942" y="-10"/>
      <point x="1049" y="108"/>
      <point x="1049" y="269" type="curve" smooth="yes"/>
      <point x="1049" y="419"/>
      <point x="946" y="546"/>
      <point x="791" y="546" type="curve" smooth="yes"/>
      <point x="736" y="546"/>
      <point x="708" y="542"/>
      <point x="675" y="528" type="curve"/>
      <point x="706" y="461" type="line"/>
      <point x="726" y="467"/>
      <point x="749" y="473"/>
      <point x="782" y="473" type="curve" smooth="yes"/>
      <point x="889" y="473"/>
      <point x="958" y="388"/>
      <point x="958" y="271" type="curve" smooth="yes"/>
      <point x="958" y="147"/>
      <point x="888" y="64"/>
      <point x="782" y="64" type="curve" smooth="yes"/>
      <point x="668" y="64"/>
      <point x="598" y="146"/>
      <point x="598" y="273" type="curve" smooth="yes"/>
      <point x="598" y="433"/>
      <point x="491" y="546"/>
      <point x="327" y="546" type="curve" smooth="yes"/>
      <point x="162" y="546"/>
      <point x="55" y="431"/>
      <point x="55" y="269" type="curve" smooth="yes"/>
      <point x="55" y="105"/>
      <point x="160" y="-10"/>
    </contour>
    <contour>
      <point x="510" y="-467" type="line"/>
      <point x="723" y="-467" type="line"/>
      <point x="723" y="-399" type="line"/>
      <point x="598" y="-399" type="line"/>
      <point x="598" y="114" type="line"/>
      <point x="510" y="316" type="line" smooth="yes"/>
    </contour>
  </outline>
</glyph>
<glyph name="da_shn" format="2">
  <advance width="1126"/>
  <unicode hex="107B"/>
  <note>
da_shn
</note>
  <outline>
    <contour>
      <point x="804" y="-10" type="curve" smooth="yes"/>
      <point x="967" y="-10"/>
      <point x="1072" y="110"/>
      <point x="1072" y="268" type="curve" smooth="yes"/>
      <point x="1072" y="428"/>
      <point x="952" y="546"/>
      <point x="781" y="546" type="curve" smooth="yes"/>
      <point x="672" y="546"/>
      <point x="595" y="490"/>
      <point x="548" y="410" type="curve"/>
      <point x="587" y="323" type="line"/>
      <point x="630" y="410"/>
      <point x="695" y="471"/>
      <point x="777" y="471" type="curve" smooth="yes"/>
      <point x="901" y="471"/>
      <point x="980" y="396"/>
      <point x="980" y="265" type="curve" smooth="yes"/>
      <point x="980" y="147"/>
      <point x="918" y="64"/>
      <point x="795" y="64" type="curve" smooth="yes"/>
      <point x="787" y="64"/>
      <point x="776" y="64"/>
      <point x="765" y="65" type="curve"/>
      <point x="777" y="44" type="line"/>
      <point x="777" y="182"/>
      <point x="863" y="260"/>
      <point x="999" y="266" type="curve"/>
      <point x="989" y="337" type="line"/>
      <point x="806" y="328"/>
      <point x="695" y="208"/>
      <point x="695" y="9" type="curve"/>
      <point x="726" y="-1"/>
      <point x="764" y="-10"/>
    </contour>
    <contour>
      <point x="332" y="-10" type="curve" smooth="yes"/>
      <point x="501" y="-10"/>
      <point x="604" y="109"/>
      <point x="604" y="268" type="curve" smooth="yes"/>
      <point x="604" y="426"/>
      <point x="500" y="546"/>
      <point x="329" y="546" type="curve" smooth="yes"/>
      <point x="165" y="546"/>
      <point x="55" y="424"/>
      <point x="55" y="268" type="curve" smooth="yes"/>
      <point x="55" y="105"/>
      <point x="172" y="-10"/>
    </contour>
    <contour>
      <point x="329" y="64" type="curve" smooth="yes"/>
      <point x="222" y="64"/>
      <point x="147" y="146"/>
      <point x="147" y="266" type="curve" smooth="yes"/>
      <point x="147" y="389"/>
      <point x="219" y="472"/>
      <point x="328" y="472" type="curve" smooth="yes"/>
      <point x="444" y="472"/>
      <point x="513" y="391"/>
      <point x="513" y="266" type="curve" smooth="yes"/>
      <point x="513" y="143"/>
      <point x="439" y="64"/>
    </contour>
  </outline>
</glyph>
<glyph name="na_shn" format="2">
  <advance width="1129"/>
  <unicode hex="107C"/>
  <note>
na_shn
</note>
  <outline>
    <contour>
      <point x="309" y="-10" type="curve" smooth="yes"/>
      <point x="489" y="-10"/>
      <point x="591" y="112"/>
      <point x="591" y="268" type="curve" smooth="yes"/>
      <point x="591" y="424"/>
      <point x="487" y="546"/>
      <point x="309" y="546" type="curve" smooth="yes"/>
      <point x="199" y="546"/>
      <point x="97" y="480"/>
      <point x="60" y="383" type="curve"/>
      <point x="130" y="347" type="line"/>
      <point x="167" y="430"/>
      <point x="239" y="472"/>
      <point x="311" y="472" type="curve" smooth="yes"/>
      <point x="436" y="472"/>
      <point x="508" y="391"/>
      <point x="508" y="269" type="curve" smooth="yes"/>
      <point x="508" y="168"/>
      <point x="459" y="64"/>
      <point x="312" y="64" type="curve" smooth="yes"/>
      <point x="251" y="64"/>
      <point x="187" y="94"/>
      <point x="147" y="154" type="curve"/>
      <point x="192" y="177"/>
      <point x="246" y="196"/>
      <point x="407" y="196" type="curve" smooth="yes"/>
      <point x="683" y="196" type="line" smooth="yes"/>
      <point x="867" y="196"/>
      <point x="921" y="177"/>
      <point x="966" y="154" type="curve"/>
      <point x="926" y="94"/>
      <point x="862" y="64"/>
      <point x="801" y="64" type="curve" smooth="yes"/>
      <point x="649" y="64"/>
      <point x="598" y="168"/>
      <point x="598" y="269" type="curve" smooth="yes"/>
      <point x="598" y="391"/>
      <point x="673" y="472"/>
      <point x="802" y="472" type="curve" smooth="yes"/>
      <point x="874" y="472"/>
      <point x="946" y="430"/>
      <point x="983" y="347" type="curve"/>
      <point x="1053" y="383" type="line"/>
      <point x="1016" y="480"/>
      <point x="914" y="546"/>
      <point x="804" y="546" type="curve" smooth="yes"/>
      <point x="622" y="546"/>
      <point x="515" y="424"/>
      <point x="515" y="268" type="curve" smooth="yes"/>
      <point x="515" y="112"/>
      <point x="620" y="-10"/>
      <point x="804" y="-10" type="curve" smooth="yes"/>
      <point x="921" y="-10"/>
      <point x="1030" y="64"/>
      <point x="1061" y="182" type="curve"/>
      <point x="969" y="243"/>
      <point x="891" y="269"/>
      <point x="680" y="269" type="curve" smooth="yes"/>
      <point x="410" y="269" type="line" smooth="yes"/>
      <point x="222" y="269"/>
      <point x="144" y="243"/>
      <point x="52" y="182" type="curve"/>
      <point x="83" y="64"/>
      <point x="192" y="-10"/>
    </contour>
  </outline>
</glyph>
<glyph name="pha_shn" format="2">
  <advance width="1128"/>
  <unicode hex="107D"/>
  <note>
pha_shn
</note>
  <outline>
    <contour>
      <point x="324" y="-10" type="curve" smooth="yes"/>
      <point x="505" y="-10"/>
      <point x="603" y="114"/>
      <point x="603" y="278" type="curve" smooth="yes"/>
      <point x="603" y="383"/>
      <point x="563" y="489"/>
      <point x="480" y="546" type="curve"/>
      <point x="429" y="482" type="line"/>
      <point x="488" y="435"/>
      <point x="521" y="370"/>
      <point x="521" y="280" type="curve" smooth="yes"/>
      <point x="521" y="146"/>
      <point x="446" y="64"/>
      <point x="331" y="64" type="curve" smooth="yes"/>
      <point x="215" y="64"/>
      <point x="153" y="122"/>
      <point x="153" y="200" type="curve" smooth="yes"/>
      <point x="153" y="242"/>
      <point x="167" y="275"/>
      <point x="222" y="323" type="curve" smooth="yes"/>
      <point x="284" y="371"/>
      <point x="294" y="397"/>
      <point x="294" y="442" type="curve" smooth="yes"/>
      <point x="294" y="491"/>
      <point x="249" y="546"/>
      <point x="170" y="546" type="curve" smooth="yes"/>
      <point x="119" y="546"/>
      <point x="93" y="529"/>
      <point x="53" y="486" type="curve"/>
      <point x="103" y="435" type="line"/>
      <point x="126" y="462"/>
      <point x="143" y="472"/>
      <point x="163" y="472" type="curve" smooth="yes"/>
      <point x="191" y="472"/>
      <point x="208" y="456"/>
      <point x="208" y="437" type="curve" smooth="yes"/>
      <point x="208" y="410"/>
      <point x="187" y="390"/>
      <point x="152" y="365" type="curve" smooth="yes"/>
      <point x="94" y="323"/>
      <point x="63" y="270"/>
      <point x="63" y="200" type="curve" smooth="yes"/>
      <point x="63" y="76"/>
      <point x="166" y="-10"/>
    </contour>
    <contour>
      <point x="797" y="-10" type="curve" smooth="yes"/>
      <point x="930" y="-10"/>
      <point x="1029" y="64"/>
      <point x="1060" y="182" type="curve"/>
      <point x="968" y="243"/>
      <point x="890" y="269"/>
      <point x="803" y="269" type="curve" smooth="yes"/>
      <point x="710" y="269"/>
      <point x="634" y="238"/>
      <point x="580" y="192" type="curve"/>
      <point x="609" y="124" type="line"/>
      <point x="655" y="166"/>
      <point x="717" y="196"/>
      <point x="806" y="196" type="curve" smooth="yes"/>
      <point x="866" y="196"/>
      <point x="920" y="177"/>
      <point x="965" y="154" type="curve"/>
      <point x="925" y="94"/>
      <point x="871" y="64"/>
      <point x="794" y="64" type="curve" smooth="yes"/>
      <point x="670" y="64"/>
      <point x="614" y="170"/>
      <point x="614" y="272" type="curve" smooth="yes"/>
      <point x="614" y="393"/>
      <point x="692" y="472"/>
      <point x="795" y="472" type="curve" smooth="yes"/>
      <point x="883" y="472"/>
      <point x="945" y="430"/>
      <point x="982" y="347" type="curve"/>
      <point x="1052" y="383" type="line"/>
      <point x="1015" y="480"/>
      <point x="923" y="546"/>
      <point x="797" y="546" type="curve" smooth="yes"/>
      <point x="644" y="546"/>
      <point x="531" y="426"/>
      <point x="531" y="271" type="curve" smooth="yes"/>
      <point x="531" y="114"/>
      <point x="642" y="-10"/>
    </contour>
  </outline>
</glyph>
